<svg xmlns="http://www.w3.org/2000/svg" width="400" height="180" viewBox="0 0 400 180" role="img">
  <title>Pool depth marker decoys</title>
  <desc>Authored vector source for Cameleon sign-lane sprite. Text and colors are generated from script parameters.</desc>
  <metadata>{&quot;kind&quot;:&quot;decoy&quot;,&quot;palette&quot;:&quot;night&quot;}</metadata>
  <rect x="12" y="20" width="376" height="140" rx="8" fill="#1d7587" />
  <rect x="24" y="32" width="108" height="116" rx="6" fill="#182544" />
  <rect x="146" y="32" width="108" height="116" rx="6" fill="#182544" />
  <rect x="268" y="32" width="108" height="116" rx="6" fill="#182544" />
  <rect x="44" y="70" width="4" height="4" rx="0" fill="#d5f7ef" />
  <rect x="48" y="70" width="4" height="4" rx="0" fill="#d5f7ef" />
  <rect x="52" y="70" width="4" height="4" rx="0" fill="#d5f7ef" />
  <rect x="40" y="74" width="4" height="4" rx="0" fill="#d5f7ef" />
  <rect x="56" y="74" width="4" height="4" rx="0" fill="#d5f7ef" />
  <rect x="40" y="78" width="4" height="4" rx="0" fill="#d5f7ef" />
  <rect x="52" y="78" width="4" height="4" rx="0" fill="#d5f7ef" />
  <rect x="56" y="78" width="4" height="4" rx="0" fill="#d5f7ef" />
  <rect x="40" y="82" width="4" height="4" rx="0" fill="#d5f7ef" />
  <rect x="48" y="82" width="4" height="4" rx="0" fill="#d5f7ef" />
  <rect x="56" y="82" width="4" height="4" rx="0" fill="#d5f7ef" />
  <rect x="40" y="86" width="4" height="4" rx="0" fill="#d5f7ef" />
  <rect x="44" y="86" width="4" height="4" rx="0" fill="#d5f7ef" />
  <rect x="56" y="86" width="4" height="4" rx="0" fill="#d5f7ef" />
  <rect x="40" y="90" width="4" height="4" rx="0" fill="#d5f7ef" />
  <rect x="56" y="90" width="4" height="4" rx="0" fill="#d5f7ef" />
  <rect x="44" y="94" width="4" height="4" rx="0" fill="#d5f7ef" />
  <rect x="48" y="94" width="4" height="4" rx="0" fill="#d5f7ef" />
  <rect x="52" y="94" width="4" height="4" rx="0" fill="#d5f7ef" />
  <rect x="64" y="94" width="4" height="4" rx="0" fill="#d5f7ef" />
  <rect x="76" y="70" width="4" height="4" rx="0" fill="#d5f7ef" />
  <rect x="80" y="70" width="4" height="4" rx="0" fill="#d5f7ef" />
  <rect x="84" y="70" width="4" height="4" rx="0" fill="#d5f7ef" />
  <rect x="72" y="74" width="4" height="4" rx="0" fill="#d5f7ef" />
  <rect x="88" y="74" width="4" height="4" rx="0" fill="#d5f7ef" />
  <rect x="72" y="78" width="4" height="4" rx="0" fill="#d5f7ef" />
  <rect x="88" y="78" width="4" height="4" rx="0" fill="#d5f7ef" />
  <rect x="76" y="82" width="4" height="4" rx="0" fill="#d5f7ef" />
  <rect x="80" y="82" width="4" height="4" rx="0" fill="#d5f7ef" />
  <rect x="84" y="82" width="4" height="4" rx="0" fill="#d5f7ef" />
  <rect x="72" y="86" width="4" height="4" rx="0" fill="#d5f7ef" />
  <rect x="88" y="86" width="4" height="4" rx="0" fill="#d5f7ef" />
  <rect x="72" y="90" width="4" height="4" rx="0" fill="#d5f7ef" />
  <rect x="88" y="90" width="4" height="4" rx="0" fill="#d5f7ef" />
  <rect x="76" y="94" width="4" height="4" rx="0" fill="#d5f7ef" />
  <rect x="80" y="94" width="4" height="4" rx="0" fill="#d5f7ef" />
  <rect x="84" y="94" width="4" height="4" rx="0" fill="#d5f7ef" />
  <rect x="96" y="70" width="4" height="4" rx="0" fill="#d5f7ef" />
  <rect x="112" y="70" width="4" height="4" rx="0" fill="#d5f7ef" />
  <rect x="96" y="74" width="4" height="4" rx="0" fill="#d5f7ef" />
  <rect x="100" y="74" width="4" height="4" rx="0" fill="#d5f7ef" />
  <rect x="108" y="74" width="4" height="4" rx="0" fill="#d5f7ef" />
  <rect x="112" y="74" width="4" height="4" rx="0" fill="#d5f7ef" />
  <rect x="96" y="78" width="4" height="4" rx="0" fill="#d5f7ef" />
  <rect x="104" y="78" width="4" height="4" rx="0" fill="#d5f7ef" />
  <rect x="112" y="78" width="4" height="4" rx="0" fill="#d5f7ef" />
  <rect x="96" y="82" width="4" height="4" rx="0" fill="#d5f7ef" />
  <rect x="104" y="82" width="4" height="4" rx="0" fill="#d5f7ef" />
  <rect x="112" y="82" width="4" height="4" rx="0" fill="#d5f7ef" />
  <rect x="96" y="86" width="4" height="4" rx="0" fill="#d5f7ef" />
  <rect x="112" y="86" width="4" height="4" rx="0" fill="#d5f7ef" />
  <rect x="96" y="90" width="4" height="4" rx="0" fill="#d5f7ef" />
  <rect x="112" y="90" width="4" height="4" rx="0" fill="#d5f7ef" />
  <rect x="96" y="94" width="4" height="4" rx="0" fill="#d5f7ef" />
  <rect x="112" y="94" width="4" height="4" rx="0" fill="#d5f7ef" />
  <rect x="170" y="70" width="4" height="4" rx="0" fill="#d5f7ef" />
  <rect x="166" y="74" width="4" height="4" rx="0" fill="#d5f7ef" />
  <rect x="170" y="74" width="4" height="4" rx="0" fill="#d5f7ef" />
  <rect x="170" y="78" width="4" height="4" rx="0" fill="#d5f7ef" />
  <rect x="170" y="82" width="4" height="4" rx="0" fill="#d5f7ef" />
  <rect x="170" y="86" width="4" height="4" rx="0" fill="#d5f7ef" />
  <rect x="170" y="90" width="4" height="4" rx="0" fill="#d5f7ef" />
  <rect x="166" y="94" width="4" height="4" rx="0" fill="#d5f7ef" />
  <rect x="170" y="94" width="4" height="4" rx="0" fill="#d5f7ef" />
  <rect x="174" y="94" width="4" height="4" rx="0" fill="#d5f7ef" />
  <rect x="186" y="94" width="4" height="4" rx="0" fill="#d5f7ef" />
  <rect x="198" y="70" width="4" height="4" rx="0" fill="#d5f7ef" />
  <rect x="202" y="70" width="4" height="4" rx="0" fill="#d5f7ef" />
  <rect x="206" y="70" width="4" height="4" rx="0" fill="#d5f7ef" />
  <rect x="194" y="74" width="4" height="4" rx="0" fill="#d5f7ef" />
  <rect x="210" y="74" width="4" height="4" rx="0" fill="#d5f7ef" />
  <rect x="210" y="78" width="4" height="4" rx="0" fill="#d5f7ef" />
  <rect x="206" y="82" width="4" height="4" rx="0" fill="#d5f7ef" />
  <rect x="202" y="86" width="4" height="4" rx="0" fill="#d5f7ef" />
  <rect x="198" y="90" width="4" height="4" rx="0" fill="#d5f7ef" />
  <rect x="194" y="94" width="4" height="4" rx="0" fill="#d5f7ef" />
  <rect x="198" y="94" width="4" height="4" rx="0" fill="#d5f7ef" />
  <rect x="202" y="94" width="4" height="4" rx="0" fill="#d5f7ef" />
  <rect x="206" y="94" width="4" height="4" rx="0" fill="#d5f7ef" />
  <rect x="210" y="94" width="4" height="4" rx="0" fill="#d5f7ef" />
  <rect x="218" y="70" width="4" height="4" rx="0" fill="#d5f7ef" />
  <rect x="234" y="70" width="4" height="4" rx="0" fill="#d5f7ef" />
  <rect x="218" y="74" width="4" height="4" rx="0" fill="#d5f7ef" />
  <rect x="222" y="74" width="4" height="4" rx="0" fill="#d5f7ef" />
  <rect x="230" y="74" width="4" height="4" rx="0" fill="#d5f7ef" />
  <rect x="234" y="74" width="4" height="4" rx="0" fill="#d5f7ef" />
  <rect x="218" y="78" width="4" height="4" rx="0" fill="#d5f7ef" />
  <rect x="226" y="78" width="4" height="4" rx="0" fill="#d5f7ef" />
  <rect x="234" y="78" width="4" height="4" rx="0" fill="#d5f7ef" />
  <rect x="218" y="82" width="4" height="4" rx="0" fill="#d5f7ef" />
  <rect x="226" y="82" width="4" height="4" rx="0" fill="#d5f7ef" />
  <rect x="234" y="82" width="4" height="4" rx="0" fill="#d5f7ef" />
  <rect x="218" y="86" width="4" height="4" rx="0" fill="#d5f7ef" />
  <rect x="234" y="86" width="4" height="4" rx="0" fill="#d5f7ef" />
  <rect x="218" y="90" width="4" height="4" rx="0" fill="#d5f7ef" />
  <rect x="234" y="90" width="4" height="4" rx="0" fill="#d5f7ef" />
  <rect x="218" y="94" width="4" height="4" rx="0" fill="#d5f7ef" />
  <rect x="234" y="94" width="4" height="4" rx="0" fill="#d5f7ef" />
  <rect x="288" y="70" width="4" height="4" rx="0" fill="#d5f7ef" />
  <rect x="292" y="70" width="4" height="4" rx="0" fill="#d5f7ef" />
  <rect x="296" y="70" width="4" height="4" rx="0" fill="#d5f7ef" />
  <rect x="284" y="74" width="4" height="4" rx="0" fill="#d5f7ef" />
  <rect x="300" y="74" width="4" height="4" rx="0" fill="#d5f7ef" />
  <rect x="300" y="78" width="4" height="4" rx="0" fill="#d5f7ef" />
  <rect x="296" y="82" width="4" height="4" rx="0" fill="#d5f7ef" />
  <rect x="292" y="86" width="4" height="4" rx="0" fill="#d5f7ef" />
  <rect x="288" y="90" width="4" height="4" rx="0" fill="#d5f7ef" />
  <rect x="284" y="94" width="4" height="4" rx="0" fill="#d5f7ef" />
  <rect x="288" y="94" width="4" height="4" rx="0" fill="#d5f7ef" />
  <rect x="292" y="94" width="4" height="4" rx="0" fill="#d5f7ef" />
  <rect x="296" y="94" width="4" height="4" rx="0" fill="#d5f7ef" />
  <rect x="300" y="94" width="4" height="4" rx="0" fill="#d5f7ef" />
  <rect x="308" y="94" width="4" height="4" rx="0" fill="#d5f7ef" />
  <rect x="328" y="70" width="4" height="4" rx="0" fill="#d5f7ef" />
  <rect x="324" y="74" width="4" height="4" rx="0" fill="#d5f7ef" />
  <rect x="328" y="74" width="4" height="4" rx="0" fill="#d5f7ef" />
  <rect x="320" y="78" width="4" height="4" rx="0" fill="#d5f7ef" />
  <rect x="328" y="78" width="4" height="4" rx="0" fill="#d5f7ef" />
  <rect x="316" y="82" width="4" height="4" rx="0" fill="#d5f7ef" />
  <rect x="328" y="82" width="4" height="4" rx="0" fill="#d5f7ef" />
  <rect x="316" y="86" width="4" height="4" rx="0" fill="#d5f7ef" />
  <rect x="320" y="86" width="4" height="4" rx="0" fill="#d5f7ef" />
  <rect x="324" y="86" width="4" height="4" rx="0" fill="#d5f7ef" />
  <rect x="328" y="86" width="4" height="4" rx="0" fill="#d5f7ef" />
  <rect x="332" y="86" width="4" height="4" rx="0" fill="#d5f7ef" />
  <rect x="328" y="90" width="4" height="4" rx="0" fill="#d5f7ef" />
  <rect x="328" y="94" width="4" height="4" rx="0" fill="#d5f7ef" />
  <rect x="340" y="70" width="4" height="4" rx="0" fill="#d5f7ef" />
  <rect x="356" y="70" width="4" height="4" rx="0" fill="#d5f7ef" />
  <rect x="340" y="74" width="4" height="4" rx="0" fill="#d5f7ef" />
  <rect x="344" y="74" width="4" height="4" rx="0" fill="#d5f7ef" />
  <rect x="352" y="74" width="4" height="4" rx="0" fill="#d5f7ef" />
  <rect x="356" y="74" width="4" height="4" rx="0" fill="#d5f7ef" />
  <rect x="340" y="78" width="4" height="4" rx="0" fill="#d5f7ef" />
  <rect x="348" y="78" width="4" height="4" rx="0" fill="#d5f7ef" />
  <rect x="356" y="78" width="4" height="4" rx="0" fill="#d5f7ef" />
  <rect x="340" y="82" width="4" height="4" rx="0" fill="#d5f7ef" />
  <rect x="348" y="82" width="4" height="4" rx="0" fill="#d5f7ef" />
  <rect x="356" y="82" width="4" height="4" rx="0" fill="#d5f7ef" />
  <rect x="340" y="86" width="4" height="4" rx="0" fill="#d5f7ef" />
  <rect x="356" y="86" width="4" height="4" rx="0" fill="#d5f7ef" />
  <rect x="340" y="90" width="4" height="4" rx="0" fill="#d5f7ef" />
  <rect x="356" y="90" width="4" height="4" rx="0" fill="#d5f7ef" />
  <rect x="340" y="94" width="4" height="4" rx="0" fill="#d5f7ef" />
  <rect x="356" y="94" width="4" height="4" rx="0" fill="#d5f7ef" />
  <rect x="166.85714285714286" y="126" width="2.2857142857142856" height="2.2857142857142856" rx="0" fill="#ffe6a1" />
  <rect x="169.14285714285714" y="126" width="2.2857142857142856" height="2.2857142857142856" rx="0" fill="#ffe6a1" />
  <rect x="171.42857142857144" y="126" width="2.2857142857142856" height="2.2857142857142856" rx="0" fill="#ffe6a1" />
  <rect x="173.71428571428572" y="126" width="2.2857142857142856" height="2.2857142857142856" rx="0" fill="#ffe6a1" />
  <rect x="166.85714285714286" y="128.28571428571428" width="2.2857142857142856" height="2.2857142857142856" rx="0" fill="#ffe6a1" />
  <rect x="176" y="128.28571428571428" width="2.2857142857142856" height="2.2857142857142856" rx="0" fill="#ffe6a1" />
  <rect x="166.85714285714286" y="130.57142857142858" width="2.2857142857142856" height="2.2857142857142856" rx="0" fill="#ffe6a1" />
  <rect x="176" y="130.57142857142858" width="2.2857142857142856" height="2.2857142857142856" rx="0" fill="#ffe6a1" />
  <rect x="166.85714285714286" y="132.85714285714286" width="2.2857142857142856" height="2.2857142857142856" rx="0" fill="#ffe6a1" />
  <rect x="176" y="132.85714285714286" width="2.2857142857142856" height="2.2857142857142856" rx="0" fill="#ffe6a1" />
  <rect x="166.85714285714286" y="135.14285714285714" width="2.2857142857142856" height="2.2857142857142856" rx="0" fill="#ffe6a1" />
  <rect x="176" y="135.14285714285714" width="2.2857142857142856" height="2.2857142857142856" rx="0" fill="#ffe6a1" />
  <rect x="166.85714285714286" y="137.42857142857142" width="2.2857142857142856" height="2.2857142857142856" rx="0" fill="#ffe6a1" />
  <rect x="176" y="137.42857142857142" width="2.2857142857142856" height="2.2857142857142856" rx="0" fill="#ffe6a1" />
  <rect x="166.85714285714286" y="139.71428571428572" width="2.2857142857142856" height="2.2857142857142856" rx="0" fill="#ffe6a1" />
  <rect x="169.14285714285714" y="139.71428571428572" width="2.2857142857142856" height="2.2857142857142856" rx="0" fill="#ffe6a1" />
  <rect x="171.42857142857144" y="139.71428571428572" width="2.2857142857142856" height="2.2857142857142856" rx="0" fill="#ffe6a1" />
  <rect x="173.71428571428572" y="139.71428571428572" width="2.2857142857142856" height="2.2857142857142856" rx="0" fill="#ffe6a1" />
  <rect x="180.57142857142858" y="126" width="2.2857142857142856" height="2.2857142857142856" rx="0" fill="#ffe6a1" />
  <rect x="182.85714285714286" y="126" width="2.2857142857142856" height="2.2857142857142856" rx="0" fill="#ffe6a1" />
  <rect x="185.14285714285717" y="126" width="2.2857142857142856" height="2.2857142857142856" rx="0" fill="#ffe6a1" />
  <rect x="187.42857142857144" y="126" width="2.2857142857142856" height="2.2857142857142856" rx="0" fill="#ffe6a1" />
  <rect x="189.71428571428572" y="126" width="2.2857142857142856" height="2.2857142857142856" rx="0" fill="#ffe6a1" />
  <rect x="180.57142857142858" y="128.28571428571428" width="2.2857142857142856" height="2.2857142857142856" rx="0" fill="#ffe6a1" />
  <rect x="180.57142857142858" y="130.57142857142858" width="2.2857142857142856" height="2.2857142857142856" rx="0" fill="#ffe6a1" />
  <rect x="180.57142857142858" y="132.85714285714286" width="2.2857142857142856" height="2.2857142857142856" rx="0" fill="#ffe6a1" />
  <rect x="182.85714285714286" y="132.85714285714286" width="2.2857142857142856" height="2.2857142857142856" rx="0" fill="#ffe6a1" />
  <rect x="185.14285714285717" y="132.85714285714286" width="2.2857142857142856" height="2.2857142857142856" rx="0" fill="#ffe6a1" />
  <rect x="187.42857142857144" y="132.85714285714286" width="2.2857142857142856" height="2.2857142857142856" rx="0" fill="#ffe6a1" />
  <rect x="180.57142857142858" y="135.14285714285714" width="2.2857142857142856" height="2.2857142857142856" rx="0" fill="#ffe6a1" />
  <rect x="180.57142857142858" y="137.42857142857142" width="2.2857142857142856" height="2.2857142857142856" rx="0" fill="#ffe6a1" />
  <rect x="180.57142857142858" y="139.71428571428572" width="2.2857142857142856" height="2.2857142857142856" rx="0" fill="#ffe6a1" />
  <rect x="182.85714285714286" y="139.71428571428572" width="2.2857142857142856" height="2.2857142857142856" rx="0" fill="#ffe6a1" />
  <rect x="185.14285714285717" y="139.71428571428572" width="2.2857142857142856" height="2.2857142857142856" rx="0" fill="#ffe6a1" />
  <rect x="187.42857142857144" y="139.71428571428572" width="2.2857142857142856" height="2.2857142857142856" rx="0" fill="#ffe6a1" />
  <rect x="189.71428571428572" y="139.71428571428572" width="2.2857142857142856" height="2.2857142857142856" rx="0" fill="#ffe6a1" />
  <rect x="194.2857142857143" y="126" width="2.2857142857142856" height="2.2857142857142856" rx="0" fill="#ffe6a1" />
  <rect x="196.57142857142858" y="126" width="2.2857142857142856" height="2.2857142857142856" rx="0" fill="#ffe6a1" />
  <rect x="198.8571428571429" y="126" width="2.2857142857142856" height="2.2857142857142856" rx="0" fill="#ffe6a1" />
  <rect x="201.14285714285717" y="126" width="2.2857142857142856" height="2.2857142857142856" rx="0" fill="#ffe6a1" />
  <rect x="194.2857142857143" y="128.28571428571428" width="2.2857142857142856" height="2.2857142857142856" rx="0" fill="#ffe6a1" />
  <rect x="203.42857142857144" y="128.28571428571428" width="2.2857142857142856" height="2.2857142857142856" rx="0" fill="#ffe6a1" />
  <rect x="194.2857142857143" y="130.57142857142858" width="2.2857142857142856" height="2.2857142857142856" rx="0" fill="#ffe6a1" />
  <rect x="203.42857142857144" y="130.57142857142858" width="2.2857142857142856" height="2.2857142857142856" rx="0" fill="#ffe6a1" />
  <rect x="194.2857142857143" y="132.85714285714286" width="2.2857142857142856" height="2.2857142857142856" rx="0" fill="#ffe6a1" />
  <rect x="196.57142857142858" y="132.85714285714286" width="2.2857142857142856" height="2.2857142857142856" rx="0" fill="#ffe6a1" />
  <rect x="198.8571428571429" y="132.85714285714286" width="2.2857142857142856" height="2.2857142857142856" rx="0" fill="#ffe6a1" />
  <rect x="201.14285714285717" y="132.85714285714286" width="2.2857142857142856" height="2.2857142857142856" rx="0" fill="#ffe6a1" />
  <rect x="194.2857142857143" y="135.14285714285714" width="2.2857142857142856" height="2.2857142857142856" rx="0" fill="#ffe6a1" />
  <rect x="194.2857142857143" y="137.42857142857142" width="2.2857142857142856" height="2.2857142857142856" rx="0" fill="#ffe6a1" />
  <rect x="194.2857142857143" y="139.71428571428572" width="2.2857142857142856" height="2.2857142857142856" rx="0" fill="#ffe6a1" />
  <rect x="208.00000000000003" y="126" width="2.2857142857142856" height="2.2857142857142856" rx="0" fill="#ffe6a1" />
  <rect x="210.2857142857143" y="126" width="2.2857142857142856" height="2.2857142857142856" rx="0" fill="#ffe6a1" />
  <rect x="212.5714285714286" y="126" width="2.2857142857142856" height="2.2857142857142856" rx="0" fill="#ffe6a1" />
  <rect x="214.8571428571429" y="126" width="2.2857142857142856" height="2.2857142857142856" rx="0" fill="#ffe6a1" />
  <rect x="217.14285714285717" y="126" width="2.2857142857142856" height="2.2857142857142856" rx="0" fill="#ffe6a1" />
  <rect x="212.5714285714286" y="128.28571428571428" width="2.2857142857142856" height="2.2857142857142856" rx="0" fill="#ffe6a1" />
  <rect x="212.5714285714286" y="130.57142857142858" width="2.2857142857142856" height="2.2857142857142856" rx="0" fill="#ffe6a1" />
  <rect x="212.5714285714286" y="132.85714285714286" width="2.2857142857142856" height="2.2857142857142856" rx="0" fill="#ffe6a1" />
  <rect x="212.5714285714286" y="135.14285714285714" width="2.2857142857142856" height="2.2857142857142856" rx="0" fill="#ffe6a1" />
  <rect x="212.5714285714286" y="137.42857142857142" width="2.2857142857142856" height="2.2857142857142856" rx="0" fill="#ffe6a1" />
  <rect x="212.5714285714286" y="139.71428571428572" width="2.2857142857142856" height="2.2857142857142856" rx="0" fill="#ffe6a1" />
  <rect x="221.71428571428575" y="126" width="2.2857142857142856" height="2.2857142857142856" rx="0" fill="#ffe6a1" />
  <rect x="230.8571428571429" y="126" width="2.2857142857142856" height="2.2857142857142856" rx="0" fill="#ffe6a1" />
  <rect x="221.71428571428575" y="128.28571428571428" width="2.2857142857142856" height="2.2857142857142856" rx="0" fill="#ffe6a1" />
  <rect x="230.8571428571429" y="128.28571428571428" width="2.2857142857142856" height="2.2857142857142856" rx="0" fill="#ffe6a1" />
  <rect x="221.71428571428575" y="130.57142857142858" width="2.2857142857142856" height="2.2857142857142856" rx="0" fill="#ffe6a1" />
  <rect x="230.8571428571429" y="130.57142857142858" width="2.2857142857142856" height="2.2857142857142856" rx="0" fill="#ffe6a1" />
  <rect x="221.71428571428575" y="132.85714285714286" width="2.2857142857142856" height="2.2857142857142856" rx="0" fill="#ffe6a1" />
  <rect x="224.00000000000003" y="132.85714285714286" width="2.2857142857142856" height="2.2857142857142856" rx="0" fill="#ffe6a1" />
  <rect x="226.28571428571433" y="132.85714285714286" width="2.2857142857142856" height="2.2857142857142856" rx="0" fill="#ffe6a1" />
  <rect x="228.5714285714286" y="132.85714285714286" width="2.2857142857142856" height="2.2857142857142856" rx="0" fill="#ffe6a1" />
  <rect x="230.8571428571429" y="132.85714285714286" width="2.2857142857142856" height="2.2857142857142856" rx="0" fill="#ffe6a1" />
  <rect x="221.71428571428575" y="135.14285714285714" width="2.2857142857142856" height="2.2857142857142856" rx="0" fill="#ffe6a1" />
  <rect x="230.8571428571429" y="135.14285714285714" width="2.2857142857142856" height="2.2857142857142856" rx="0" fill="#ffe6a1" />
  <rect x="221.71428571428575" y="137.42857142857142" width="2.2857142857142856" height="2.2857142857142856" rx="0" fill="#ffe6a1" />
  <rect x="230.8571428571429" y="137.42857142857142" width="2.2857142857142856" height="2.2857142857142856" rx="0" fill="#ffe6a1" />
  <rect x="221.71428571428575" y="139.71428571428572" width="2.2857142857142856" height="2.2857142857142856" rx="0" fill="#ffe6a1" />
  <rect x="230.8571428571429" y="139.71428571428572" width="2.2857142857142856" height="2.2857142857142856" rx="0" fill="#ffe6a1" />
</svg>
