<svg xmlns="http://www.w3.org/2000/svg" width="320" height="300" viewBox="0 0 320 300" role="img">
  <title>Kiosk mascot panel decoy</title>
  <desc>Authored vector source for Cameleon sign-lane sprite. Text and colors are generated from script parameters.</desc>
  <metadata>{&quot;kind&quot;:&quot;decoy&quot;,&quot;palette&quot;:&quot;night&quot;}</metadata>
  <rect x="10" y="10" width="300" height="280" rx="12" fill="#a97331" />
  <rect x="18" y="18" width="284" height="264" rx="8" fill="#f0bc4f" />
  <rect x="30" y="30" width="260" height="36" rx="6" fill="#182544" opacity="0.88" />
  <rect x="89.28571428571429" y="39" width="2.5714285714285716" height="2.5714285714285716" rx="0" fill="#d5f7ef" />
  <rect x="91.85714285714286" y="39" width="2.5714285714285716" height="2.5714285714285716" rx="0" fill="#d5f7ef" />
  <rect x="94.42857142857144" y="39" width="2.5714285714285716" height="2.5714285714285716" rx="0" fill="#d5f7ef" />
  <rect x="97.00000000000001" y="39" width="2.5714285714285716" height="2.5714285714285716" rx="0" fill="#d5f7ef" />
  <rect x="86.71428571428572" y="41.57142857142857" width="2.5714285714285716" height="2.5714285714285716" rx="0" fill="#d5f7ef" />
  <rect x="86.71428571428572" y="44.142857142857146" width="2.5714285714285716" height="2.5714285714285716" rx="0" fill="#d5f7ef" />
  <rect x="89.28571428571429" y="46.714285714285715" width="2.5714285714285716" height="2.5714285714285716" rx="0" fill="#d5f7ef" />
  <rect x="91.85714285714286" y="46.714285714285715" width="2.5714285714285716" height="2.5714285714285716" rx="0" fill="#d5f7ef" />
  <rect x="94.42857142857144" y="46.714285714285715" width="2.5714285714285716" height="2.5714285714285716" rx="0" fill="#d5f7ef" />
  <rect x="97.00000000000001" y="49.285714285714285" width="2.5714285714285716" height="2.5714285714285716" rx="0" fill="#d5f7ef" />
  <rect x="97.00000000000001" y="51.85714285714286" width="2.5714285714285716" height="2.5714285714285716" rx="0" fill="#d5f7ef" />
  <rect x="86.71428571428572" y="54.42857142857143" width="2.5714285714285716" height="2.5714285714285716" rx="0" fill="#d5f7ef" />
  <rect x="89.28571428571429" y="54.42857142857143" width="2.5714285714285716" height="2.5714285714285716" rx="0" fill="#d5f7ef" />
  <rect x="91.85714285714286" y="54.42857142857143" width="2.5714285714285716" height="2.5714285714285716" rx="0" fill="#d5f7ef" />
  <rect x="94.42857142857144" y="54.42857142857143" width="2.5714285714285716" height="2.5714285714285716" rx="0" fill="#d5f7ef" />
  <rect x="102.14285714285715" y="39" width="2.5714285714285716" height="2.5714285714285716" rx="0" fill="#d5f7ef" />
  <rect x="112.42857142857144" y="39" width="2.5714285714285716" height="2.5714285714285716" rx="0" fill="#d5f7ef" />
  <rect x="102.14285714285715" y="41.57142857142857" width="2.5714285714285716" height="2.5714285714285716" rx="0" fill="#d5f7ef" />
  <rect x="112.42857142857144" y="41.57142857142857" width="2.5714285714285716" height="2.5714285714285716" rx="0" fill="#d5f7ef" />
  <rect x="102.14285714285715" y="44.142857142857146" width="2.5714285714285716" height="2.5714285714285716" rx="0" fill="#d5f7ef" />
  <rect x="112.42857142857144" y="44.142857142857146" width="2.5714285714285716" height="2.5714285714285716" rx="0" fill="#d5f7ef" />
  <rect x="102.14285714285715" y="46.714285714285715" width="2.5714285714285716" height="2.5714285714285716" rx="0" fill="#d5f7ef" />
  <rect x="112.42857142857144" y="46.714285714285715" width="2.5714285714285716" height="2.5714285714285716" rx="0" fill="#d5f7ef" />
  <rect x="102.14285714285715" y="49.285714285714285" width="2.5714285714285716" height="2.5714285714285716" rx="0" fill="#d5f7ef" />
  <rect x="112.42857142857144" y="49.285714285714285" width="2.5714285714285716" height="2.5714285714285716" rx="0" fill="#d5f7ef" />
  <rect x="102.14285714285715" y="51.85714285714286" width="2.5714285714285716" height="2.5714285714285716" rx="0" fill="#d5f7ef" />
  <rect x="112.42857142857144" y="51.85714285714286" width="2.5714285714285716" height="2.5714285714285716" rx="0" fill="#d5f7ef" />
  <rect x="104.71428571428572" y="54.42857142857143" width="2.5714285714285716" height="2.5714285714285716" rx="0" fill="#d5f7ef" />
  <rect x="107.28571428571429" y="54.42857142857143" width="2.5714285714285716" height="2.5714285714285716" rx="0" fill="#d5f7ef" />
  <rect x="109.85714285714286" y="54.42857142857143" width="2.5714285714285716" height="2.5714285714285716" rx="0" fill="#d5f7ef" />
  <rect x="117.57142857142858" y="39" width="2.5714285714285716" height="2.5714285714285716" rx="0" fill="#d5f7ef" />
  <rect x="127.85714285714288" y="39" width="2.5714285714285716" height="2.5714285714285716" rx="0" fill="#d5f7ef" />
  <rect x="117.57142857142858" y="41.57142857142857" width="2.5714285714285716" height="2.5714285714285716" rx="0" fill="#d5f7ef" />
  <rect x="120.14285714285715" y="41.57142857142857" width="2.5714285714285716" height="2.5714285714285716" rx="0" fill="#d5f7ef" />
  <rect x="127.85714285714288" y="41.57142857142857" width="2.5714285714285716" height="2.5714285714285716" rx="0" fill="#d5f7ef" />
  <rect x="117.57142857142858" y="44.142857142857146" width="2.5714285714285716" height="2.5714285714285716" rx="0" fill="#d5f7ef" />
  <rect x="122.71428571428572" y="44.142857142857146" width="2.5714285714285716" height="2.5714285714285716" rx="0" fill="#d5f7ef" />
  <rect x="127.85714285714288" y="44.142857142857146" width="2.5714285714285716" height="2.5714285714285716" rx="0" fill="#d5f7ef" />
  <rect x="117.57142857142858" y="46.714285714285715" width="2.5714285714285716" height="2.5714285714285716" rx="0" fill="#d5f7ef" />
  <rect x="125.2857142857143" y="46.714285714285715" width="2.5714285714285716" height="2.5714285714285716" rx="0" fill="#d5f7ef" />
  <rect x="127.85714285714288" y="46.714285714285715" width="2.5714285714285716" height="2.5714285714285716" rx="0" fill="#d5f7ef" />
  <rect x="117.57142857142858" y="49.285714285714285" width="2.5714285714285716" height="2.5714285714285716" rx="0" fill="#d5f7ef" />
  <rect x="127.85714285714288" y="49.285714285714285" width="2.5714285714285716" height="2.5714285714285716" rx="0" fill="#d5f7ef" />
  <rect x="117.57142857142858" y="51.85714285714286" width="2.5714285714285716" height="2.5714285714285716" rx="0" fill="#d5f7ef" />
  <rect x="127.85714285714288" y="51.85714285714286" width="2.5714285714285716" height="2.5714285714285716" rx="0" fill="#d5f7ef" />
  <rect x="117.57142857142858" y="54.42857142857143" width="2.5714285714285716" height="2.5714285714285716" rx="0" fill="#d5f7ef" />
  <rect x="127.85714285714288" y="54.42857142857143" width="2.5714285714285716" height="2.5714285714285716" rx="0" fill="#d5f7ef" />
  <rect x="133" y="39" width="2.5714285714285716" height="2.5714285714285716" rx="0" fill="#d5f7ef" />
  <rect x="135.57142857142858" y="39" width="2.5714285714285716" height="2.5714285714285716" rx="0" fill="#d5f7ef" />
  <rect x="138.14285714285714" y="39" width="2.5714285714285716" height="2.5714285714285716" rx="0" fill="#d5f7ef" />
  <rect x="140.71428571428572" y="39" width="2.5714285714285716" height="2.5714285714285716" rx="0" fill="#d5f7ef" />
  <rect x="133" y="41.57142857142857" width="2.5714285714285716" height="2.5714285714285716" rx="0" fill="#d5f7ef" />
  <rect x="143.28571428571428" y="41.57142857142857" width="2.5714285714285716" height="2.5714285714285716" rx="0" fill="#d5f7ef" />
  <rect x="133" y="44.142857142857146" width="2.5714285714285716" height="2.5714285714285716" rx="0" fill="#d5f7ef" />
  <rect x="143.28571428571428" y="44.142857142857146" width="2.5714285714285716" height="2.5714285714285716" rx="0" fill="#d5f7ef" />
  <rect x="133" y="46.714285714285715" width="2.5714285714285716" height="2.5714285714285716" rx="0" fill="#d5f7ef" />
  <rect x="143.28571428571428" y="46.714285714285715" width="2.5714285714285716" height="2.5714285714285716" rx="0" fill="#d5f7ef" />
  <rect x="133" y="49.285714285714285" width="2.5714285714285716" height="2.5714285714285716" rx="0" fill="#d5f7ef" />
  <rect x="143.28571428571428" y="49.285714285714285" width="2.5714285714285716" height="2.5714285714285716" rx="0" fill="#d5f7ef" />
  <rect x="133" y="51.85714285714286" width="2.5714285714285716" height="2.5714285714285716" rx="0" fill="#d5f7ef" />
  <rect x="143.28571428571428" y="51.85714285714286" width="2.5714285714285716" height="2.5714285714285716" rx="0" fill="#d5f7ef" />
  <rect x="133" y="54.42857142857143" width="2.5714285714285716" height="2.5714285714285716" rx="0" fill="#d5f7ef" />
  <rect x="135.57142857142858" y="54.42857142857143" width="2.5714285714285716" height="2.5714285714285716" rx="0" fill="#d5f7ef" />
  <rect x="138.14285714285714" y="54.42857142857143" width="2.5714285714285716" height="2.5714285714285716" rx="0" fill="#d5f7ef" />
  <rect x="140.71428571428572" y="54.42857142857143" width="2.5714285714285716" height="2.5714285714285716" rx="0" fill="#d5f7ef" />
  <rect x="151" y="39" width="2.5714285714285716" height="2.5714285714285716" rx="0" fill="#d5f7ef" />
  <rect x="153.57142857142856" y="39" width="2.5714285714285716" height="2.5714285714285716" rx="0" fill="#d5f7ef" />
  <rect x="156.14285714285714" y="39" width="2.5714285714285716" height="2.5714285714285716" rx="0" fill="#d5f7ef" />
  <rect x="148.42857142857142" y="41.57142857142857" width="2.5714285714285716" height="2.5714285714285716" rx="0" fill="#d5f7ef" />
  <rect x="158.7142857142857" y="41.57142857142857" width="2.5714285714285716" height="2.5714285714285716" rx="0" fill="#d5f7ef" />
  <rect x="148.42857142857142" y="44.142857142857146" width="2.5714285714285716" height="2.5714285714285716" rx="0" fill="#d5f7ef" />
  <rect x="158.7142857142857" y="44.142857142857146" width="2.5714285714285716" height="2.5714285714285716" rx="0" fill="#d5f7ef" />
  <rect x="148.42857142857142" y="46.714285714285715" width="2.5714285714285716" height="2.5714285714285716" rx="0" fill="#d5f7ef" />
  <rect x="151" y="46.714285714285715" width="2.5714285714285716" height="2.5714285714285716" rx="0" fill="#d5f7ef" />
  <rect x="153.57142857142856" y="46.714285714285715" width="2.5714285714285716" height="2.5714285714285716" rx="0" fill="#d5f7ef" />
  <rect x="156.14285714285714" y="46.714285714285715" width="2.5714285714285716" height="2.5714285714285716" rx="0" fill="#d5f7ef" />
  <rect x="158.7142857142857" y="46.714285714285715" width="2.5714285714285716" height="2.5714285714285716" rx="0" fill="#d5f7ef" />
  <rect x="148.42857142857142" y="49.285714285714285" width="2.5714285714285716" height="2.5714285714285716" rx="0" fill="#d5f7ef" />
  <rect x="158.7142857142857" y="49.285714285714285" width="2.5714285714285716" height="2.5714285714285716" rx="0" fill="#d5f7ef" />
  <rect x="148.42857142857142" y="51.85714285714286" width="2.5714285714285716" height="2.5714285714285716" rx="0" fill="#d5f7ef" />
  <rect x="158.7142857142857" y="51.85714285714286" width="2.5714285714285716" height="2.5714285714285716" rx="0" fill="#d5f7ef" />
  <rect x="148.42857142857142" y="54.42857142857143" width="2.5714285714285716" height="2.5714285714285716" rx="0" fill="#d5f7ef" />
  <rect x="158.7142857142857" y="54.42857142857143" width="2.5714285714285716" height="2.5714285714285716" rx="0" fill="#d5f7ef" />
  <rect x="163.85714285714283" y="39" width="2.5714285714285716" height="2.5714285714285716" rx="0" fill="#d5f7ef" />
  <rect x="166.42857142857142" y="39" width="2.5714285714285716" height="2.5714285714285716" rx="0" fill="#d5f7ef" />
  <rect x="168.99999999999997" y="39" width="2.5714285714285716" height="2.5714285714285716" rx="0" fill="#d5f7ef" />
  <rect x="171.57142857142856" y="39" width="2.5714285714285716" height="2.5714285714285716" rx="0" fill="#d5f7ef" />
  <rect x="174.1428571428571" y="39" width="2.5714285714285716" height="2.5714285714285716" rx="0" fill="#d5f7ef" />
  <rect x="163.85714285714283" y="41.57142857142857" width="2.5714285714285716" height="2.5714285714285716" rx="0" fill="#d5f7ef" />
  <rect x="163.85714285714283" y="44.142857142857146" width="2.5714285714285716" height="2.5714285714285716" rx="0" fill="#d5f7ef" />
  <rect x="163.85714285714283" y="46.714285714285715" width="2.5714285714285716" height="2.5714285714285716" rx="0" fill="#d5f7ef" />
  <rect x="166.42857142857142" y="46.714285714285715" width="2.5714285714285716" height="2.5714285714285716" rx="0" fill="#d5f7ef" />
  <rect x="168.99999999999997" y="46.714285714285715" width="2.5714285714285716" height="2.5714285714285716" rx="0" fill="#d5f7ef" />
  <rect x="171.57142857142856" y="46.714285714285715" width="2.5714285714285716" height="2.5714285714285716" rx="0" fill="#d5f7ef" />
  <rect x="163.85714285714283" y="49.285714285714285" width="2.5714285714285716" height="2.5714285714285716" rx="0" fill="#d5f7ef" />
  <rect x="163.85714285714283" y="51.85714285714286" width="2.5714285714285716" height="2.5714285714285716" rx="0" fill="#d5f7ef" />
  <rect x="163.85714285714283" y="54.42857142857143" width="2.5714285714285716" height="2.5714285714285716" rx="0" fill="#d5f7ef" />
  <rect x="166.42857142857142" y="54.42857142857143" width="2.5714285714285716" height="2.5714285714285716" rx="0" fill="#d5f7ef" />
  <rect x="168.99999999999997" y="54.42857142857143" width="2.5714285714285716" height="2.5714285714285716" rx="0" fill="#d5f7ef" />
  <rect x="171.57142857142856" y="54.42857142857143" width="2.5714285714285716" height="2.5714285714285716" rx="0" fill="#d5f7ef" />
  <rect x="174.1428571428571" y="54.42857142857143" width="2.5714285714285716" height="2.5714285714285716" rx="0" fill="#d5f7ef" />
  <rect x="189.57142857142853" y="39" width="2.5714285714285716" height="2.5714285714285716" rx="0" fill="#d5f7ef" />
  <rect x="192.1428571428571" y="39" width="2.5714285714285716" height="2.5714285714285716" rx="0" fill="#d5f7ef" />
  <rect x="194.71428571428567" y="39" width="2.5714285714285716" height="2.5714285714285716" rx="0" fill="#d5f7ef" />
  <rect x="197.28571428571425" y="39" width="2.5714285714285716" height="2.5714285714285716" rx="0" fill="#d5f7ef" />
  <rect x="189.57142857142853" y="41.57142857142857" width="2.5714285714285716" height="2.5714285714285716" rx="0" fill="#d5f7ef" />
  <rect x="199.8571428571428" y="41.57142857142857" width="2.5714285714285716" height="2.5714285714285716" rx="0" fill="#d5f7ef" />
  <rect x="189.57142857142853" y="44.142857142857146" width="2.5714285714285716" height="2.5714285714285716" rx="0" fill="#d5f7ef" />
  <rect x="199.8571428571428" y="44.142857142857146" width="2.5714285714285716" height="2.5714285714285716" rx="0" fill="#d5f7ef" />
  <rect x="189.57142857142853" y="46.714285714285715" width="2.5714285714285716" height="2.5714285714285716" rx="0" fill="#d5f7ef" />
  <rect x="192.1428571428571" y="46.714285714285715" width="2.5714285714285716" height="2.5714285714285716" rx="0" fill="#d5f7ef" />
  <rect x="194.71428571428567" y="46.714285714285715" width="2.5714285714285716" height="2.5714285714285716" rx="0" fill="#d5f7ef" />
  <rect x="197.28571428571425" y="46.714285714285715" width="2.5714285714285716" height="2.5714285714285716" rx="0" fill="#d5f7ef" />
  <rect x="189.57142857142853" y="49.285714285714285" width="2.5714285714285716" height="2.5714285714285716" rx="0" fill="#d5f7ef" />
  <rect x="199.8571428571428" y="49.285714285714285" width="2.5714285714285716" height="2.5714285714285716" rx="0" fill="#d5f7ef" />
  <rect x="189.57142857142853" y="51.85714285714286" width="2.5714285714285716" height="2.5714285714285716" rx="0" fill="#d5f7ef" />
  <rect x="199.8571428571428" y="51.85714285714286" width="2.5714285714285716" height="2.5714285714285716" rx="0" fill="#d5f7ef" />
  <rect x="189.57142857142853" y="54.42857142857143" width="2.5714285714285716" height="2.5714285714285716" rx="0" fill="#d5f7ef" />
  <rect x="192.1428571428571" y="54.42857142857143" width="2.5714285714285716" height="2.5714285714285716" rx="0" fill="#d5f7ef" />
  <rect x="194.71428571428567" y="54.42857142857143" width="2.5714285714285716" height="2.5714285714285716" rx="0" fill="#d5f7ef" />
  <rect x="197.28571428571425" y="54.42857142857143" width="2.5714285714285716" height="2.5714285714285716" rx="0" fill="#d5f7ef" />
  <rect x="207.57142857142853" y="39" width="2.5714285714285716" height="2.5714285714285716" rx="0" fill="#d5f7ef" />
  <rect x="210.14285714285708" y="39" width="2.5714285714285716" height="2.5714285714285716" rx="0" fill="#d5f7ef" />
  <rect x="212.71428571428567" y="39" width="2.5714285714285716" height="2.5714285714285716" rx="0" fill="#d5f7ef" />
  <rect x="204.99999999999994" y="41.57142857142857" width="2.5714285714285716" height="2.5714285714285716" rx="0" fill="#d5f7ef" />
  <rect x="215.28571428571422" y="41.57142857142857" width="2.5714285714285716" height="2.5714285714285716" rx="0" fill="#d5f7ef" />
  <rect x="204.99999999999994" y="44.142857142857146" width="2.5714285714285716" height="2.5714285714285716" rx="0" fill="#d5f7ef" />
  <rect x="215.28571428571422" y="44.142857142857146" width="2.5714285714285716" height="2.5714285714285716" rx="0" fill="#d5f7ef" />
  <rect x="204.99999999999994" y="46.714285714285715" width="2.5714285714285716" height="2.5714285714285716" rx="0" fill="#d5f7ef" />
  <rect x="207.57142857142853" y="46.714285714285715" width="2.5714285714285716" height="2.5714285714285716" rx="0" fill="#d5f7ef" />
  <rect x="210.14285714285708" y="46.714285714285715" width="2.5714285714285716" height="2.5714285714285716" rx="0" fill="#d5f7ef" />
  <rect x="212.71428571428567" y="46.714285714285715" width="2.5714285714285716" height="2.5714285714285716" rx="0" fill="#d5f7ef" />
  <rect x="215.28571428571422" y="46.714285714285715" width="2.5714285714285716" height="2.5714285714285716" rx="0" fill="#d5f7ef" />
  <rect x="204.99999999999994" y="49.285714285714285" width="2.5714285714285716" height="2.5714285714285716" rx="0" fill="#d5f7ef" />
  <rect x="215.28571428571422" y="49.285714285714285" width="2.5714285714285716" height="2.5714285714285716" rx="0" fill="#d5f7ef" />
  <rect x="204.99999999999994" y="51.85714285714286" width="2.5714285714285716" height="2.5714285714285716" rx="0" fill="#d5f7ef" />
  <rect x="215.28571428571422" y="51.85714285714286" width="2.5714285714285716" height="2.5714285714285716" rx="0" fill="#d5f7ef" />
  <rect x="204.99999999999994" y="54.42857142857143" width="2.5714285714285716" height="2.5714285714285716" rx="0" fill="#d5f7ef" />
  <rect x="215.28571428571422" y="54.42857142857143" width="2.5714285714285716" height="2.5714285714285716" rx="0" fill="#d5f7ef" />
  <rect x="220.42857142857136" y="39" width="2.5714285714285716" height="2.5714285714285716" rx="0" fill="#d5f7ef" />
  <rect x="222.99999999999994" y="39" width="2.5714285714285716" height="2.5714285714285716" rx="0" fill="#d5f7ef" />
  <rect x="225.5714285714285" y="39" width="2.5714285714285716" height="2.5714285714285716" rx="0" fill="#d5f7ef" />
  <rect x="228.14285714285708" y="39" width="2.5714285714285716" height="2.5714285714285716" rx="0" fill="#d5f7ef" />
  <rect x="220.42857142857136" y="41.57142857142857" width="2.5714285714285716" height="2.5714285714285716" rx="0" fill="#d5f7ef" />
  <rect x="230.71428571428564" y="41.57142857142857" width="2.5714285714285716" height="2.5714285714285716" rx="0" fill="#d5f7ef" />
  <rect x="220.42857142857136" y="44.142857142857146" width="2.5714285714285716" height="2.5714285714285716" rx="0" fill="#d5f7ef" />
  <rect x="230.71428571428564" y="44.142857142857146" width="2.5714285714285716" height="2.5714285714285716" rx="0" fill="#d5f7ef" />
  <rect x="220.42857142857136" y="46.714285714285715" width="2.5714285714285716" height="2.5714285714285716" rx="0" fill="#d5f7ef" />
  <rect x="222.99999999999994" y="46.714285714285715" width="2.5714285714285716" height="2.5714285714285716" rx="0" fill="#d5f7ef" />
  <rect x="225.5714285714285" y="46.714285714285715" width="2.5714285714285716" height="2.5714285714285716" rx="0" fill="#d5f7ef" />
  <rect x="228.14285714285708" y="46.714285714285715" width="2.5714285714285716" height="2.5714285714285716" rx="0" fill="#d5f7ef" />
  <rect x="220.42857142857136" y="49.285714285714285" width="2.5714285714285716" height="2.5714285714285716" rx="0" fill="#d5f7ef" />
  <rect x="225.5714285714285" y="49.285714285714285" width="2.5714285714285716" height="2.5714285714285716" rx="0" fill="#d5f7ef" />
  <rect x="220.42857142857136" y="51.85714285714286" width="2.5714285714285716" height="2.5714285714285716" rx="0" fill="#d5f7ef" />
  <rect x="228.14285714285708" y="51.85714285714286" width="2.5714285714285716" height="2.5714285714285716" rx="0" fill="#d5f7ef" />
  <rect x="220.42857142857136" y="54.42857142857143" width="2.5714285714285716" height="2.5714285714285716" rx="0" fill="#d5f7ef" />
  <rect x="230.71428571428564" y="54.42857142857143" width="2.5714285714285716" height="2.5714285714285716" rx="0" fill="#d5f7ef" />
  <rect x="68" y="72" width="184" height="158" rx="12" fill="#182544" opacity="0.86" />
  <circle cx="160" cy="118" r="11.5" fill="#d5f7ef" />
  <ellipse cx="160" cy="147.9" rx="17.25" ry="24.15" fill="#d5f7ef" />
  <ellipse cx="150.8" cy="130.65" rx="12.649999999999999" ry="11.5" fill="#7ad0cf" opacity="0.35" />
  <line x1="143.9" y1="143.3" x2="116.30000000000001" y2="108.8" stroke="#d5f7ef" stroke-width="10.35" stroke-linecap="round" opacity="1" />
  <line x1="176.1" y1="143.3" x2="203.7" y2="108.8" stroke="#d5f7ef" stroke-width="10.35" stroke-linecap="round" opacity="1" />
  <circle cx="114" cy="106.5" r="6.8999999999999995" fill="#d5f7ef" />
  <circle cx="206" cy="106.5" r="6.8999999999999995" fill="#d5f7ef" />
  <line x1="150.8" y1="170.9" x2="138.15" y2="196.2" stroke="#d5f7ef" stroke-width="9.2" stroke-linecap="round" opacity="1" />
  <line x1="169.2" y1="170.9" x2="181.85" y2="196.2" stroke="#d5f7ef" stroke-width="9.2" stroke-linecap="round" opacity="1" />
  <polygon points="122,188 198,188 160,252" fill="#ff665e" opacity="0.9" />
  <rect x="105" y="255" width="2" height="2" rx="0" fill="#d5f7ef" />
  <rect x="107" y="255" width="2" height="2" rx="0" fill="#d5f7ef" />
  <rect x="109" y="255" width="2" height="2" rx="0" fill="#d5f7ef" />
  <rect x="111" y="255" width="2" height="2" rx="0" fill="#d5f7ef" />
  <rect x="103" y="257" width="2" height="2" rx="0" fill="#d5f7ef" />
  <rect x="103" y="259" width="2" height="2" rx="0" fill="#d5f7ef" />
  <rect x="105" y="261" width="2" height="2" rx="0" fill="#d5f7ef" />
  <rect x="107" y="261" width="2" height="2" rx="0" fill="#d5f7ef" />
  <rect x="109" y="261" width="2" height="2" rx="0" fill="#d5f7ef" />
  <rect x="111" y="263" width="2" height="2" rx="0" fill="#d5f7ef" />
  <rect x="111" y="265" width="2" height="2" rx="0" fill="#d5f7ef" />
  <rect x="103" y="267" width="2" height="2" rx="0" fill="#d5f7ef" />
  <rect x="105" y="267" width="2" height="2" rx="0" fill="#d5f7ef" />
  <rect x="107" y="267" width="2" height="2" rx="0" fill="#d5f7ef" />
  <rect x="109" y="267" width="2" height="2" rx="0" fill="#d5f7ef" />
  <rect x="117" y="255" width="2" height="2" rx="0" fill="#d5f7ef" />
  <rect x="119" y="255" width="2" height="2" rx="0" fill="#d5f7ef" />
  <rect x="121" y="255" width="2" height="2" rx="0" fill="#d5f7ef" />
  <rect x="115" y="257" width="2" height="2" rx="0" fill="#d5f7ef" />
  <rect x="123" y="257" width="2" height="2" rx="0" fill="#d5f7ef" />
  <rect x="115" y="259" width="2" height="2" rx="0" fill="#d5f7ef" />
  <rect x="123" y="259" width="2" height="2" rx="0" fill="#d5f7ef" />
  <rect x="115" y="261" width="2" height="2" rx="0" fill="#d5f7ef" />
  <rect x="123" y="261" width="2" height="2" rx="0" fill="#d5f7ef" />
  <rect x="115" y="263" width="2" height="2" rx="0" fill="#d5f7ef" />
  <rect x="123" y="263" width="2" height="2" rx="0" fill="#d5f7ef" />
  <rect x="115" y="265" width="2" height="2" rx="0" fill="#d5f7ef" />
  <rect x="123" y="265" width="2" height="2" rx="0" fill="#d5f7ef" />
  <rect x="117" y="267" width="2" height="2" rx="0" fill="#d5f7ef" />
  <rect x="119" y="267" width="2" height="2" rx="0" fill="#d5f7ef" />
  <rect x="121" y="267" width="2" height="2" rx="0" fill="#d5f7ef" />
  <rect x="127" y="255" width="2" height="2" rx="0" fill="#d5f7ef" />
  <rect x="129" y="255" width="2" height="2" rx="0" fill="#d5f7ef" />
  <rect x="131" y="255" width="2" height="2" rx="0" fill="#d5f7ef" />
  <rect x="133" y="255" width="2" height="2" rx="0" fill="#d5f7ef" />
  <rect x="135" y="255" width="2" height="2" rx="0" fill="#d5f7ef" />
  <rect x="127" y="257" width="2" height="2" rx="0" fill="#d5f7ef" />
  <rect x="127" y="259" width="2" height="2" rx="0" fill="#d5f7ef" />
  <rect x="127" y="261" width="2" height="2" rx="0" fill="#d5f7ef" />
  <rect x="129" y="261" width="2" height="2" rx="0" fill="#d5f7ef" />
  <rect x="131" y="261" width="2" height="2" rx="0" fill="#d5f7ef" />
  <rect x="133" y="261" width="2" height="2" rx="0" fill="#d5f7ef" />
  <rect x="127" y="263" width="2" height="2" rx="0" fill="#d5f7ef" />
  <rect x="127" y="265" width="2" height="2" rx="0" fill="#d5f7ef" />
  <rect x="127" y="267" width="2" height="2" rx="0" fill="#d5f7ef" />
  <rect x="139" y="255" width="2" height="2" rx="0" fill="#d5f7ef" />
  <rect x="141" y="255" width="2" height="2" rx="0" fill="#d5f7ef" />
  <rect x="143" y="255" width="2" height="2" rx="0" fill="#d5f7ef" />
  <rect x="145" y="255" width="2" height="2" rx="0" fill="#d5f7ef" />
  <rect x="147" y="255" width="2" height="2" rx="0" fill="#d5f7ef" />
  <rect x="143" y="257" width="2" height="2" rx="0" fill="#d5f7ef" />
  <rect x="143" y="259" width="2" height="2" rx="0" fill="#d5f7ef" />
  <rect x="143" y="261" width="2" height="2" rx="0" fill="#d5f7ef" />
  <rect x="143" y="263" width="2" height="2" rx="0" fill="#d5f7ef" />
  <rect x="143" y="265" width="2" height="2" rx="0" fill="#d5f7ef" />
  <rect x="143" y="267" width="2" height="2" rx="0" fill="#d5f7ef" />
  <rect x="161" y="255" width="2" height="2" rx="0" fill="#d5f7ef" />
  <rect x="163" y="255" width="2" height="2" rx="0" fill="#d5f7ef" />
  <rect x="165" y="255" width="2" height="2" rx="0" fill="#d5f7ef" />
  <rect x="167" y="255" width="2" height="2" rx="0" fill="#d5f7ef" />
  <rect x="159" y="257" width="2" height="2" rx="0" fill="#d5f7ef" />
  <rect x="159" y="259" width="2" height="2" rx="0" fill="#d5f7ef" />
  <rect x="161" y="261" width="2" height="2" rx="0" fill="#d5f7ef" />
  <rect x="163" y="261" width="2" height="2" rx="0" fill="#d5f7ef" />
  <rect x="165" y="261" width="2" height="2" rx="0" fill="#d5f7ef" />
  <rect x="167" y="263" width="2" height="2" rx="0" fill="#d5f7ef" />
  <rect x="167" y="265" width="2" height="2" rx="0" fill="#d5f7ef" />
  <rect x="159" y="267" width="2" height="2" rx="0" fill="#d5f7ef" />
  <rect x="161" y="267" width="2" height="2" rx="0" fill="#d5f7ef" />
  <rect x="163" y="267" width="2" height="2" rx="0" fill="#d5f7ef" />
  <rect x="165" y="267" width="2" height="2" rx="0" fill="#d5f7ef" />
  <rect x="171" y="255" width="2" height="2" rx="0" fill="#d5f7ef" />
  <rect x="173" y="255" width="2" height="2" rx="0" fill="#d5f7ef" />
  <rect x="175" y="255" width="2" height="2" rx="0" fill="#d5f7ef" />
  <rect x="177" y="255" width="2" height="2" rx="0" fill="#d5f7ef" />
  <rect x="179" y="255" width="2" height="2" rx="0" fill="#d5f7ef" />
  <rect x="171" y="257" width="2" height="2" rx="0" fill="#d5f7ef" />
  <rect x="171" y="259" width="2" height="2" rx="0" fill="#d5f7ef" />
  <rect x="171" y="261" width="2" height="2" rx="0" fill="#d5f7ef" />
  <rect x="173" y="261" width="2" height="2" rx="0" fill="#d5f7ef" />
  <rect x="175" y="261" width="2" height="2" rx="0" fill="#d5f7ef" />
  <rect x="177" y="261" width="2" height="2" rx="0" fill="#d5f7ef" />
  <rect x="171" y="263" width="2" height="2" rx="0" fill="#d5f7ef" />
  <rect x="171" y="265" width="2" height="2" rx="0" fill="#d5f7ef" />
  <rect x="171" y="267" width="2" height="2" rx="0" fill="#d5f7ef" />
  <rect x="173" y="267" width="2" height="2" rx="0" fill="#d5f7ef" />
  <rect x="175" y="267" width="2" height="2" rx="0" fill="#d5f7ef" />
  <rect x="177" y="267" width="2" height="2" rx="0" fill="#d5f7ef" />
  <rect x="179" y="267" width="2" height="2" rx="0" fill="#d5f7ef" />
  <rect x="183" y="255" width="2" height="2" rx="0" fill="#d5f7ef" />
  <rect x="185" y="255" width="2" height="2" rx="0" fill="#d5f7ef" />
  <rect x="187" y="255" width="2" height="2" rx="0" fill="#d5f7ef" />
  <rect x="189" y="255" width="2" height="2" rx="0" fill="#d5f7ef" />
  <rect x="183" y="257" width="2" height="2" rx="0" fill="#d5f7ef" />
  <rect x="191" y="257" width="2" height="2" rx="0" fill="#d5f7ef" />
  <rect x="183" y="259" width="2" height="2" rx="0" fill="#d5f7ef" />
  <rect x="191" y="259" width="2" height="2" rx="0" fill="#d5f7ef" />
  <rect x="183" y="261" width="2" height="2" rx="0" fill="#d5f7ef" />
  <rect x="185" y="261" width="2" height="2" rx="0" fill="#d5f7ef" />
  <rect x="187" y="261" width="2" height="2" rx="0" fill="#d5f7ef" />
  <rect x="189" y="261" width="2" height="2" rx="0" fill="#d5f7ef" />
  <rect x="183" y="263" width="2" height="2" rx="0" fill="#d5f7ef" />
  <rect x="187" y="263" width="2" height="2" rx="0" fill="#d5f7ef" />
  <rect x="183" y="265" width="2" height="2" rx="0" fill="#d5f7ef" />
  <rect x="189" y="265" width="2" height="2" rx="0" fill="#d5f7ef" />
  <rect x="183" y="267" width="2" height="2" rx="0" fill="#d5f7ef" />
  <rect x="191" y="267" width="2" height="2" rx="0" fill="#d5f7ef" />
  <rect x="195" y="255" width="2" height="2" rx="0" fill="#d5f7ef" />
  <rect x="203" y="255" width="2" height="2" rx="0" fill="#d5f7ef" />
  <rect x="195" y="257" width="2" height="2" rx="0" fill="#d5f7ef" />
  <rect x="203" y="257" width="2" height="2" rx="0" fill="#d5f7ef" />
  <rect x="195" y="259" width="2" height="2" rx="0" fill="#d5f7ef" />
  <rect x="203" y="259" width="2" height="2" rx="0" fill="#d5f7ef" />
  <rect x="195" y="261" width="2" height="2" rx="0" fill="#d5f7ef" />
  <rect x="203" y="261" width="2" height="2" rx="0" fill="#d5f7ef" />
  <rect x="195" y="263" width="2" height="2" rx="0" fill="#d5f7ef" />
  <rect x="203" y="263" width="2" height="2" rx="0" fill="#d5f7ef" />
  <rect x="197" y="265" width="2" height="2" rx="0" fill="#d5f7ef" />
  <rect x="201" y="265" width="2" height="2" rx="0" fill="#d5f7ef" />
  <rect x="199" y="267" width="2" height="2" rx="0" fill="#d5f7ef" />
  <rect x="207" y="255" width="2" height="2" rx="0" fill="#d5f7ef" />
  <rect x="209" y="255" width="2" height="2" rx="0" fill="#d5f7ef" />
  <rect x="211" y="255" width="2" height="2" rx="0" fill="#d5f7ef" />
  <rect x="213" y="255" width="2" height="2" rx="0" fill="#d5f7ef" />
  <rect x="215" y="255" width="2" height="2" rx="0" fill="#d5f7ef" />
  <rect x="207" y="257" width="2" height="2" rx="0" fill="#d5f7ef" />
  <rect x="207" y="259" width="2" height="2" rx="0" fill="#d5f7ef" />
  <rect x="207" y="261" width="2" height="2" rx="0" fill="#d5f7ef" />
  <rect x="209" y="261" width="2" height="2" rx="0" fill="#d5f7ef" />
  <rect x="211" y="261" width="2" height="2" rx="0" fill="#d5f7ef" />
  <rect x="213" y="261" width="2" height="2" rx="0" fill="#d5f7ef" />
  <rect x="207" y="263" width="2" height="2" rx="0" fill="#d5f7ef" />
  <rect x="207" y="265" width="2" height="2" rx="0" fill="#d5f7ef" />
  <rect x="207" y="267" width="2" height="2" rx="0" fill="#d5f7ef" />
  <rect x="209" y="267" width="2" height="2" rx="0" fill="#d5f7ef" />
  <rect x="211" y="267" width="2" height="2" rx="0" fill="#d5f7ef" />
  <rect x="213" y="267" width="2" height="2" rx="0" fill="#d5f7ef" />
  <rect x="215" y="267" width="2" height="2" rx="0" fill="#d5f7ef" />
</svg>
