<svg xmlns="http://www.w3.org/2000/svg" width="420" height="300" viewBox="0 0 420 300" role="img">
  <title>Rules board pictogram decoy</title>
  <desc>Authored vector source for Cameleon sign-lane sprite. Text and colors are generated from script parameters.</desc>
  <metadata>{&quot;kind&quot;:&quot;decoy&quot;,&quot;palette&quot;:&quot;night&quot;}</metadata>
  <rect x="10" y="10" width="400" height="280" rx="12" fill="#a97331" />
  <rect x="18" y="18" width="384" height="264" rx="8" fill="#f0bc4f" />
  <rect x="30" y="30" width="360" height="36" rx="6" fill="#182544" opacity="0.88" />
  <rect x="136.71428571428572" y="39" width="2.5714285714285716" height="2.5714285714285716" rx="0" fill="#d5f7ef" />
  <rect x="139.2857142857143" y="39" width="2.5714285714285716" height="2.5714285714285716" rx="0" fill="#d5f7ef" />
  <rect x="141.85714285714286" y="39" width="2.5714285714285716" height="2.5714285714285716" rx="0" fill="#d5f7ef" />
  <rect x="144.42857142857144" y="39" width="2.5714285714285716" height="2.5714285714285716" rx="0" fill="#d5f7ef" />
  <rect x="136.71428571428572" y="41.57142857142857" width="2.5714285714285716" height="2.5714285714285716" rx="0" fill="#d5f7ef" />
  <rect x="147" y="41.57142857142857" width="2.5714285714285716" height="2.5714285714285716" rx="0" fill="#d5f7ef" />
  <rect x="136.71428571428572" y="44.142857142857146" width="2.5714285714285716" height="2.5714285714285716" rx="0" fill="#d5f7ef" />
  <rect x="147" y="44.142857142857146" width="2.5714285714285716" height="2.5714285714285716" rx="0" fill="#d5f7ef" />
  <rect x="136.71428571428572" y="46.714285714285715" width="2.5714285714285716" height="2.5714285714285716" rx="0" fill="#d5f7ef" />
  <rect x="139.2857142857143" y="46.714285714285715" width="2.5714285714285716" height="2.5714285714285716" rx="0" fill="#d5f7ef" />
  <rect x="141.85714285714286" y="46.714285714285715" width="2.5714285714285716" height="2.5714285714285716" rx="0" fill="#d5f7ef" />
  <rect x="144.42857142857144" y="46.714285714285715" width="2.5714285714285716" height="2.5714285714285716" rx="0" fill="#d5f7ef" />
  <rect x="136.71428571428572" y="49.285714285714285" width="2.5714285714285716" height="2.5714285714285716" rx="0" fill="#d5f7ef" />
  <rect x="136.71428571428572" y="51.85714285714286" width="2.5714285714285716" height="2.5714285714285716" rx="0" fill="#d5f7ef" />
  <rect x="136.71428571428572" y="54.42857142857143" width="2.5714285714285716" height="2.5714285714285716" rx="0" fill="#d5f7ef" />
  <rect x="154.71428571428572" y="39" width="2.5714285714285716" height="2.5714285714285716" rx="0" fill="#d5f7ef" />
  <rect x="157.28571428571428" y="39" width="2.5714285714285716" height="2.5714285714285716" rx="0" fill="#d5f7ef" />
  <rect x="159.85714285714286" y="39" width="2.5714285714285716" height="2.5714285714285716" rx="0" fill="#d5f7ef" />
  <rect x="152.14285714285714" y="41.57142857142857" width="2.5714285714285716" height="2.5714285714285716" rx="0" fill="#d5f7ef" />
  <rect x="162.42857142857142" y="41.57142857142857" width="2.5714285714285716" height="2.5714285714285716" rx="0" fill="#d5f7ef" />
  <rect x="152.14285714285714" y="44.142857142857146" width="2.5714285714285716" height="2.5714285714285716" rx="0" fill="#d5f7ef" />
  <rect x="162.42857142857142" y="44.142857142857146" width="2.5714285714285716" height="2.5714285714285716" rx="0" fill="#d5f7ef" />
  <rect x="152.14285714285714" y="46.714285714285715" width="2.5714285714285716" height="2.5714285714285716" rx="0" fill="#d5f7ef" />
  <rect x="162.42857142857142" y="46.714285714285715" width="2.5714285714285716" height="2.5714285714285716" rx="0" fill="#d5f7ef" />
  <rect x="152.14285714285714" y="49.285714285714285" width="2.5714285714285716" height="2.5714285714285716" rx="0" fill="#d5f7ef" />
  <rect x="162.42857142857142" y="49.285714285714285" width="2.5714285714285716" height="2.5714285714285716" rx="0" fill="#d5f7ef" />
  <rect x="152.14285714285714" y="51.85714285714286" width="2.5714285714285716" height="2.5714285714285716" rx="0" fill="#d5f7ef" />
  <rect x="162.42857142857142" y="51.85714285714286" width="2.5714285714285716" height="2.5714285714285716" rx="0" fill="#d5f7ef" />
  <rect x="154.71428571428572" y="54.42857142857143" width="2.5714285714285716" height="2.5714285714285716" rx="0" fill="#d5f7ef" />
  <rect x="157.28571428571428" y="54.42857142857143" width="2.5714285714285716" height="2.5714285714285716" rx="0" fill="#d5f7ef" />
  <rect x="159.85714285714286" y="54.42857142857143" width="2.5714285714285716" height="2.5714285714285716" rx="0" fill="#d5f7ef" />
  <rect x="170.14285714285714" y="39" width="2.5714285714285716" height="2.5714285714285716" rx="0" fill="#d5f7ef" />
  <rect x="172.7142857142857" y="39" width="2.5714285714285716" height="2.5714285714285716" rx="0" fill="#d5f7ef" />
  <rect x="175.28571428571428" y="39" width="2.5714285714285716" height="2.5714285714285716" rx="0" fill="#d5f7ef" />
  <rect x="167.57142857142856" y="41.57142857142857" width="2.5714285714285716" height="2.5714285714285716" rx="0" fill="#d5f7ef" />
  <rect x="177.85714285714283" y="41.57142857142857" width="2.5714285714285716" height="2.5714285714285716" rx="0" fill="#d5f7ef" />
  <rect x="167.57142857142856" y="44.142857142857146" width="2.5714285714285716" height="2.5714285714285716" rx="0" fill="#d5f7ef" />
  <rect x="177.85714285714283" y="44.142857142857146" width="2.5714285714285716" height="2.5714285714285716" rx="0" fill="#d5f7ef" />
  <rect x="167.57142857142856" y="46.714285714285715" width="2.5714285714285716" height="2.5714285714285716" rx="0" fill="#d5f7ef" />
  <rect x="177.85714285714283" y="46.714285714285715" width="2.5714285714285716" height="2.5714285714285716" rx="0" fill="#d5f7ef" />
  <rect x="167.57142857142856" y="49.285714285714285" width="2.5714285714285716" height="2.5714285714285716" rx="0" fill="#d5f7ef" />
  <rect x="177.85714285714283" y="49.285714285714285" width="2.5714285714285716" height="2.5714285714285716" rx="0" fill="#d5f7ef" />
  <rect x="167.57142857142856" y="51.85714285714286" width="2.5714285714285716" height="2.5714285714285716" rx="0" fill="#d5f7ef" />
  <rect x="177.85714285714283" y="51.85714285714286" width="2.5714285714285716" height="2.5714285714285716" rx="0" fill="#d5f7ef" />
  <rect x="170.14285714285714" y="54.42857142857143" width="2.5714285714285716" height="2.5714285714285716" rx="0" fill="#d5f7ef" />
  <rect x="172.7142857142857" y="54.42857142857143" width="2.5714285714285716" height="2.5714285714285716" rx="0" fill="#d5f7ef" />
  <rect x="175.28571428571428" y="54.42857142857143" width="2.5714285714285716" height="2.5714285714285716" rx="0" fill="#d5f7ef" />
  <rect x="182.99999999999997" y="39" width="2.5714285714285716" height="2.5714285714285716" rx="0" fill="#d5f7ef" />
  <rect x="182.99999999999997" y="41.57142857142857" width="2.5714285714285716" height="2.5714285714285716" rx="0" fill="#d5f7ef" />
  <rect x="182.99999999999997" y="44.142857142857146" width="2.5714285714285716" height="2.5714285714285716" rx="0" fill="#d5f7ef" />
  <rect x="182.99999999999997" y="46.714285714285715" width="2.5714285714285716" height="2.5714285714285716" rx="0" fill="#d5f7ef" />
  <rect x="182.99999999999997" y="49.285714285714285" width="2.5714285714285716" height="2.5714285714285716" rx="0" fill="#d5f7ef" />
  <rect x="182.99999999999997" y="51.85714285714286" width="2.5714285714285716" height="2.5714285714285716" rx="0" fill="#d5f7ef" />
  <rect x="182.99999999999997" y="54.42857142857143" width="2.5714285714285716" height="2.5714285714285716" rx="0" fill="#d5f7ef" />
  <rect x="185.57142857142856" y="54.42857142857143" width="2.5714285714285716" height="2.5714285714285716" rx="0" fill="#d5f7ef" />
  <rect x="188.1428571428571" y="54.42857142857143" width="2.5714285714285716" height="2.5714285714285716" rx="0" fill="#d5f7ef" />
  <rect x="190.7142857142857" y="54.42857142857143" width="2.5714285714285716" height="2.5714285714285716" rx="0" fill="#d5f7ef" />
  <rect x="193.28571428571425" y="54.42857142857143" width="2.5714285714285716" height="2.5714285714285716" rx="0" fill="#d5f7ef" />
  <rect x="208.71428571428567" y="39" width="2.5714285714285716" height="2.5714285714285716" rx="0" fill="#d5f7ef" />
  <rect x="211.28571428571425" y="39" width="2.5714285714285716" height="2.5714285714285716" rx="0" fill="#d5f7ef" />
  <rect x="213.8571428571428" y="39" width="2.5714285714285716" height="2.5714285714285716" rx="0" fill="#d5f7ef" />
  <rect x="216.4285714285714" y="39" width="2.5714285714285716" height="2.5714285714285716" rx="0" fill="#d5f7ef" />
  <rect x="208.71428571428567" y="41.57142857142857" width="2.5714285714285716" height="2.5714285714285716" rx="0" fill="#d5f7ef" />
  <rect x="218.99999999999994" y="41.57142857142857" width="2.5714285714285716" height="2.5714285714285716" rx="0" fill="#d5f7ef" />
  <rect x="208.71428571428567" y="44.142857142857146" width="2.5714285714285716" height="2.5714285714285716" rx="0" fill="#d5f7ef" />
  <rect x="218.99999999999994" y="44.142857142857146" width="2.5714285714285716" height="2.5714285714285716" rx="0" fill="#d5f7ef" />
  <rect x="208.71428571428567" y="46.714285714285715" width="2.5714285714285716" height="2.5714285714285716" rx="0" fill="#d5f7ef" />
  <rect x="211.28571428571425" y="46.714285714285715" width="2.5714285714285716" height="2.5714285714285716" rx="0" fill="#d5f7ef" />
  <rect x="213.8571428571428" y="46.714285714285715" width="2.5714285714285716" height="2.5714285714285716" rx="0" fill="#d5f7ef" />
  <rect x="216.4285714285714" y="46.714285714285715" width="2.5714285714285716" height="2.5714285714285716" rx="0" fill="#d5f7ef" />
  <rect x="208.71428571428567" y="49.285714285714285" width="2.5714285714285716" height="2.5714285714285716" rx="0" fill="#d5f7ef" />
  <rect x="213.8571428571428" y="49.285714285714285" width="2.5714285714285716" height="2.5714285714285716" rx="0" fill="#d5f7ef" />
  <rect x="208.71428571428567" y="51.85714285714286" width="2.5714285714285716" height="2.5714285714285716" rx="0" fill="#d5f7ef" />
  <rect x="216.4285714285714" y="51.85714285714286" width="2.5714285714285716" height="2.5714285714285716" rx="0" fill="#d5f7ef" />
  <rect x="208.71428571428567" y="54.42857142857143" width="2.5714285714285716" height="2.5714285714285716" rx="0" fill="#d5f7ef" />
  <rect x="218.99999999999994" y="54.42857142857143" width="2.5714285714285716" height="2.5714285714285716" rx="0" fill="#d5f7ef" />
  <rect x="224.14285714285708" y="39" width="2.5714285714285716" height="2.5714285714285716" rx="0" fill="#d5f7ef" />
  <rect x="234.42857142857136" y="39" width="2.5714285714285716" height="2.5714285714285716" rx="0" fill="#d5f7ef" />
  <rect x="224.14285714285708" y="41.57142857142857" width="2.5714285714285716" height="2.5714285714285716" rx="0" fill="#d5f7ef" />
  <rect x="234.42857142857136" y="41.57142857142857" width="2.5714285714285716" height="2.5714285714285716" rx="0" fill="#d5f7ef" />
  <rect x="224.14285714285708" y="44.142857142857146" width="2.5714285714285716" height="2.5714285714285716" rx="0" fill="#d5f7ef" />
  <rect x="234.42857142857136" y="44.142857142857146" width="2.5714285714285716" height="2.5714285714285716" rx="0" fill="#d5f7ef" />
  <rect x="224.14285714285708" y="46.714285714285715" width="2.5714285714285716" height="2.5714285714285716" rx="0" fill="#d5f7ef" />
  <rect x="234.42857142857136" y="46.714285714285715" width="2.5714285714285716" height="2.5714285714285716" rx="0" fill="#d5f7ef" />
  <rect x="224.14285714285708" y="49.285714285714285" width="2.5714285714285716" height="2.5714285714285716" rx="0" fill="#d5f7ef" />
  <rect x="234.42857142857136" y="49.285714285714285" width="2.5714285714285716" height="2.5714285714285716" rx="0" fill="#d5f7ef" />
  <rect x="224.14285714285708" y="51.85714285714286" width="2.5714285714285716" height="2.5714285714285716" rx="0" fill="#d5f7ef" />
  <rect x="234.42857142857136" y="51.85714285714286" width="2.5714285714285716" height="2.5714285714285716" rx="0" fill="#d5f7ef" />
  <rect x="226.71428571428567" y="54.42857142857143" width="2.5714285714285716" height="2.5714285714285716" rx="0" fill="#d5f7ef" />
  <rect x="229.28571428571422" y="54.42857142857143" width="2.5714285714285716" height="2.5714285714285716" rx="0" fill="#d5f7ef" />
  <rect x="231.8571428571428" y="54.42857142857143" width="2.5714285714285716" height="2.5714285714285716" rx="0" fill="#d5f7ef" />
  <rect x="239.5714285714285" y="39" width="2.5714285714285716" height="2.5714285714285716" rx="0" fill="#d5f7ef" />
  <rect x="239.5714285714285" y="41.57142857142857" width="2.5714285714285716" height="2.5714285714285716" rx="0" fill="#d5f7ef" />
  <rect x="239.5714285714285" y="44.142857142857146" width="2.5714285714285716" height="2.5714285714285716" rx="0" fill="#d5f7ef" />
  <rect x="239.5714285714285" y="46.714285714285715" width="2.5714285714285716" height="2.5714285714285716" rx="0" fill="#d5f7ef" />
  <rect x="239.5714285714285" y="49.285714285714285" width="2.5714285714285716" height="2.5714285714285716" rx="0" fill="#d5f7ef" />
  <rect x="239.5714285714285" y="51.85714285714286" width="2.5714285714285716" height="2.5714285714285716" rx="0" fill="#d5f7ef" />
  <rect x="239.5714285714285" y="54.42857142857143" width="2.5714285714285716" height="2.5714285714285716" rx="0" fill="#d5f7ef" />
  <rect x="242.14285714285708" y="54.42857142857143" width="2.5714285714285716" height="2.5714285714285716" rx="0" fill="#d5f7ef" />
  <rect x="244.71428571428564" y="54.42857142857143" width="2.5714285714285716" height="2.5714285714285716" rx="0" fill="#d5f7ef" />
  <rect x="247.28571428571422" y="54.42857142857143" width="2.5714285714285716" height="2.5714285714285716" rx="0" fill="#d5f7ef" />
  <rect x="249.85714285714278" y="54.42857142857143" width="2.5714285714285716" height="2.5714285714285716" rx="0" fill="#d5f7ef" />
  <rect x="254.99999999999991" y="39" width="2.5714285714285716" height="2.5714285714285716" rx="0" fill="#d5f7ef" />
  <rect x="257.5714285714285" y="39" width="2.5714285714285716" height="2.5714285714285716" rx="0" fill="#d5f7ef" />
  <rect x="260.14285714285705" y="39" width="2.5714285714285716" height="2.5714285714285716" rx="0" fill="#d5f7ef" />
  <rect x="262.7142857142856" y="39" width="2.5714285714285716" height="2.5714285714285716" rx="0" fill="#d5f7ef" />
  <rect x="265.2857142857142" y="39" width="2.5714285714285716" height="2.5714285714285716" rx="0" fill="#d5f7ef" />
  <rect x="254.99999999999991" y="41.57142857142857" width="2.5714285714285716" height="2.5714285714285716" rx="0" fill="#d5f7ef" />
  <rect x="254.99999999999991" y="44.142857142857146" width="2.5714285714285716" height="2.5714285714285716" rx="0" fill="#d5f7ef" />
  <rect x="254.99999999999991" y="46.714285714285715" width="2.5714285714285716" height="2.5714285714285716" rx="0" fill="#d5f7ef" />
  <rect x="257.5714285714285" y="46.714285714285715" width="2.5714285714285716" height="2.5714285714285716" rx="0" fill="#d5f7ef" />
  <rect x="260.14285714285705" y="46.714285714285715" width="2.5714285714285716" height="2.5714285714285716" rx="0" fill="#d5f7ef" />
  <rect x="262.7142857142856" y="46.714285714285715" width="2.5714285714285716" height="2.5714285714285716" rx="0" fill="#d5f7ef" />
  <rect x="254.99999999999991" y="49.285714285714285" width="2.5714285714285716" height="2.5714285714285716" rx="0" fill="#d5f7ef" />
  <rect x="254.99999999999991" y="51.85714285714286" width="2.5714285714285716" height="2.5714285714285716" rx="0" fill="#d5f7ef" />
  <rect x="254.99999999999991" y="54.42857142857143" width="2.5714285714285716" height="2.5714285714285716" rx="0" fill="#d5f7ef" />
  <rect x="257.5714285714285" y="54.42857142857143" width="2.5714285714285716" height="2.5714285714285716" rx="0" fill="#d5f7ef" />
  <rect x="260.14285714285705" y="54.42857142857143" width="2.5714285714285716" height="2.5714285714285716" rx="0" fill="#d5f7ef" />
  <rect x="262.7142857142856" y="54.42857142857143" width="2.5714285714285716" height="2.5714285714285716" rx="0" fill="#d5f7ef" />
  <rect x="265.2857142857142" y="54.42857142857143" width="2.5714285714285716" height="2.5714285714285716" rx="0" fill="#d5f7ef" />
  <rect x="272.9999999999999" y="39" width="2.5714285714285716" height="2.5714285714285716" rx="0" fill="#d5f7ef" />
  <rect x="275.5714285714285" y="39" width="2.5714285714285716" height="2.5714285714285716" rx="0" fill="#d5f7ef" />
  <rect x="278.14285714285705" y="39" width="2.5714285714285716" height="2.5714285714285716" rx="0" fill="#d5f7ef" />
  <rect x="280.7142857142856" y="39" width="2.5714285714285716" height="2.5714285714285716" rx="0" fill="#d5f7ef" />
  <rect x="270.42857142857133" y="41.57142857142857" width="2.5714285714285716" height="2.5714285714285716" rx="0" fill="#d5f7ef" />
  <rect x="270.42857142857133" y="44.142857142857146" width="2.5714285714285716" height="2.5714285714285716" rx="0" fill="#d5f7ef" />
  <rect x="272.9999999999999" y="46.714285714285715" width="2.5714285714285716" height="2.5714285714285716" rx="0" fill="#d5f7ef" />
  <rect x="275.5714285714285" y="46.714285714285715" width="2.5714285714285716" height="2.5714285714285716" rx="0" fill="#d5f7ef" />
  <rect x="278.14285714285705" y="46.714285714285715" width="2.5714285714285716" height="2.5714285714285716" rx="0" fill="#d5f7ef" />
  <rect x="280.7142857142856" y="49.285714285714285" width="2.5714285714285716" height="2.5714285714285716" rx="0" fill="#d5f7ef" />
  <rect x="280.7142857142856" y="51.85714285714286" width="2.5714285714285716" height="2.5714285714285716" rx="0" fill="#d5f7ef" />
  <rect x="270.42857142857133" y="54.42857142857143" width="2.5714285714285716" height="2.5714285714285716" rx="0" fill="#d5f7ef" />
  <rect x="272.9999999999999" y="54.42857142857143" width="2.5714285714285716" height="2.5714285714285716" rx="0" fill="#d5f7ef" />
  <rect x="275.5714285714285" y="54.42857142857143" width="2.5714285714285716" height="2.5714285714285716" rx="0" fill="#d5f7ef" />
  <rect x="278.14285714285705" y="54.42857142857143" width="2.5714285714285716" height="2.5714285714285716" rx="0" fill="#d5f7ef" />
  <rect x="22" y="58" width="96" height="72" rx="8" fill="#182544" opacity="0.86" />
  <rect x="41.714285714285715" y="138" width="1.7142857142857142" height="1.7142857142857142" rx="0" fill="#d5f7ef" />
  <rect x="43.42857142857143" y="138" width="1.7142857142857142" height="1.7142857142857142" rx="0" fill="#d5f7ef" />
  <rect x="45.14285714285714" y="138" width="1.7142857142857142" height="1.7142857142857142" rx="0" fill="#d5f7ef" />
  <rect x="46.857142857142854" y="138" width="1.7142857142857142" height="1.7142857142857142" rx="0" fill="#d5f7ef" />
  <rect x="40" y="139.71428571428572" width="1.7142857142857142" height="1.7142857142857142" rx="0" fill="#d5f7ef" />
  <rect x="40" y="141.42857142857142" width="1.7142857142857142" height="1.7142857142857142" rx="0" fill="#d5f7ef" />
  <rect x="41.714285714285715" y="143.14285714285714" width="1.7142857142857142" height="1.7142857142857142" rx="0" fill="#d5f7ef" />
  <rect x="43.42857142857143" y="143.14285714285714" width="1.7142857142857142" height="1.7142857142857142" rx="0" fill="#d5f7ef" />
  <rect x="45.14285714285714" y="143.14285714285714" width="1.7142857142857142" height="1.7142857142857142" rx="0" fill="#d5f7ef" />
  <rect x="46.857142857142854" y="144.85714285714286" width="1.7142857142857142" height="1.7142857142857142" rx="0" fill="#d5f7ef" />
  <rect x="46.857142857142854" y="146.57142857142858" width="1.7142857142857142" height="1.7142857142857142" rx="0" fill="#d5f7ef" />
  <rect x="40" y="148.28571428571428" width="1.7142857142857142" height="1.7142857142857142" rx="0" fill="#d5f7ef" />
  <rect x="41.714285714285715" y="148.28571428571428" width="1.7142857142857142" height="1.7142857142857142" rx="0" fill="#d5f7ef" />
  <rect x="43.42857142857143" y="148.28571428571428" width="1.7142857142857142" height="1.7142857142857142" rx="0" fill="#d5f7ef" />
  <rect x="45.14285714285714" y="148.28571428571428" width="1.7142857142857142" height="1.7142857142857142" rx="0" fill="#d5f7ef" />
  <rect x="50.285714285714285" y="138" width="1.7142857142857142" height="1.7142857142857142" rx="0" fill="#d5f7ef" />
  <rect x="57.14285714285714" y="138" width="1.7142857142857142" height="1.7142857142857142" rx="0" fill="#d5f7ef" />
  <rect x="50.285714285714285" y="139.71428571428572" width="1.7142857142857142" height="1.7142857142857142" rx="0" fill="#d5f7ef" />
  <rect x="57.14285714285714" y="139.71428571428572" width="1.7142857142857142" height="1.7142857142857142" rx="0" fill="#d5f7ef" />
  <rect x="50.285714285714285" y="141.42857142857142" width="1.7142857142857142" height="1.7142857142857142" rx="0" fill="#d5f7ef" />
  <rect x="57.14285714285714" y="141.42857142857142" width="1.7142857142857142" height="1.7142857142857142" rx="0" fill="#d5f7ef" />
  <rect x="50.285714285714285" y="143.14285714285714" width="1.7142857142857142" height="1.7142857142857142" rx="0" fill="#d5f7ef" />
  <rect x="52" y="143.14285714285714" width="1.7142857142857142" height="1.7142857142857142" rx="0" fill="#d5f7ef" />
  <rect x="53.714285714285715" y="143.14285714285714" width="1.7142857142857142" height="1.7142857142857142" rx="0" fill="#d5f7ef" />
  <rect x="55.42857142857143" y="143.14285714285714" width="1.7142857142857142" height="1.7142857142857142" rx="0" fill="#d5f7ef" />
  <rect x="57.14285714285714" y="143.14285714285714" width="1.7142857142857142" height="1.7142857142857142" rx="0" fill="#d5f7ef" />
  <rect x="50.285714285714285" y="144.85714285714286" width="1.7142857142857142" height="1.7142857142857142" rx="0" fill="#d5f7ef" />
  <rect x="57.14285714285714" y="144.85714285714286" width="1.7142857142857142" height="1.7142857142857142" rx="0" fill="#d5f7ef" />
  <rect x="50.285714285714285" y="146.57142857142858" width="1.7142857142857142" height="1.7142857142857142" rx="0" fill="#d5f7ef" />
  <rect x="57.14285714285714" y="146.57142857142858" width="1.7142857142857142" height="1.7142857142857142" rx="0" fill="#d5f7ef" />
  <rect x="50.285714285714285" y="148.28571428571428" width="1.7142857142857142" height="1.7142857142857142" rx="0" fill="#d5f7ef" />
  <rect x="57.14285714285714" y="148.28571428571428" width="1.7142857142857142" height="1.7142857142857142" rx="0" fill="#d5f7ef" />
  <rect x="62.285714285714285" y="138" width="1.7142857142857142" height="1.7142857142857142" rx="0" fill="#d5f7ef" />
  <rect x="64" y="138" width="1.7142857142857142" height="1.7142857142857142" rx="0" fill="#d5f7ef" />
  <rect x="65.71428571428571" y="138" width="1.7142857142857142" height="1.7142857142857142" rx="0" fill="#d5f7ef" />
  <rect x="60.57142857142857" y="139.71428571428572" width="1.7142857142857142" height="1.7142857142857142" rx="0" fill="#d5f7ef" />
  <rect x="67.42857142857143" y="139.71428571428572" width="1.7142857142857142" height="1.7142857142857142" rx="0" fill="#d5f7ef" />
  <rect x="60.57142857142857" y="141.42857142857142" width="1.7142857142857142" height="1.7142857142857142" rx="0" fill="#d5f7ef" />
  <rect x="67.42857142857143" y="141.42857142857142" width="1.7142857142857142" height="1.7142857142857142" rx="0" fill="#d5f7ef" />
  <rect x="60.57142857142857" y="143.14285714285714" width="1.7142857142857142" height="1.7142857142857142" rx="0" fill="#d5f7ef" />
  <rect x="67.42857142857143" y="143.14285714285714" width="1.7142857142857142" height="1.7142857142857142" rx="0" fill="#d5f7ef" />
  <rect x="60.57142857142857" y="144.85714285714286" width="1.7142857142857142" height="1.7142857142857142" rx="0" fill="#d5f7ef" />
  <rect x="67.42857142857143" y="144.85714285714286" width="1.7142857142857142" height="1.7142857142857142" rx="0" fill="#d5f7ef" />
  <rect x="60.57142857142857" y="146.57142857142858" width="1.7142857142857142" height="1.7142857142857142" rx="0" fill="#d5f7ef" />
  <rect x="67.42857142857143" y="146.57142857142858" width="1.7142857142857142" height="1.7142857142857142" rx="0" fill="#d5f7ef" />
  <rect x="62.285714285714285" y="148.28571428571428" width="1.7142857142857142" height="1.7142857142857142" rx="0" fill="#d5f7ef" />
  <rect x="64" y="148.28571428571428" width="1.7142857142857142" height="1.7142857142857142" rx="0" fill="#d5f7ef" />
  <rect x="65.71428571428571" y="148.28571428571428" width="1.7142857142857142" height="1.7142857142857142" rx="0" fill="#d5f7ef" />
  <rect x="70.85714285714286" y="138" width="1.7142857142857142" height="1.7142857142857142" rx="0" fill="#d5f7ef" />
  <rect x="77.71428571428572" y="138" width="1.7142857142857142" height="1.7142857142857142" rx="0" fill="#d5f7ef" />
  <rect x="70.85714285714286" y="139.71428571428572" width="1.7142857142857142" height="1.7142857142857142" rx="0" fill="#d5f7ef" />
  <rect x="77.71428571428572" y="139.71428571428572" width="1.7142857142857142" height="1.7142857142857142" rx="0" fill="#d5f7ef" />
  <rect x="70.85714285714286" y="141.42857142857142" width="1.7142857142857142" height="1.7142857142857142" rx="0" fill="#d5f7ef" />
  <rect x="77.71428571428572" y="141.42857142857142" width="1.7142857142857142" height="1.7142857142857142" rx="0" fill="#d5f7ef" />
  <rect x="70.85714285714286" y="143.14285714285714" width="1.7142857142857142" height="1.7142857142857142" rx="0" fill="#d5f7ef" />
  <rect x="74.28571428571429" y="143.14285714285714" width="1.7142857142857142" height="1.7142857142857142" rx="0" fill="#d5f7ef" />
  <rect x="77.71428571428572" y="143.14285714285714" width="1.7142857142857142" height="1.7142857142857142" rx="0" fill="#d5f7ef" />
  <rect x="70.85714285714286" y="144.85714285714286" width="1.7142857142857142" height="1.7142857142857142" rx="0" fill="#d5f7ef" />
  <rect x="74.28571428571429" y="144.85714285714286" width="1.7142857142857142" height="1.7142857142857142" rx="0" fill="#d5f7ef" />
  <rect x="77.71428571428572" y="144.85714285714286" width="1.7142857142857142" height="1.7142857142857142" rx="0" fill="#d5f7ef" />
  <rect x="70.85714285714286" y="146.57142857142858" width="1.7142857142857142" height="1.7142857142857142" rx="0" fill="#d5f7ef" />
  <rect x="74.28571428571429" y="146.57142857142858" width="1.7142857142857142" height="1.7142857142857142" rx="0" fill="#d5f7ef" />
  <rect x="77.71428571428572" y="146.57142857142858" width="1.7142857142857142" height="1.7142857142857142" rx="0" fill="#d5f7ef" />
  <rect x="72.57142857142857" y="148.28571428571428" width="1.7142857142857142" height="1.7142857142857142" rx="0" fill="#d5f7ef" />
  <rect x="76" y="148.28571428571428" width="1.7142857142857142" height="1.7142857142857142" rx="0" fill="#d5f7ef" />
  <rect x="81.14285714285714" y="138" width="1.7142857142857142" height="1.7142857142857142" rx="0" fill="#d5f7ef" />
  <rect x="82.85714285714285" y="138" width="1.7142857142857142" height="1.7142857142857142" rx="0" fill="#d5f7ef" />
  <rect x="84.57142857142857" y="138" width="1.7142857142857142" height="1.7142857142857142" rx="0" fill="#d5f7ef" />
  <rect x="86.28571428571428" y="138" width="1.7142857142857142" height="1.7142857142857142" rx="0" fill="#d5f7ef" />
  <rect x="88" y="138" width="1.7142857142857142" height="1.7142857142857142" rx="0" fill="#d5f7ef" />
  <rect x="81.14285714285714" y="139.71428571428572" width="1.7142857142857142" height="1.7142857142857142" rx="0" fill="#d5f7ef" />
  <rect x="81.14285714285714" y="141.42857142857142" width="1.7142857142857142" height="1.7142857142857142" rx="0" fill="#d5f7ef" />
  <rect x="81.14285714285714" y="143.14285714285714" width="1.7142857142857142" height="1.7142857142857142" rx="0" fill="#d5f7ef" />
  <rect x="82.85714285714285" y="143.14285714285714" width="1.7142857142857142" height="1.7142857142857142" rx="0" fill="#d5f7ef" />
  <rect x="84.57142857142857" y="143.14285714285714" width="1.7142857142857142" height="1.7142857142857142" rx="0" fill="#d5f7ef" />
  <rect x="86.28571428571428" y="143.14285714285714" width="1.7142857142857142" height="1.7142857142857142" rx="0" fill="#d5f7ef" />
  <rect x="81.14285714285714" y="144.85714285714286" width="1.7142857142857142" height="1.7142857142857142" rx="0" fill="#d5f7ef" />
  <rect x="81.14285714285714" y="146.57142857142858" width="1.7142857142857142" height="1.7142857142857142" rx="0" fill="#d5f7ef" />
  <rect x="81.14285714285714" y="148.28571428571428" width="1.7142857142857142" height="1.7142857142857142" rx="0" fill="#d5f7ef" />
  <rect x="82.85714285714285" y="148.28571428571428" width="1.7142857142857142" height="1.7142857142857142" rx="0" fill="#d5f7ef" />
  <rect x="84.57142857142857" y="148.28571428571428" width="1.7142857142857142" height="1.7142857142857142" rx="0" fill="#d5f7ef" />
  <rect x="86.28571428571428" y="148.28571428571428" width="1.7142857142857142" height="1.7142857142857142" rx="0" fill="#d5f7ef" />
  <rect x="88" y="148.28571428571428" width="1.7142857142857142" height="1.7142857142857142" rx="0" fill="#d5f7ef" />
  <rect x="91.42857142857142" y="138" width="1.7142857142857142" height="1.7142857142857142" rx="0" fill="#d5f7ef" />
  <rect x="93.14285714285712" y="138" width="1.7142857142857142" height="1.7142857142857142" rx="0" fill="#d5f7ef" />
  <rect x="94.85714285714285" y="138" width="1.7142857142857142" height="1.7142857142857142" rx="0" fill="#d5f7ef" />
  <rect x="96.57142857142856" y="138" width="1.7142857142857142" height="1.7142857142857142" rx="0" fill="#d5f7ef" />
  <rect x="91.42857142857142" y="139.71428571428572" width="1.7142857142857142" height="1.7142857142857142" rx="0" fill="#d5f7ef" />
  <rect x="98.28571428571428" y="139.71428571428572" width="1.7142857142857142" height="1.7142857142857142" rx="0" fill="#d5f7ef" />
  <rect x="91.42857142857142" y="141.42857142857142" width="1.7142857142857142" height="1.7142857142857142" rx="0" fill="#d5f7ef" />
  <rect x="98.28571428571428" y="141.42857142857142" width="1.7142857142857142" height="1.7142857142857142" rx="0" fill="#d5f7ef" />
  <rect x="91.42857142857142" y="143.14285714285714" width="1.7142857142857142" height="1.7142857142857142" rx="0" fill="#d5f7ef" />
  <rect x="93.14285714285712" y="143.14285714285714" width="1.7142857142857142" height="1.7142857142857142" rx="0" fill="#d5f7ef" />
  <rect x="94.85714285714285" y="143.14285714285714" width="1.7142857142857142" height="1.7142857142857142" rx="0" fill="#d5f7ef" />
  <rect x="96.57142857142856" y="143.14285714285714" width="1.7142857142857142" height="1.7142857142857142" rx="0" fill="#d5f7ef" />
  <rect x="91.42857142857142" y="144.85714285714286" width="1.7142857142857142" height="1.7142857142857142" rx="0" fill="#d5f7ef" />
  <rect x="94.85714285714285" y="144.85714285714286" width="1.7142857142857142" height="1.7142857142857142" rx="0" fill="#d5f7ef" />
  <rect x="91.42857142857142" y="146.57142857142858" width="1.7142857142857142" height="1.7142857142857142" rx="0" fill="#d5f7ef" />
  <rect x="96.57142857142856" y="146.57142857142858" width="1.7142857142857142" height="1.7142857142857142" rx="0" fill="#d5f7ef" />
  <rect x="91.42857142857142" y="148.28571428571428" width="1.7142857142857142" height="1.7142857142857142" rx="0" fill="#d5f7ef" />
  <rect x="98.28571428571428" y="148.28571428571428" width="1.7142857142857142" height="1.7142857142857142" rx="0" fill="#d5f7ef" />
  <rect x="172" y="58" width="96" height="72" rx="8" fill="#182544" opacity="0.86" />
  <rect x="200.28571428571428" y="138" width="1.7142857142857142" height="1.7142857142857142" rx="0" fill="#d5f7ef" />
  <rect x="207.14285714285714" y="138" width="1.7142857142857142" height="1.7142857142857142" rx="0" fill="#d5f7ef" />
  <rect x="200.28571428571428" y="139.71428571428572" width="1.7142857142857142" height="1.7142857142857142" rx="0" fill="#d5f7ef" />
  <rect x="207.14285714285714" y="139.71428571428572" width="1.7142857142857142" height="1.7142857142857142" rx="0" fill="#d5f7ef" />
  <rect x="200.28571428571428" y="141.42857142857142" width="1.7142857142857142" height="1.7142857142857142" rx="0" fill="#d5f7ef" />
  <rect x="207.14285714285714" y="141.42857142857142" width="1.7142857142857142" height="1.7142857142857142" rx="0" fill="#d5f7ef" />
  <rect x="200.28571428571428" y="143.14285714285714" width="1.7142857142857142" height="1.7142857142857142" rx="0" fill="#d5f7ef" />
  <rect x="203.7142857142857" y="143.14285714285714" width="1.7142857142857142" height="1.7142857142857142" rx="0" fill="#d5f7ef" />
  <rect x="207.14285714285714" y="143.14285714285714" width="1.7142857142857142" height="1.7142857142857142" rx="0" fill="#d5f7ef" />
  <rect x="200.28571428571428" y="144.85714285714286" width="1.7142857142857142" height="1.7142857142857142" rx="0" fill="#d5f7ef" />
  <rect x="203.7142857142857" y="144.85714285714286" width="1.7142857142857142" height="1.7142857142857142" rx="0" fill="#d5f7ef" />
  <rect x="207.14285714285714" y="144.85714285714286" width="1.7142857142857142" height="1.7142857142857142" rx="0" fill="#d5f7ef" />
  <rect x="200.28571428571428" y="146.57142857142858" width="1.7142857142857142" height="1.7142857142857142" rx="0" fill="#d5f7ef" />
  <rect x="203.7142857142857" y="146.57142857142858" width="1.7142857142857142" height="1.7142857142857142" rx="0" fill="#d5f7ef" />
  <rect x="207.14285714285714" y="146.57142857142858" width="1.7142857142857142" height="1.7142857142857142" rx="0" fill="#d5f7ef" />
  <rect x="202" y="148.28571428571428" width="1.7142857142857142" height="1.7142857142857142" rx="0" fill="#d5f7ef" />
  <rect x="205.42857142857142" y="148.28571428571428" width="1.7142857142857142" height="1.7142857142857142" rx="0" fill="#d5f7ef" />
  <rect x="212.28571428571428" y="138" width="1.7142857142857142" height="1.7142857142857142" rx="0" fill="#d5f7ef" />
  <rect x="213.99999999999997" y="138" width="1.7142857142857142" height="1.7142857142857142" rx="0" fill="#d5f7ef" />
  <rect x="215.7142857142857" y="138" width="1.7142857142857142" height="1.7142857142857142" rx="0" fill="#d5f7ef" />
  <rect x="210.57142857142856" y="139.71428571428572" width="1.7142857142857142" height="1.7142857142857142" rx="0" fill="#d5f7ef" />
  <rect x="217.42857142857142" y="139.71428571428572" width="1.7142857142857142" height="1.7142857142857142" rx="0" fill="#d5f7ef" />
  <rect x="210.57142857142856" y="141.42857142857142" width="1.7142857142857142" height="1.7142857142857142" rx="0" fill="#d5f7ef" />
  <rect x="217.42857142857142" y="141.42857142857142" width="1.7142857142857142" height="1.7142857142857142" rx="0" fill="#d5f7ef" />
  <rect x="210.57142857142856" y="143.14285714285714" width="1.7142857142857142" height="1.7142857142857142" rx="0" fill="#d5f7ef" />
  <rect x="212.28571428571428" y="143.14285714285714" width="1.7142857142857142" height="1.7142857142857142" rx="0" fill="#d5f7ef" />
  <rect x="213.99999999999997" y="143.14285714285714" width="1.7142857142857142" height="1.7142857142857142" rx="0" fill="#d5f7ef" />
  <rect x="215.7142857142857" y="143.14285714285714" width="1.7142857142857142" height="1.7142857142857142" rx="0" fill="#d5f7ef" />
  <rect x="217.42857142857142" y="143.14285714285714" width="1.7142857142857142" height="1.7142857142857142" rx="0" fill="#d5f7ef" />
  <rect x="210.57142857142856" y="144.85714285714286" width="1.7142857142857142" height="1.7142857142857142" rx="0" fill="#d5f7ef" />
  <rect x="217.42857142857142" y="144.85714285714286" width="1.7142857142857142" height="1.7142857142857142" rx="0" fill="#d5f7ef" />
  <rect x="210.57142857142856" y="146.57142857142858" width="1.7142857142857142" height="1.7142857142857142" rx="0" fill="#d5f7ef" />
  <rect x="217.42857142857142" y="146.57142857142858" width="1.7142857142857142" height="1.7142857142857142" rx="0" fill="#d5f7ef" />
  <rect x="210.57142857142856" y="148.28571428571428" width="1.7142857142857142" height="1.7142857142857142" rx="0" fill="#d5f7ef" />
  <rect x="217.42857142857142" y="148.28571428571428" width="1.7142857142857142" height="1.7142857142857142" rx="0" fill="#d5f7ef" />
  <rect x="220.85714285714283" y="138" width="1.7142857142857142" height="1.7142857142857142" rx="0" fill="#d5f7ef" />
  <rect x="220.85714285714283" y="139.71428571428572" width="1.7142857142857142" height="1.7142857142857142" rx="0" fill="#d5f7ef" />
  <rect x="220.85714285714283" y="141.42857142857142" width="1.7142857142857142" height="1.7142857142857142" rx="0" fill="#d5f7ef" />
  <rect x="220.85714285714283" y="143.14285714285714" width="1.7142857142857142" height="1.7142857142857142" rx="0" fill="#d5f7ef" />
  <rect x="220.85714285714283" y="144.85714285714286" width="1.7142857142857142" height="1.7142857142857142" rx="0" fill="#d5f7ef" />
  <rect x="220.85714285714283" y="146.57142857142858" width="1.7142857142857142" height="1.7142857142857142" rx="0" fill="#d5f7ef" />
  <rect x="220.85714285714283" y="148.28571428571428" width="1.7142857142857142" height="1.7142857142857142" rx="0" fill="#d5f7ef" />
  <rect x="222.57142857142856" y="148.28571428571428" width="1.7142857142857142" height="1.7142857142857142" rx="0" fill="#d5f7ef" />
  <rect x="224.28571428571425" y="148.28571428571428" width="1.7142857142857142" height="1.7142857142857142" rx="0" fill="#d5f7ef" />
  <rect x="225.99999999999997" y="148.28571428571428" width="1.7142857142857142" height="1.7142857142857142" rx="0" fill="#d5f7ef" />
  <rect x="227.7142857142857" y="148.28571428571428" width="1.7142857142857142" height="1.7142857142857142" rx="0" fill="#d5f7ef" />
  <rect x="231.1428571428571" y="138" width="1.7142857142857142" height="1.7142857142857142" rx="0" fill="#d5f7ef" />
  <rect x="237.99999999999997" y="138" width="1.7142857142857142" height="1.7142857142857142" rx="0" fill="#d5f7ef" />
  <rect x="231.1428571428571" y="139.71428571428572" width="1.7142857142857142" height="1.7142857142857142" rx="0" fill="#d5f7ef" />
  <rect x="236.28571428571425" y="139.71428571428572" width="1.7142857142857142" height="1.7142857142857142" rx="0" fill="#d5f7ef" />
  <rect x="231.1428571428571" y="141.42857142857142" width="1.7142857142857142" height="1.7142857142857142" rx="0" fill="#d5f7ef" />
  <rect x="234.57142857142853" y="141.42857142857142" width="1.7142857142857142" height="1.7142857142857142" rx="0" fill="#d5f7ef" />
  <rect x="231.1428571428571" y="143.14285714285714" width="1.7142857142857142" height="1.7142857142857142" rx="0" fill="#d5f7ef" />
  <rect x="232.85714285714283" y="143.14285714285714" width="1.7142857142857142" height="1.7142857142857142" rx="0" fill="#d5f7ef" />
  <rect x="231.1428571428571" y="144.85714285714286" width="1.7142857142857142" height="1.7142857142857142" rx="0" fill="#d5f7ef" />
  <rect x="234.57142857142853" y="144.85714285714286" width="1.7142857142857142" height="1.7142857142857142" rx="0" fill="#d5f7ef" />
  <rect x="231.1428571428571" y="146.57142857142858" width="1.7142857142857142" height="1.7142857142857142" rx="0" fill="#d5f7ef" />
  <rect x="236.28571428571425" y="146.57142857142858" width="1.7142857142857142" height="1.7142857142857142" rx="0" fill="#d5f7ef" />
  <rect x="231.1428571428571" y="148.28571428571428" width="1.7142857142857142" height="1.7142857142857142" rx="0" fill="#d5f7ef" />
  <rect x="237.99999999999997" y="148.28571428571428" width="1.7142857142857142" height="1.7142857142857142" rx="0" fill="#d5f7ef" />
  <rect x="22" y="158" width="96" height="72" rx="8" fill="#182544" opacity="0.86" />
  <rect x="31.428571428571438" y="238" width="1.7142857142857142" height="1.7142857142857142" rx="0" fill="#d5f7ef" />
  <rect x="38.28571428571429" y="238" width="1.7142857142857142" height="1.7142857142857142" rx="0" fill="#d5f7ef" />
  <rect x="31.428571428571438" y="239.71428571428572" width="1.7142857142857142" height="1.7142857142857142" rx="0" fill="#d5f7ef" />
  <rect x="33.14285714285715" y="239.71428571428572" width="1.7142857142857142" height="1.7142857142857142" rx="0" fill="#d5f7ef" />
  <rect x="38.28571428571429" y="239.71428571428572" width="1.7142857142857142" height="1.7142857142857142" rx="0" fill="#d5f7ef" />
  <rect x="31.428571428571438" y="241.42857142857142" width="1.7142857142857142" height="1.7142857142857142" rx="0" fill="#d5f7ef" />
  <rect x="34.85714285714287" y="241.42857142857142" width="1.7142857142857142" height="1.7142857142857142" rx="0" fill="#d5f7ef" />
  <rect x="38.28571428571429" y="241.42857142857142" width="1.7142857142857142" height="1.7142857142857142" rx="0" fill="#d5f7ef" />
  <rect x="31.428571428571438" y="243.14285714285714" width="1.7142857142857142" height="1.7142857142857142" rx="0" fill="#d5f7ef" />
  <rect x="36.571428571428584" y="243.14285714285714" width="1.7142857142857142" height="1.7142857142857142" rx="0" fill="#d5f7ef" />
  <rect x="38.28571428571429" y="243.14285714285714" width="1.7142857142857142" height="1.7142857142857142" rx="0" fill="#d5f7ef" />
  <rect x="31.428571428571438" y="244.85714285714286" width="1.7142857142857142" height="1.7142857142857142" rx="0" fill="#d5f7ef" />
  <rect x="38.28571428571429" y="244.85714285714286" width="1.7142857142857142" height="1.7142857142857142" rx="0" fill="#d5f7ef" />
  <rect x="31.428571428571438" y="246.57142857142858" width="1.7142857142857142" height="1.7142857142857142" rx="0" fill="#d5f7ef" />
  <rect x="38.28571428571429" y="246.57142857142858" width="1.7142857142857142" height="1.7142857142857142" rx="0" fill="#d5f7ef" />
  <rect x="31.428571428571438" y="248.28571428571428" width="1.7142857142857142" height="1.7142857142857142" rx="0" fill="#d5f7ef" />
  <rect x="38.28571428571429" y="248.28571428571428" width="1.7142857142857142" height="1.7142857142857142" rx="0" fill="#d5f7ef" />
  <rect x="43.42857142857144" y="238" width="1.7142857142857142" height="1.7142857142857142" rx="0" fill="#d5f7ef" />
  <rect x="45.14285714285715" y="238" width="1.7142857142857142" height="1.7142857142857142" rx="0" fill="#d5f7ef" />
  <rect x="46.85714285714286" y="238" width="1.7142857142857142" height="1.7142857142857142" rx="0" fill="#d5f7ef" />
  <rect x="41.71428571428572" y="239.71428571428572" width="1.7142857142857142" height="1.7142857142857142" rx="0" fill="#d5f7ef" />
  <rect x="48.57142857142858" y="239.71428571428572" width="1.7142857142857142" height="1.7142857142857142" rx="0" fill="#d5f7ef" />
  <rect x="41.71428571428572" y="241.42857142857142" width="1.7142857142857142" height="1.7142857142857142" rx="0" fill="#d5f7ef" />
  <rect x="48.57142857142858" y="241.42857142857142" width="1.7142857142857142" height="1.7142857142857142" rx="0" fill="#d5f7ef" />
  <rect x="41.71428571428572" y="243.14285714285714" width="1.7142857142857142" height="1.7142857142857142" rx="0" fill="#d5f7ef" />
  <rect x="48.57142857142858" y="243.14285714285714" width="1.7142857142857142" height="1.7142857142857142" rx="0" fill="#d5f7ef" />
  <rect x="41.71428571428572" y="244.85714285714286" width="1.7142857142857142" height="1.7142857142857142" rx="0" fill="#d5f7ef" />
  <rect x="48.57142857142858" y="244.85714285714286" width="1.7142857142857142" height="1.7142857142857142" rx="0" fill="#d5f7ef" />
  <rect x="41.71428571428572" y="246.57142857142858" width="1.7142857142857142" height="1.7142857142857142" rx="0" fill="#d5f7ef" />
  <rect x="48.57142857142858" y="246.57142857142858" width="1.7142857142857142" height="1.7142857142857142" rx="0" fill="#d5f7ef" />
  <rect x="43.42857142857144" y="248.28571428571428" width="1.7142857142857142" height="1.7142857142857142" rx="0" fill="#d5f7ef" />
  <rect x="45.14285714285715" y="248.28571428571428" width="1.7142857142857142" height="1.7142857142857142" rx="0" fill="#d5f7ef" />
  <rect x="46.85714285714286" y="248.28571428571428" width="1.7142857142857142" height="1.7142857142857142" rx="0" fill="#d5f7ef" />
  <rect x="60.57142857142858" y="238" width="1.7142857142857142" height="1.7142857142857142" rx="0" fill="#d5f7ef" />
  <rect x="62.28571428571429" y="238" width="1.7142857142857142" height="1.7142857142857142" rx="0" fill="#d5f7ef" />
  <rect x="64" y="238" width="1.7142857142857142" height="1.7142857142857142" rx="0" fill="#d5f7ef" />
  <rect x="65.71428571428572" y="238" width="1.7142857142857142" height="1.7142857142857142" rx="0" fill="#d5f7ef" />
  <rect x="58.85714285714286" y="239.71428571428572" width="1.7142857142857142" height="1.7142857142857142" rx="0" fill="#d5f7ef" />
  <rect x="58.85714285714286" y="241.42857142857142" width="1.7142857142857142" height="1.7142857142857142" rx="0" fill="#d5f7ef" />
  <rect x="58.85714285714286" y="243.14285714285714" width="1.7142857142857142" height="1.7142857142857142" rx="0" fill="#d5f7ef" />
  <rect x="62.28571428571429" y="243.14285714285714" width="1.7142857142857142" height="1.7142857142857142" rx="0" fill="#d5f7ef" />
  <rect x="64" y="243.14285714285714" width="1.7142857142857142" height="1.7142857142857142" rx="0" fill="#d5f7ef" />
  <rect x="65.71428571428572" y="243.14285714285714" width="1.7142857142857142" height="1.7142857142857142" rx="0" fill="#d5f7ef" />
  <rect x="58.85714285714286" y="244.85714285714286" width="1.7142857142857142" height="1.7142857142857142" rx="0" fill="#d5f7ef" />
  <rect x="65.71428571428572" y="244.85714285714286" width="1.7142857142857142" height="1.7142857142857142" rx="0" fill="#d5f7ef" />
  <rect x="58.85714285714286" y="246.57142857142858" width="1.7142857142857142" height="1.7142857142857142" rx="0" fill="#d5f7ef" />
  <rect x="65.71428571428572" y="246.57142857142858" width="1.7142857142857142" height="1.7142857142857142" rx="0" fill="#d5f7ef" />
  <rect x="60.57142857142858" y="248.28571428571428" width="1.7142857142857142" height="1.7142857142857142" rx="0" fill="#d5f7ef" />
  <rect x="62.28571428571429" y="248.28571428571428" width="1.7142857142857142" height="1.7142857142857142" rx="0" fill="#d5f7ef" />
  <rect x="64" y="248.28571428571428" width="1.7142857142857142" height="1.7142857142857142" rx="0" fill="#d5f7ef" />
  <rect x="65.71428571428572" y="248.28571428571428" width="1.7142857142857142" height="1.7142857142857142" rx="0" fill="#d5f7ef" />
  <rect x="69.14285714285714" y="238" width="1.7142857142857142" height="1.7142857142857142" rx="0" fill="#d5f7ef" />
  <rect x="69.14285714285714" y="239.71428571428572" width="1.7142857142857142" height="1.7142857142857142" rx="0" fill="#d5f7ef" />
  <rect x="69.14285714285714" y="241.42857142857142" width="1.7142857142857142" height="1.7142857142857142" rx="0" fill="#d5f7ef" />
  <rect x="69.14285714285714" y="243.14285714285714" width="1.7142857142857142" height="1.7142857142857142" rx="0" fill="#d5f7ef" />
  <rect x="69.14285714285714" y="244.85714285714286" width="1.7142857142857142" height="1.7142857142857142" rx="0" fill="#d5f7ef" />
  <rect x="69.14285714285714" y="246.57142857142858" width="1.7142857142857142" height="1.7142857142857142" rx="0" fill="#d5f7ef" />
  <rect x="69.14285714285714" y="248.28571428571428" width="1.7142857142857142" height="1.7142857142857142" rx="0" fill="#d5f7ef" />
  <rect x="70.85714285714285" y="248.28571428571428" width="1.7142857142857142" height="1.7142857142857142" rx="0" fill="#d5f7ef" />
  <rect x="72.57142857142857" y="248.28571428571428" width="1.7142857142857142" height="1.7142857142857142" rx="0" fill="#d5f7ef" />
  <rect x="74.28571428571428" y="248.28571428571428" width="1.7142857142857142" height="1.7142857142857142" rx="0" fill="#d5f7ef" />
  <rect x="76" y="248.28571428571428" width="1.7142857142857142" height="1.7142857142857142" rx="0" fill="#d5f7ef" />
  <rect x="81.14285714285712" y="238" width="1.7142857142857142" height="1.7142857142857142" rx="0" fill="#d5f7ef" />
  <rect x="82.85714285714285" y="238" width="1.7142857142857142" height="1.7142857142857142" rx="0" fill="#d5f7ef" />
  <rect x="84.57142857142856" y="238" width="1.7142857142857142" height="1.7142857142857142" rx="0" fill="#d5f7ef" />
  <rect x="79.42857142857142" y="239.71428571428572" width="1.7142857142857142" height="1.7142857142857142" rx="0" fill="#d5f7ef" />
  <rect x="86.28571428571428" y="239.71428571428572" width="1.7142857142857142" height="1.7142857142857142" rx="0" fill="#d5f7ef" />
  <rect x="79.42857142857142" y="241.42857142857142" width="1.7142857142857142" height="1.7142857142857142" rx="0" fill="#d5f7ef" />
  <rect x="86.28571428571428" y="241.42857142857142" width="1.7142857142857142" height="1.7142857142857142" rx="0" fill="#d5f7ef" />
  <rect x="79.42857142857142" y="243.14285714285714" width="1.7142857142857142" height="1.7142857142857142" rx="0" fill="#d5f7ef" />
  <rect x="81.14285714285712" y="243.14285714285714" width="1.7142857142857142" height="1.7142857142857142" rx="0" fill="#d5f7ef" />
  <rect x="82.85714285714285" y="243.14285714285714" width="1.7142857142857142" height="1.7142857142857142" rx="0" fill="#d5f7ef" />
  <rect x="84.57142857142856" y="243.14285714285714" width="1.7142857142857142" height="1.7142857142857142" rx="0" fill="#d5f7ef" />
  <rect x="86.28571428571428" y="243.14285714285714" width="1.7142857142857142" height="1.7142857142857142" rx="0" fill="#d5f7ef" />
  <rect x="79.42857142857142" y="244.85714285714286" width="1.7142857142857142" height="1.7142857142857142" rx="0" fill="#d5f7ef" />
  <rect x="86.28571428571428" y="244.85714285714286" width="1.7142857142857142" height="1.7142857142857142" rx="0" fill="#d5f7ef" />
  <rect x="79.42857142857142" y="246.57142857142858" width="1.7142857142857142" height="1.7142857142857142" rx="0" fill="#d5f7ef" />
  <rect x="86.28571428571428" y="246.57142857142858" width="1.7142857142857142" height="1.7142857142857142" rx="0" fill="#d5f7ef" />
  <rect x="79.42857142857142" y="248.28571428571428" width="1.7142857142857142" height="1.7142857142857142" rx="0" fill="#d5f7ef" />
  <rect x="86.28571428571428" y="248.28571428571428" width="1.7142857142857142" height="1.7142857142857142" rx="0" fill="#d5f7ef" />
  <rect x="91.4285714285714" y="238" width="1.7142857142857142" height="1.7142857142857142" rx="0" fill="#d5f7ef" />
  <rect x="93.14285714285712" y="238" width="1.7142857142857142" height="1.7142857142857142" rx="0" fill="#d5f7ef" />
  <rect x="94.85714285714283" y="238" width="1.7142857142857142" height="1.7142857142857142" rx="0" fill="#d5f7ef" />
  <rect x="96.57142857142856" y="238" width="1.7142857142857142" height="1.7142857142857142" rx="0" fill="#d5f7ef" />
  <rect x="89.7142857142857" y="239.71428571428572" width="1.7142857142857142" height="1.7142857142857142" rx="0" fill="#d5f7ef" />
  <rect x="89.7142857142857" y="241.42857142857142" width="1.7142857142857142" height="1.7142857142857142" rx="0" fill="#d5f7ef" />
  <rect x="91.4285714285714" y="243.14285714285714" width="1.7142857142857142" height="1.7142857142857142" rx="0" fill="#d5f7ef" />
  <rect x="93.14285714285712" y="243.14285714285714" width="1.7142857142857142" height="1.7142857142857142" rx="0" fill="#d5f7ef" />
  <rect x="94.85714285714283" y="243.14285714285714" width="1.7142857142857142" height="1.7142857142857142" rx="0" fill="#d5f7ef" />
  <rect x="96.57142857142856" y="244.85714285714286" width="1.7142857142857142" height="1.7142857142857142" rx="0" fill="#d5f7ef" />
  <rect x="96.57142857142856" y="246.57142857142858" width="1.7142857142857142" height="1.7142857142857142" rx="0" fill="#d5f7ef" />
  <rect x="89.7142857142857" y="248.28571428571428" width="1.7142857142857142" height="1.7142857142857142" rx="0" fill="#d5f7ef" />
  <rect x="91.4285714285714" y="248.28571428571428" width="1.7142857142857142" height="1.7142857142857142" rx="0" fill="#d5f7ef" />
  <rect x="93.14285714285712" y="248.28571428571428" width="1.7142857142857142" height="1.7142857142857142" rx="0" fill="#d5f7ef" />
  <rect x="94.85714285714283" y="248.28571428571428" width="1.7142857142857142" height="1.7142857142857142" rx="0" fill="#d5f7ef" />
  <rect x="101.71428571428568" y="238" width="1.7142857142857142" height="1.7142857142857142" rx="0" fill="#d5f7ef" />
  <rect x="103.4285714285714" y="238" width="1.7142857142857142" height="1.7142857142857142" rx="0" fill="#d5f7ef" />
  <rect x="105.14285714285711" y="238" width="1.7142857142857142" height="1.7142857142857142" rx="0" fill="#d5f7ef" />
  <rect x="106.85714285714283" y="238" width="1.7142857142857142" height="1.7142857142857142" rx="0" fill="#d5f7ef" />
  <rect x="99.99999999999997" y="239.71428571428572" width="1.7142857142857142" height="1.7142857142857142" rx="0" fill="#d5f7ef" />
  <rect x="99.99999999999997" y="241.42857142857142" width="1.7142857142857142" height="1.7142857142857142" rx="0" fill="#d5f7ef" />
  <rect x="101.71428571428568" y="243.14285714285714" width="1.7142857142857142" height="1.7142857142857142" rx="0" fill="#d5f7ef" />
  <rect x="103.4285714285714" y="243.14285714285714" width="1.7142857142857142" height="1.7142857142857142" rx="0" fill="#d5f7ef" />
  <rect x="105.14285714285711" y="243.14285714285714" width="1.7142857142857142" height="1.7142857142857142" rx="0" fill="#d5f7ef" />
  <rect x="106.85714285714283" y="244.85714285714286" width="1.7142857142857142" height="1.7142857142857142" rx="0" fill="#d5f7ef" />
  <rect x="106.85714285714283" y="246.57142857142858" width="1.7142857142857142" height="1.7142857142857142" rx="0" fill="#d5f7ef" />
  <rect x="99.99999999999997" y="248.28571428571428" width="1.7142857142857142" height="1.7142857142857142" rx="0" fill="#d5f7ef" />
  <rect x="101.71428571428568" y="248.28571428571428" width="1.7142857142857142" height="1.7142857142857142" rx="0" fill="#d5f7ef" />
  <rect x="103.4285714285714" y="248.28571428571428" width="1.7142857142857142" height="1.7142857142857142" rx="0" fill="#d5f7ef" />
  <rect x="105.14285714285711" y="248.28571428571428" width="1.7142857142857142" height="1.7142857142857142" rx="0" fill="#d5f7ef" />
  <rect x="172" y="158" width="96" height="72" rx="8" fill="#182544" opacity="0.86" />
  <rect x="195.14285714285714" y="238" width="1.7142857142857142" height="1.7142857142857142" rx="0" fill="#d5f7ef" />
  <rect x="196.85714285714286" y="238" width="1.7142857142857142" height="1.7142857142857142" rx="0" fill="#d5f7ef" />
  <rect x="198.57142857142856" y="238" width="1.7142857142857142" height="1.7142857142857142" rx="0" fill="#d5f7ef" />
  <rect x="200.28571428571428" y="238" width="1.7142857142857142" height="1.7142857142857142" rx="0" fill="#d5f7ef" />
  <rect x="195.14285714285714" y="239.71428571428572" width="1.7142857142857142" height="1.7142857142857142" rx="0" fill="#d5f7ef" />
  <rect x="202" y="239.71428571428572" width="1.7142857142857142" height="1.7142857142857142" rx="0" fill="#d5f7ef" />
  <rect x="195.14285714285714" y="241.42857142857142" width="1.7142857142857142" height="1.7142857142857142" rx="0" fill="#d5f7ef" />
  <rect x="202" y="241.42857142857142" width="1.7142857142857142" height="1.7142857142857142" rx="0" fill="#d5f7ef" />
  <rect x="195.14285714285714" y="243.14285714285714" width="1.7142857142857142" height="1.7142857142857142" rx="0" fill="#d5f7ef" />
  <rect x="202" y="243.14285714285714" width="1.7142857142857142" height="1.7142857142857142" rx="0" fill="#d5f7ef" />
  <rect x="195.14285714285714" y="244.85714285714286" width="1.7142857142857142" height="1.7142857142857142" rx="0" fill="#d5f7ef" />
  <rect x="202" y="244.85714285714286" width="1.7142857142857142" height="1.7142857142857142" rx="0" fill="#d5f7ef" />
  <rect x="195.14285714285714" y="246.57142857142858" width="1.7142857142857142" height="1.7142857142857142" rx="0" fill="#d5f7ef" />
  <rect x="202" y="246.57142857142858" width="1.7142857142857142" height="1.7142857142857142" rx="0" fill="#d5f7ef" />
  <rect x="195.14285714285714" y="248.28571428571428" width="1.7142857142857142" height="1.7142857142857142" rx="0" fill="#d5f7ef" />
  <rect x="196.85714285714286" y="248.28571428571428" width="1.7142857142857142" height="1.7142857142857142" rx="0" fill="#d5f7ef" />
  <rect x="198.57142857142856" y="248.28571428571428" width="1.7142857142857142" height="1.7142857142857142" rx="0" fill="#d5f7ef" />
  <rect x="200.28571428571428" y="248.28571428571428" width="1.7142857142857142" height="1.7142857142857142" rx="0" fill="#d5f7ef" />
  <rect x="205.42857142857142" y="238" width="1.7142857142857142" height="1.7142857142857142" rx="0" fill="#d5f7ef" />
  <rect x="207.14285714285714" y="238" width="1.7142857142857142" height="1.7142857142857142" rx="0" fill="#d5f7ef" />
  <rect x="208.85714285714283" y="238" width="1.7142857142857142" height="1.7142857142857142" rx="0" fill="#d5f7ef" />
  <rect x="210.57142857142856" y="238" width="1.7142857142857142" height="1.7142857142857142" rx="0" fill="#d5f7ef" />
  <rect x="212.28571428571428" y="238" width="1.7142857142857142" height="1.7142857142857142" rx="0" fill="#d5f7ef" />
  <rect x="205.42857142857142" y="239.71428571428572" width="1.7142857142857142" height="1.7142857142857142" rx="0" fill="#d5f7ef" />
  <rect x="205.42857142857142" y="241.42857142857142" width="1.7142857142857142" height="1.7142857142857142" rx="0" fill="#d5f7ef" />
  <rect x="205.42857142857142" y="243.14285714285714" width="1.7142857142857142" height="1.7142857142857142" rx="0" fill="#d5f7ef" />
  <rect x="207.14285714285714" y="243.14285714285714" width="1.7142857142857142" height="1.7142857142857142" rx="0" fill="#d5f7ef" />
  <rect x="208.85714285714283" y="243.14285714285714" width="1.7142857142857142" height="1.7142857142857142" rx="0" fill="#d5f7ef" />
  <rect x="210.57142857142856" y="243.14285714285714" width="1.7142857142857142" height="1.7142857142857142" rx="0" fill="#d5f7ef" />
  <rect x="205.42857142857142" y="244.85714285714286" width="1.7142857142857142" height="1.7142857142857142" rx="0" fill="#d5f7ef" />
  <rect x="205.42857142857142" y="246.57142857142858" width="1.7142857142857142" height="1.7142857142857142" rx="0" fill="#d5f7ef" />
  <rect x="205.42857142857142" y="248.28571428571428" width="1.7142857142857142" height="1.7142857142857142" rx="0" fill="#d5f7ef" />
  <rect x="207.14285714285714" y="248.28571428571428" width="1.7142857142857142" height="1.7142857142857142" rx="0" fill="#d5f7ef" />
  <rect x="208.85714285714283" y="248.28571428571428" width="1.7142857142857142" height="1.7142857142857142" rx="0" fill="#d5f7ef" />
  <rect x="210.57142857142856" y="248.28571428571428" width="1.7142857142857142" height="1.7142857142857142" rx="0" fill="#d5f7ef" />
  <rect x="212.28571428571428" y="248.28571428571428" width="1.7142857142857142" height="1.7142857142857142" rx="0" fill="#d5f7ef" />
  <rect x="215.7142857142857" y="238" width="1.7142857142857142" height="1.7142857142857142" rx="0" fill="#d5f7ef" />
  <rect x="217.42857142857142" y="238" width="1.7142857142857142" height="1.7142857142857142" rx="0" fill="#d5f7ef" />
  <rect x="219.1428571428571" y="238" width="1.7142857142857142" height="1.7142857142857142" rx="0" fill="#d5f7ef" />
  <rect x="220.85714285714283" y="238" width="1.7142857142857142" height="1.7142857142857142" rx="0" fill="#d5f7ef" />
  <rect x="215.7142857142857" y="239.71428571428572" width="1.7142857142857142" height="1.7142857142857142" rx="0" fill="#d5f7ef" />
  <rect x="222.57142857142856" y="239.71428571428572" width="1.7142857142857142" height="1.7142857142857142" rx="0" fill="#d5f7ef" />
  <rect x="215.7142857142857" y="241.42857142857142" width="1.7142857142857142" height="1.7142857142857142" rx="0" fill="#d5f7ef" />
  <rect x="222.57142857142856" y="241.42857142857142" width="1.7142857142857142" height="1.7142857142857142" rx="0" fill="#d5f7ef" />
  <rect x="215.7142857142857" y="243.14285714285714" width="1.7142857142857142" height="1.7142857142857142" rx="0" fill="#d5f7ef" />
  <rect x="217.42857142857142" y="243.14285714285714" width="1.7142857142857142" height="1.7142857142857142" rx="0" fill="#d5f7ef" />
  <rect x="219.1428571428571" y="243.14285714285714" width="1.7142857142857142" height="1.7142857142857142" rx="0" fill="#d5f7ef" />
  <rect x="220.85714285714283" y="243.14285714285714" width="1.7142857142857142" height="1.7142857142857142" rx="0" fill="#d5f7ef" />
  <rect x="215.7142857142857" y="244.85714285714286" width="1.7142857142857142" height="1.7142857142857142" rx="0" fill="#d5f7ef" />
  <rect x="215.7142857142857" y="246.57142857142858" width="1.7142857142857142" height="1.7142857142857142" rx="0" fill="#d5f7ef" />
  <rect x="215.7142857142857" y="248.28571428571428" width="1.7142857142857142" height="1.7142857142857142" rx="0" fill="#d5f7ef" />
  <rect x="225.99999999999997" y="238" width="1.7142857142857142" height="1.7142857142857142" rx="0" fill="#d5f7ef" />
  <rect x="227.7142857142857" y="238" width="1.7142857142857142" height="1.7142857142857142" rx="0" fill="#d5f7ef" />
  <rect x="229.4285714285714" y="238" width="1.7142857142857142" height="1.7142857142857142" rx="0" fill="#d5f7ef" />
  <rect x="231.1428571428571" y="238" width="1.7142857142857142" height="1.7142857142857142" rx="0" fill="#d5f7ef" />
  <rect x="232.85714285714283" y="238" width="1.7142857142857142" height="1.7142857142857142" rx="0" fill="#d5f7ef" />
  <rect x="229.4285714285714" y="239.71428571428572" width="1.7142857142857142" height="1.7142857142857142" rx="0" fill="#d5f7ef" />
  <rect x="229.4285714285714" y="241.42857142857142" width="1.7142857142857142" height="1.7142857142857142" rx="0" fill="#d5f7ef" />
  <rect x="229.4285714285714" y="243.14285714285714" width="1.7142857142857142" height="1.7142857142857142" rx="0" fill="#d5f7ef" />
  <rect x="229.4285714285714" y="244.85714285714286" width="1.7142857142857142" height="1.7142857142857142" rx="0" fill="#d5f7ef" />
  <rect x="229.4285714285714" y="246.57142857142858" width="1.7142857142857142" height="1.7142857142857142" rx="0" fill="#d5f7ef" />
  <rect x="229.4285714285714" y="248.28571428571428" width="1.7142857142857142" height="1.7142857142857142" rx="0" fill="#d5f7ef" />
  <rect x="236.28571428571425" y="238" width="1.7142857142857142" height="1.7142857142857142" rx="0" fill="#d5f7ef" />
  <rect x="243.1428571428571" y="238" width="1.7142857142857142" height="1.7142857142857142" rx="0" fill="#d5f7ef" />
  <rect x="236.28571428571425" y="239.71428571428572" width="1.7142857142857142" height="1.7142857142857142" rx="0" fill="#d5f7ef" />
  <rect x="243.1428571428571" y="239.71428571428572" width="1.7142857142857142" height="1.7142857142857142" rx="0" fill="#d5f7ef" />
  <rect x="236.28571428571425" y="241.42857142857142" width="1.7142857142857142" height="1.7142857142857142" rx="0" fill="#d5f7ef" />
  <rect x="243.1428571428571" y="241.42857142857142" width="1.7142857142857142" height="1.7142857142857142" rx="0" fill="#d5f7ef" />
  <rect x="236.28571428571425" y="243.14285714285714" width="1.7142857142857142" height="1.7142857142857142" rx="0" fill="#d5f7ef" />
  <rect x="237.99999999999997" y="243.14285714285714" width="1.7142857142857142" height="1.7142857142857142" rx="0" fill="#d5f7ef" />
  <rect x="239.71428571428567" y="243.14285714285714" width="1.7142857142857142" height="1.7142857142857142" rx="0" fill="#d5f7ef" />
  <rect x="241.4285714285714" y="243.14285714285714" width="1.7142857142857142" height="1.7142857142857142" rx="0" fill="#d5f7ef" />
  <rect x="243.1428571428571" y="243.14285714285714" width="1.7142857142857142" height="1.7142857142857142" rx="0" fill="#d5f7ef" />
  <rect x="236.28571428571425" y="244.85714285714286" width="1.7142857142857142" height="1.7142857142857142" rx="0" fill="#d5f7ef" />
  <rect x="243.1428571428571" y="244.85714285714286" width="1.7142857142857142" height="1.7142857142857142" rx="0" fill="#d5f7ef" />
  <rect x="236.28571428571425" y="246.57142857142858" width="1.7142857142857142" height="1.7142857142857142" rx="0" fill="#d5f7ef" />
  <rect x="243.1428571428571" y="246.57142857142858" width="1.7142857142857142" height="1.7142857142857142" rx="0" fill="#d5f7ef" />
  <rect x="236.28571428571425" y="248.28571428571428" width="1.7142857142857142" height="1.7142857142857142" rx="0" fill="#d5f7ef" />
  <rect x="243.1428571428571" y="248.28571428571428" width="1.7142857142857142" height="1.7142857142857142" rx="0" fill="#d5f7ef" />
  <circle cx="70" cy="68" r="6.4799999999999995" fill="#d5f7ef" />
  <line x1="70" y1="75.92" x2="70" y2="102.56" stroke="#d5f7ef" stroke-width="11.52" stroke-linecap="round" opacity="1" />
  <line x1="67.12" y1="84.56" x2="52.72" y2="98.24" stroke="#d5f7ef" stroke-width="5.76" stroke-linecap="round" opacity="1" />
  <line x1="72.88" y1="84.56" x2="87.28" y2="98.24" stroke="#d5f7ef" stroke-width="5.76" stroke-linecap="round" opacity="1" />
  <line x1="67.12" y1="104" x2="58.480000000000004" y2="124.16" stroke="#d5f7ef" stroke-width="6.4799999999999995" stroke-linecap="round" opacity="1" />
  <line x1="72.88" y1="104" x2="81.52" y2="124.16" stroke="#d5f7ef" stroke-width="6.4799999999999995" stroke-linecap="round" opacity="1" />
  <line x1="59" y1="100" x2="82" y2="85" stroke="#49e3e0" stroke-width="6" stroke-linecap="round" opacity="1" />
  <circle cx="216" cy="64" r="5.44" fill="#d5f7ef" />
  <line x1="216" y1="70.8" x2="224.16" y2="91.2" stroke="#d5f7ef" stroke-width="9.520000000000001" stroke-linecap="round" opacity="1" />
  <line x1="219.4" y1="79.64" x2="203.76" y2="85.76" stroke="#d5f7ef" stroke-width="4.760000000000001" stroke-linecap="round" opacity="1" />
  <line x1="222.8" y1="81" x2="236.4" y2="72.16" stroke="#d5f7ef" stroke-width="4.760000000000001" stroke-linecap="round" opacity="1" />
  <line x1="224.16" y1="92.56" x2="209.88" y2="110.24000000000001" stroke="#d5f7ef" stroke-width="5.44" stroke-linecap="round" opacity="1" />
  <line x1="224.84" y1="93.24000000000001" x2="239.8" y2="107.52000000000001" stroke="#d5f7ef" stroke-width="5.44" stroke-linecap="round" opacity="1" />
  <rect x="48" y="170" width="32" height="38" rx="4" fill="#d5f7ef" />
  <line x1="36" y1="159" x2="102" y2="217" stroke="#ff665e" stroke-width="9" stroke-linecap="round" opacity="1" />
  <circle cx="70" cy="190" r="42" fill="#ff665e" opacity="0.18" />
  <rect x="194.2857142857143" y="178" width="3.4285714285714284" height="3.4285714285714284" rx="0" fill="#d5f7ef" />
  <rect x="190.85714285714286" y="181.42857142857142" width="3.4285714285714284" height="3.4285714285714284" rx="0" fill="#d5f7ef" />
  <rect x="194.2857142857143" y="181.42857142857142" width="3.4285714285714284" height="3.4285714285714284" rx="0" fill="#d5f7ef" />
  <rect x="194.2857142857143" y="184.85714285714286" width="3.4285714285714284" height="3.4285714285714284" rx="0" fill="#d5f7ef" />
  <rect x="194.2857142857143" y="188.28571428571428" width="3.4285714285714284" height="3.4285714285714284" rx="0" fill="#d5f7ef" />
  <rect x="194.2857142857143" y="191.71428571428572" width="3.4285714285714284" height="3.4285714285714284" rx="0" fill="#d5f7ef" />
  <rect x="194.2857142857143" y="195.14285714285714" width="3.4285714285714284" height="3.4285714285714284" rx="0" fill="#d5f7ef" />
  <rect x="190.85714285714286" y="198.57142857142856" width="3.4285714285714284" height="3.4285714285714284" rx="0" fill="#d5f7ef" />
  <rect x="194.2857142857143" y="198.57142857142856" width="3.4285714285714284" height="3.4285714285714284" rx="0" fill="#d5f7ef" />
  <rect x="197.71428571428572" y="198.57142857142856" width="3.4285714285714284" height="3.4285714285714284" rx="0" fill="#d5f7ef" />
  <rect x="208" y="198.57142857142856" width="3.4285714285714284" height="3.4285714285714284" rx="0" fill="#d5f7ef" />
  <rect x="218.28571428571428" y="178" width="3.4285714285714284" height="3.4285714285714284" rx="0" fill="#d5f7ef" />
  <rect x="221.71428571428572" y="178" width="3.4285714285714284" height="3.4285714285714284" rx="0" fill="#d5f7ef" />
  <rect x="225.14285714285714" y="178" width="3.4285714285714284" height="3.4285714285714284" rx="0" fill="#d5f7ef" />
  <rect x="214.85714285714286" y="181.42857142857142" width="3.4285714285714284" height="3.4285714285714284" rx="0" fill="#d5f7ef" />
  <rect x="228.57142857142858" y="181.42857142857142" width="3.4285714285714284" height="3.4285714285714284" rx="0" fill="#d5f7ef" />
  <rect x="228.57142857142858" y="184.85714285714286" width="3.4285714285714284" height="3.4285714285714284" rx="0" fill="#d5f7ef" />
  <rect x="225.14285714285714" y="188.28571428571428" width="3.4285714285714284" height="3.4285714285714284" rx="0" fill="#d5f7ef" />
  <rect x="221.71428571428572" y="191.71428571428572" width="3.4285714285714284" height="3.4285714285714284" rx="0" fill="#d5f7ef" />
  <rect x="218.28571428571428" y="195.14285714285714" width="3.4285714285714284" height="3.4285714285714284" rx="0" fill="#d5f7ef" />
  <rect x="214.85714285714286" y="198.57142857142856" width="3.4285714285714284" height="3.4285714285714284" rx="0" fill="#d5f7ef" />
  <rect x="218.28571428571428" y="198.57142857142856" width="3.4285714285714284" height="3.4285714285714284" rx="0" fill="#d5f7ef" />
  <rect x="221.71428571428572" y="198.57142857142856" width="3.4285714285714284" height="3.4285714285714284" rx="0" fill="#d5f7ef" />
  <rect x="225.14285714285714" y="198.57142857142856" width="3.4285714285714284" height="3.4285714285714284" rx="0" fill="#d5f7ef" />
  <rect x="228.57142857142858" y="198.57142857142856" width="3.4285714285714284" height="3.4285714285714284" rx="0" fill="#d5f7ef" />
  <rect x="235.42857142857144" y="178" width="3.4285714285714284" height="3.4285714285714284" rx="0" fill="#d5f7ef" />
  <rect x="249.14285714285717" y="178" width="3.4285714285714284" height="3.4285714285714284" rx="0" fill="#d5f7ef" />
  <rect x="235.42857142857144" y="181.42857142857142" width="3.4285714285714284" height="3.4285714285714284" rx="0" fill="#d5f7ef" />
  <rect x="238.85714285714286" y="181.42857142857142" width="3.4285714285714284" height="3.4285714285714284" rx="0" fill="#d5f7ef" />
  <rect x="245.71428571428572" y="181.42857142857142" width="3.4285714285714284" height="3.4285714285714284" rx="0" fill="#d5f7ef" />
  <rect x="249.14285714285717" y="181.42857142857142" width="3.4285714285714284" height="3.4285714285714284" rx="0" fill="#d5f7ef" />
  <rect x="235.42857142857144" y="184.85714285714286" width="3.4285714285714284" height="3.4285714285714284" rx="0" fill="#d5f7ef" />
  <rect x="242.2857142857143" y="184.85714285714286" width="3.4285714285714284" height="3.4285714285714284" rx="0" fill="#d5f7ef" />
  <rect x="249.14285714285717" y="184.85714285714286" width="3.4285714285714284" height="3.4285714285714284" rx="0" fill="#d5f7ef" />
  <rect x="235.42857142857144" y="188.28571428571428" width="3.4285714285714284" height="3.4285714285714284" rx="0" fill="#d5f7ef" />
  <rect x="242.2857142857143" y="188.28571428571428" width="3.4285714285714284" height="3.4285714285714284" rx="0" fill="#d5f7ef" />
  <rect x="249.14285714285717" y="188.28571428571428" width="3.4285714285714284" height="3.4285714285714284" rx="0" fill="#d5f7ef" />
  <rect x="235.42857142857144" y="191.71428571428572" width="3.4285714285714284" height="3.4285714285714284" rx="0" fill="#d5f7ef" />
  <rect x="249.14285714285717" y="191.71428571428572" width="3.4285714285714284" height="3.4285714285714284" rx="0" fill="#d5f7ef" />
  <rect x="235.42857142857144" y="195.14285714285714" width="3.4285714285714284" height="3.4285714285714284" rx="0" fill="#d5f7ef" />
  <rect x="249.14285714285717" y="195.14285714285714" width="3.4285714285714284" height="3.4285714285714284" rx="0" fill="#d5f7ef" />
  <rect x="235.42857142857144" y="198.57142857142856" width="3.4285714285714284" height="3.4285714285714284" rx="0" fill="#d5f7ef" />
  <rect x="249.14285714285717" y="198.57142857142856" width="3.4285714285714284" height="3.4285714285714284" rx="0" fill="#d5f7ef" />
  <rect x="178" y="205" width="84" height="9" rx="4" fill="#1d7587" />
</svg>
