<svg xmlns="http://www.w3.org/2000/svg" viewBox="0 0 48 48" role="img" aria-label="settings">
  <path fill="#3f416b" d="M26.8 6.5 28 10.6a14.8 14.8 0 0 1 3.2 1.3l3.7-2.1 4.2 4.2-2.1 3.7a14.8 14.8 0 0 1 1.3 3.2l4.1 1.2v5.8L38.3 29a14.8 14.8 0 0 1-1.3 3.2l2.1 3.7-4.2 4.2-3.7-2.1a14.8 14.8 0 0 1-3.2 1.3l-1.2 4.1h-5.8L20 39.3a14.8 14.8 0 0 1-3.2-1.3l-3.7 2.1-4.2-4.2 2.1-3.7A14.8 14.8 0 0 1 9.7 29l-4.1-1.2v-5.8l4.1-1.2a14.8 14.8 0 0 1 1.3-3.2L8.9 14l4.2-4.2 3.7 2.1a14.8 14.8 0 0 1 3.2-1.3l1.2-4.1h5.6Z"/>
  <circle cx="24" cy="24" r="6.5" fill="#f5f4ef"/>
</svg>
