<svg xmlns="http://www.w3.org/2000/svg" viewBox="0 0 180 180" role="img" aria-label="current level chip">
  <defs>
    <linearGradient id="current-fill" x1="0" x2="1" y1="0" y2="1">
      <stop offset="0" stop-color="#9bb3ff"/>
      <stop offset=".52" stop-color="#6d86f5"/>
      <stop offset="1" stop-color="#3f416b"/>
    </linearGradient>
  </defs>
  <path d="M90 7 103 32l27-16 3 31 31-3-16 27 25 13-25 13 16 27-31-3-3 31-27-16-13 25-13-25-27 16-3-31-31 3 16-27L7 84l25-13-16-27 31 3 3-31 27 16Z" fill="#f0b55b" stroke="#343858" stroke-width="8" stroke-linejoin="round"/>
  <circle cx="90" cy="90" r="58" fill="url(#current-fill)" stroke="#ffffff" stroke-width="7"/>
  <circle cx="90" cy="90" r="68" fill="none" stroke="#343858" stroke-width="5" opacity=".22"/>
  <path d="M58 95h48l-14 14 8 8 31-31-31-31-8 8 14 14H58Z" fill="#ffffff" opacity=".26"/>
</svg>
