<svg xmlns="http://www.w3.org/2000/svg" viewBox="0 0 160 160" role="img" aria-label="locked level chip">
  <defs>
    <linearGradient id="locked-fill" x1="0" x2="1" y1="0" y2="1">
      <stop offset="0" stop-color="#f8f4e8"/>
      <stop offset=".56" stop-color="#d8d4c8"/>
      <stop offset="1" stop-color="#b9bddf"/>
    </linearGradient>
  </defs>
  <path d="M80 12c20 0 37 6 50 19s19 29 19 49-6 36-19 49-30 19-50 19-37-6-50-19S11 100 11 80s6-36 19-49 30-19 50-19Z" fill="url(#locked-fill)" stroke="#676b91" stroke-width="8"/>
  <path d="M54 75h52v42H54Z" fill="#676b91" opacity=".2"/>
  <path d="M64 75V61c0-18 11-29 27-29 14 0 25 9 27 23" fill="none" stroke="#676b91" stroke-width="9" stroke-linecap="round" opacity=".28"/>
  <path d="M33 40c23-18 58-20 87-5" fill="none" stroke="#ffffff" stroke-width="9" stroke-linecap="round" opacity=".5"/>
</svg>
