<svg xmlns="http://www.w3.org/2000/svg" viewBox="0 0 160 160" role="img" aria-label="level chip">
  <defs>
    <linearGradient id="default-fill" x1="0" x2="1" y1="0" y2="1">
      <stop offset="0" stop-color="#ffffff"/>
      <stop offset=".58" stop-color="#e5e6f5"/>
      <stop offset="1" stop-color="#b9bddf"/>
    </linearGradient>
  </defs>
  <path d="M80 10c21 0 39 7 52 20 14 13 21 30 21 50s-7 37-21 50c-13 13-31 20-52 20s-39-7-52-20C14 117 7 100 7 80s7-37 21-50c13-13 31-20 52-20Z" fill="url(#default-fill)" stroke="#343858" stroke-width="8"/>
  <path d="M39 52h56L79 68l10 10 33-33-33-33-10 10 16 16H39Z" fill="#8ba7f7" opacity=".22"/>
  <path d="M29 35c23-19 62-22 91-6" fill="none" stroke="#ffffff" stroke-width="9" stroke-linecap="round" opacity=".58"/>
</svg>
