<svg xmlns="http://www.w3.org/2000/svg" viewBox="0 0 435 200" role="img" aria-label="secondary button">
  <defs>
    <linearGradient id="g" x1="0" x2="0" y1="0" y2="1">
      <stop offset="0" stop-color="#ffe17a"/>
      <stop offset="1" stop-color="#f2a93b"/>
    </linearGradient>
  </defs>
  <path d="M40 24h355c22 0 34 18 29 39l-19 78c-5 20-22 35-43 35H73c-21 0-38-15-43-35L11 63C6 42 18 24 40 24Z" fill="#1f2430"/>
  <path d="M45 14h345c24 0 40 21 34 45l-18 72c-6 24-26 41-51 41H80c-25 0-45-17-51-41L11 59C5 35 21 14 45 14Z" fill="url(#g)"/>
  <path d="M55 27h325c13 0 22 11 19 24l-3 12H39l-3-12c-3-13 6-24 19-24Z" fill="#fff4b0" opacity=".6"/>
</svg>
