<svg xmlns="http://www.w3.org/2000/svg" viewBox="0 0 720 760" role="img" aria-label="popup card">
  <path d="M84 77h552c34 0 60 29 56 63l-56 472c-4 31-30 55-61 55H145c-31 0-57-24-61-55L28 140c-4-34 22-63 56-63Z" fill="#1f2430"/>
  <path d="M94 53h532c42 0 74 37 67 79l-75 475c-6 34-35 59-70 59H172c-35 0-64-25-70-59L27 132C20 90 52 53 94 53Z" fill="#ffffff"/>
  <path d="M116 88h488c21 0 37 19 34 40l-61 392c-5 32-32 55-64 55H207c-32 0-59-23-64-55L82 128c-3-21 13-40 34-40Z" fill="#f6f7fb"/>
  <path d="M130 108h460c13 0 23 12 21 25l-12 73H121l-12-73c-2-13 8-25 21-25Z" fill="#dfe8f3" opacity=".9"/>
</svg>
