<svg xmlns="http://www.w3.org/2000/svg" width="440" height="300" viewBox="0 0 440 300" role="img">
  <title>Four-figure swim-school poster decoy</title>
  <desc>Authored vector source for Cameleon sign-lane sprite. Text and colors are generated from script parameters.</desc>
  <metadata>{&quot;kind&quot;:&quot;decoy&quot;,&quot;palette&quot;:&quot;poster&quot;}</metadata>
  <rect x="10" y="10" width="420" height="280" rx="12" fill="#e6aa36" />
  <rect x="18" y="18" width="404" height="264" rx="8" fill="#ffd85a" />
  <rect x="30" y="30" width="380" height="36" rx="6" fill="#fff3c4" opacity="0.88" />
  <rect x="100.42857142857147" y="39" width="2.5714285714285716" height="2.5714285714285716" rx="0" fill="#103943" />
  <rect x="103.00000000000004" y="39" width="2.5714285714285716" height="2.5714285714285716" rx="0" fill="#103943" />
  <rect x="105.57142857142861" y="39" width="2.5714285714285716" height="2.5714285714285716" rx="0" fill="#103943" />
  <rect x="108.1428571428572" y="39" width="2.5714285714285716" height="2.5714285714285716" rx="0" fill="#103943" />
  <rect x="97.8571428571429" y="41.57142857142857" width="2.5714285714285716" height="2.5714285714285716" rx="0" fill="#103943" />
  <rect x="97.8571428571429" y="44.142857142857146" width="2.5714285714285716" height="2.5714285714285716" rx="0" fill="#103943" />
  <rect x="100.42857142857147" y="46.714285714285715" width="2.5714285714285716" height="2.5714285714285716" rx="0" fill="#103943" />
  <rect x="103.00000000000004" y="46.714285714285715" width="2.5714285714285716" height="2.5714285714285716" rx="0" fill="#103943" />
  <rect x="105.57142857142861" y="46.714285714285715" width="2.5714285714285716" height="2.5714285714285716" rx="0" fill="#103943" />
  <rect x="108.1428571428572" y="49.285714285714285" width="2.5714285714285716" height="2.5714285714285716" rx="0" fill="#103943" />
  <rect x="108.1428571428572" y="51.85714285714286" width="2.5714285714285716" height="2.5714285714285716" rx="0" fill="#103943" />
  <rect x="97.8571428571429" y="54.42857142857143" width="2.5714285714285716" height="2.5714285714285716" rx="0" fill="#103943" />
  <rect x="100.42857142857147" y="54.42857142857143" width="2.5714285714285716" height="2.5714285714285716" rx="0" fill="#103943" />
  <rect x="103.00000000000004" y="54.42857142857143" width="2.5714285714285716" height="2.5714285714285716" rx="0" fill="#103943" />
  <rect x="105.57142857142861" y="54.42857142857143" width="2.5714285714285716" height="2.5714285714285716" rx="0" fill="#103943" />
  <rect x="113.28571428571433" y="39" width="2.5714285714285716" height="2.5714285714285716" rx="0" fill="#103943" />
  <rect x="115.8571428571429" y="39" width="2.5714285714285716" height="2.5714285714285716" rx="0" fill="#103943" />
  <rect x="118.42857142857147" y="39" width="2.5714285714285716" height="2.5714285714285716" rx="0" fill="#103943" />
  <rect x="121.00000000000006" y="39" width="2.5714285714285716" height="2.5714285714285716" rx="0" fill="#103943" />
  <rect x="123.57142857142863" y="39" width="2.5714285714285716" height="2.5714285714285716" rx="0" fill="#103943" />
  <rect x="118.42857142857147" y="41.57142857142857" width="2.5714285714285716" height="2.5714285714285716" rx="0" fill="#103943" />
  <rect x="118.42857142857147" y="44.142857142857146" width="2.5714285714285716" height="2.5714285714285716" rx="0" fill="#103943" />
  <rect x="118.42857142857147" y="46.714285714285715" width="2.5714285714285716" height="2.5714285714285716" rx="0" fill="#103943" />
  <rect x="118.42857142857147" y="49.285714285714285" width="2.5714285714285716" height="2.5714285714285716" rx="0" fill="#103943" />
  <rect x="118.42857142857147" y="51.85714285714286" width="2.5714285714285716" height="2.5714285714285716" rx="0" fill="#103943" />
  <rect x="118.42857142857147" y="54.42857142857143" width="2.5714285714285716" height="2.5714285714285716" rx="0" fill="#103943" />
  <rect x="128.71428571428575" y="39" width="2.5714285714285716" height="2.5714285714285716" rx="0" fill="#103943" />
  <rect x="131.28571428571433" y="39" width="2.5714285714285716" height="2.5714285714285716" rx="0" fill="#103943" />
  <rect x="133.8571428571429" y="39" width="2.5714285714285716" height="2.5714285714285716" rx="0" fill="#103943" />
  <rect x="136.42857142857147" y="39" width="2.5714285714285716" height="2.5714285714285716" rx="0" fill="#103943" />
  <rect x="128.71428571428575" y="41.57142857142857" width="2.5714285714285716" height="2.5714285714285716" rx="0" fill="#103943" />
  <rect x="139.00000000000003" y="41.57142857142857" width="2.5714285714285716" height="2.5714285714285716" rx="0" fill="#103943" />
  <rect x="128.71428571428575" y="44.142857142857146" width="2.5714285714285716" height="2.5714285714285716" rx="0" fill="#103943" />
  <rect x="139.00000000000003" y="44.142857142857146" width="2.5714285714285716" height="2.5714285714285716" rx="0" fill="#103943" />
  <rect x="128.71428571428575" y="46.714285714285715" width="2.5714285714285716" height="2.5714285714285716" rx="0" fill="#103943" />
  <rect x="131.28571428571433" y="46.714285714285715" width="2.5714285714285716" height="2.5714285714285716" rx="0" fill="#103943" />
  <rect x="133.8571428571429" y="46.714285714285715" width="2.5714285714285716" height="2.5714285714285716" rx="0" fill="#103943" />
  <rect x="136.42857142857147" y="46.714285714285715" width="2.5714285714285716" height="2.5714285714285716" rx="0" fill="#103943" />
  <rect x="128.71428571428575" y="49.285714285714285" width="2.5714285714285716" height="2.5714285714285716" rx="0" fill="#103943" />
  <rect x="133.8571428571429" y="49.285714285714285" width="2.5714285714285716" height="2.5714285714285716" rx="0" fill="#103943" />
  <rect x="128.71428571428575" y="51.85714285714286" width="2.5714285714285716" height="2.5714285714285716" rx="0" fill="#103943" />
  <rect x="136.42857142857147" y="51.85714285714286" width="2.5714285714285716" height="2.5714285714285716" rx="0" fill="#103943" />
  <rect x="128.71428571428575" y="54.42857142857143" width="2.5714285714285716" height="2.5714285714285716" rx="0" fill="#103943" />
  <rect x="139.00000000000003" y="54.42857142857143" width="2.5714285714285716" height="2.5714285714285716" rx="0" fill="#103943" />
  <rect x="146.71428571428575" y="39" width="2.5714285714285716" height="2.5714285714285716" rx="0" fill="#103943" />
  <rect x="149.2857142857143" y="39" width="2.5714285714285716" height="2.5714285714285716" rx="0" fill="#103943" />
  <rect x="151.8571428571429" y="39" width="2.5714285714285716" height="2.5714285714285716" rx="0" fill="#103943" />
  <rect x="144.14285714285717" y="41.57142857142857" width="2.5714285714285716" height="2.5714285714285716" rx="0" fill="#103943" />
  <rect x="154.42857142857144" y="41.57142857142857" width="2.5714285714285716" height="2.5714285714285716" rx="0" fill="#103943" />
  <rect x="144.14285714285717" y="44.142857142857146" width="2.5714285714285716" height="2.5714285714285716" rx="0" fill="#103943" />
  <rect x="154.42857142857144" y="44.142857142857146" width="2.5714285714285716" height="2.5714285714285716" rx="0" fill="#103943" />
  <rect x="144.14285714285717" y="46.714285714285715" width="2.5714285714285716" height="2.5714285714285716" rx="0" fill="#103943" />
  <rect x="154.42857142857144" y="46.714285714285715" width="2.5714285714285716" height="2.5714285714285716" rx="0" fill="#103943" />
  <rect x="144.14285714285717" y="49.285714285714285" width="2.5714285714285716" height="2.5714285714285716" rx="0" fill="#103943" />
  <rect x="154.42857142857144" y="49.285714285714285" width="2.5714285714285716" height="2.5714285714285716" rx="0" fill="#103943" />
  <rect x="144.14285714285717" y="51.85714285714286" width="2.5714285714285716" height="2.5714285714285716" rx="0" fill="#103943" />
  <rect x="154.42857142857144" y="51.85714285714286" width="2.5714285714285716" height="2.5714285714285716" rx="0" fill="#103943" />
  <rect x="146.71428571428575" y="54.42857142857143" width="2.5714285714285716" height="2.5714285714285716" rx="0" fill="#103943" />
  <rect x="149.2857142857143" y="54.42857142857143" width="2.5714285714285716" height="2.5714285714285716" rx="0" fill="#103943" />
  <rect x="151.8571428571429" y="54.42857142857143" width="2.5714285714285716" height="2.5714285714285716" rx="0" fill="#103943" />
  <rect x="159.57142857142858" y="39" width="2.5714285714285716" height="2.5714285714285716" rx="0" fill="#103943" />
  <rect x="169.85714285714286" y="39" width="2.5714285714285716" height="2.5714285714285716" rx="0" fill="#103943" />
  <rect x="159.57142857142858" y="41.57142857142857" width="2.5714285714285716" height="2.5714285714285716" rx="0" fill="#103943" />
  <rect x="167.2857142857143" y="41.57142857142857" width="2.5714285714285716" height="2.5714285714285716" rx="0" fill="#103943" />
  <rect x="159.57142857142858" y="44.142857142857146" width="2.5714285714285716" height="2.5714285714285716" rx="0" fill="#103943" />
  <rect x="164.71428571428572" y="44.142857142857146" width="2.5714285714285716" height="2.5714285714285716" rx="0" fill="#103943" />
  <rect x="159.57142857142858" y="46.714285714285715" width="2.5714285714285716" height="2.5714285714285716" rx="0" fill="#103943" />
  <rect x="162.14285714285717" y="46.714285714285715" width="2.5714285714285716" height="2.5714285714285716" rx="0" fill="#103943" />
  <rect x="159.57142857142858" y="49.285714285714285" width="2.5714285714285716" height="2.5714285714285716" rx="0" fill="#103943" />
  <rect x="164.71428571428572" y="49.285714285714285" width="2.5714285714285716" height="2.5714285714285716" rx="0" fill="#103943" />
  <rect x="159.57142857142858" y="51.85714285714286" width="2.5714285714285716" height="2.5714285714285716" rx="0" fill="#103943" />
  <rect x="167.2857142857143" y="51.85714285714286" width="2.5714285714285716" height="2.5714285714285716" rx="0" fill="#103943" />
  <rect x="159.57142857142858" y="54.42857142857143" width="2.5714285714285716" height="2.5714285714285716" rx="0" fill="#103943" />
  <rect x="169.85714285714286" y="54.42857142857143" width="2.5714285714285716" height="2.5714285714285716" rx="0" fill="#103943" />
  <rect x="175" y="39" width="2.5714285714285716" height="2.5714285714285716" rx="0" fill="#103943" />
  <rect x="177.57142857142858" y="39" width="2.5714285714285716" height="2.5714285714285716" rx="0" fill="#103943" />
  <rect x="180.14285714285714" y="39" width="2.5714285714285716" height="2.5714285714285716" rx="0" fill="#103943" />
  <rect x="182.71428571428572" y="39" width="2.5714285714285716" height="2.5714285714285716" rx="0" fill="#103943" />
  <rect x="185.28571428571428" y="39" width="2.5714285714285716" height="2.5714285714285716" rx="0" fill="#103943" />
  <rect x="175" y="41.57142857142857" width="2.5714285714285716" height="2.5714285714285716" rx="0" fill="#103943" />
  <rect x="175" y="44.142857142857146" width="2.5714285714285716" height="2.5714285714285716" rx="0" fill="#103943" />
  <rect x="175" y="46.714285714285715" width="2.5714285714285716" height="2.5714285714285716" rx="0" fill="#103943" />
  <rect x="177.57142857142858" y="46.714285714285715" width="2.5714285714285716" height="2.5714285714285716" rx="0" fill="#103943" />
  <rect x="180.14285714285714" y="46.714285714285715" width="2.5714285714285716" height="2.5714285714285716" rx="0" fill="#103943" />
  <rect x="182.71428571428572" y="46.714285714285715" width="2.5714285714285716" height="2.5714285714285716" rx="0" fill="#103943" />
  <rect x="175" y="49.285714285714285" width="2.5714285714285716" height="2.5714285714285716" rx="0" fill="#103943" />
  <rect x="175" y="51.85714285714286" width="2.5714285714285716" height="2.5714285714285716" rx="0" fill="#103943" />
  <rect x="175" y="54.42857142857143" width="2.5714285714285716" height="2.5714285714285716" rx="0" fill="#103943" />
  <rect x="177.57142857142858" y="54.42857142857143" width="2.5714285714285716" height="2.5714285714285716" rx="0" fill="#103943" />
  <rect x="180.14285714285714" y="54.42857142857143" width="2.5714285714285716" height="2.5714285714285716" rx="0" fill="#103943" />
  <rect x="182.71428571428572" y="54.42857142857143" width="2.5714285714285716" height="2.5714285714285716" rx="0" fill="#103943" />
  <rect x="185.28571428571428" y="54.42857142857143" width="2.5714285714285716" height="2.5714285714285716" rx="0" fill="#103943" />
  <rect x="200.7142857142857" y="39" width="2.5714285714285716" height="2.5714285714285716" rx="0" fill="#103943" />
  <rect x="203.28571428571428" y="39" width="2.5714285714285716" height="2.5714285714285716" rx="0" fill="#103943" />
  <rect x="205.85714285714283" y="39" width="2.5714285714285716" height="2.5714285714285716" rx="0" fill="#103943" />
  <rect x="208.42857142857142" y="39" width="2.5714285714285716" height="2.5714285714285716" rx="0" fill="#103943" />
  <rect x="210.99999999999997" y="39" width="2.5714285714285716" height="2.5714285714285716" rx="0" fill="#103943" />
  <rect x="205.85714285714283" y="41.57142857142857" width="2.5714285714285716" height="2.5714285714285716" rx="0" fill="#103943" />
  <rect x="205.85714285714283" y="44.142857142857146" width="2.5714285714285716" height="2.5714285714285716" rx="0" fill="#103943" />
  <rect x="205.85714285714283" y="46.714285714285715" width="2.5714285714285716" height="2.5714285714285716" rx="0" fill="#103943" />
  <rect x="205.85714285714283" y="49.285714285714285" width="2.5714285714285716" height="2.5714285714285716" rx="0" fill="#103943" />
  <rect x="205.85714285714283" y="51.85714285714286" width="2.5714285714285716" height="2.5714285714285716" rx="0" fill="#103943" />
  <rect x="200.7142857142857" y="54.42857142857143" width="2.5714285714285716" height="2.5714285714285716" rx="0" fill="#103943" />
  <rect x="203.28571428571428" y="54.42857142857143" width="2.5714285714285716" height="2.5714285714285716" rx="0" fill="#103943" />
  <rect x="205.85714285714283" y="54.42857142857143" width="2.5714285714285716" height="2.5714285714285716" rx="0" fill="#103943" />
  <rect x="208.42857142857142" y="54.42857142857143" width="2.5714285714285716" height="2.5714285714285716" rx="0" fill="#103943" />
  <rect x="210.99999999999997" y="54.42857142857143" width="2.5714285714285716" height="2.5714285714285716" rx="0" fill="#103943" />
  <rect x="216.1428571428571" y="39" width="2.5714285714285716" height="2.5714285714285716" rx="0" fill="#103943" />
  <rect x="226.4285714285714" y="39" width="2.5714285714285716" height="2.5714285714285716" rx="0" fill="#103943" />
  <rect x="216.1428571428571" y="41.57142857142857" width="2.5714285714285716" height="2.5714285714285716" rx="0" fill="#103943" />
  <rect x="218.7142857142857" y="41.57142857142857" width="2.5714285714285716" height="2.5714285714285716" rx="0" fill="#103943" />
  <rect x="226.4285714285714" y="41.57142857142857" width="2.5714285714285716" height="2.5714285714285716" rx="0" fill="#103943" />
  <rect x="216.1428571428571" y="44.142857142857146" width="2.5714285714285716" height="2.5714285714285716" rx="0" fill="#103943" />
  <rect x="221.28571428571425" y="44.142857142857146" width="2.5714285714285716" height="2.5714285714285716" rx="0" fill="#103943" />
  <rect x="226.4285714285714" y="44.142857142857146" width="2.5714285714285716" height="2.5714285714285716" rx="0" fill="#103943" />
  <rect x="216.1428571428571" y="46.714285714285715" width="2.5714285714285716" height="2.5714285714285716" rx="0" fill="#103943" />
  <rect x="223.85714285714283" y="46.714285714285715" width="2.5714285714285716" height="2.5714285714285716" rx="0" fill="#103943" />
  <rect x="226.4285714285714" y="46.714285714285715" width="2.5714285714285716" height="2.5714285714285716" rx="0" fill="#103943" />
  <rect x="216.1428571428571" y="49.285714285714285" width="2.5714285714285716" height="2.5714285714285716" rx="0" fill="#103943" />
  <rect x="226.4285714285714" y="49.285714285714285" width="2.5714285714285716" height="2.5714285714285716" rx="0" fill="#103943" />
  <rect x="216.1428571428571" y="51.85714285714286" width="2.5714285714285716" height="2.5714285714285716" rx="0" fill="#103943" />
  <rect x="226.4285714285714" y="51.85714285714286" width="2.5714285714285716" height="2.5714285714285716" rx="0" fill="#103943" />
  <rect x="216.1428571428571" y="54.42857142857143" width="2.5714285714285716" height="2.5714285714285716" rx="0" fill="#103943" />
  <rect x="226.4285714285714" y="54.42857142857143" width="2.5714285714285716" height="2.5714285714285716" rx="0" fill="#103943" />
  <rect x="249.57142857142853" y="39" width="2.5714285714285716" height="2.5714285714285716" rx="0" fill="#103943" />
  <rect x="246.99999999999994" y="41.57142857142857" width="2.5714285714285716" height="2.5714285714285716" rx="0" fill="#103943" />
  <rect x="249.57142857142853" y="41.57142857142857" width="2.5714285714285716" height="2.5714285714285716" rx="0" fill="#103943" />
  <rect x="244.4285714285714" y="44.142857142857146" width="2.5714285714285716" height="2.5714285714285716" rx="0" fill="#103943" />
  <rect x="249.57142857142853" y="44.142857142857146" width="2.5714285714285716" height="2.5714285714285716" rx="0" fill="#103943" />
  <rect x="241.8571428571428" y="46.714285714285715" width="2.5714285714285716" height="2.5714285714285716" rx="0" fill="#103943" />
  <rect x="249.57142857142853" y="46.714285714285715" width="2.5714285714285716" height="2.5714285714285716" rx="0" fill="#103943" />
  <rect x="241.8571428571428" y="49.285714285714285" width="2.5714285714285716" height="2.5714285714285716" rx="0" fill="#103943" />
  <rect x="244.4285714285714" y="49.285714285714285" width="2.5714285714285716" height="2.5714285714285716" rx="0" fill="#103943" />
  <rect x="246.99999999999994" y="49.285714285714285" width="2.5714285714285716" height="2.5714285714285716" rx="0" fill="#103943" />
  <rect x="249.57142857142853" y="49.285714285714285" width="2.5714285714285716" height="2.5714285714285716" rx="0" fill="#103943" />
  <rect x="252.14285714285708" y="49.285714285714285" width="2.5714285714285716" height="2.5714285714285716" rx="0" fill="#103943" />
  <rect x="249.57142857142853" y="51.85714285714286" width="2.5714285714285716" height="2.5714285714285716" rx="0" fill="#103943" />
  <rect x="249.57142857142853" y="54.42857142857143" width="2.5714285714285716" height="2.5714285714285716" rx="0" fill="#103943" />
  <rect x="270.14285714285705" y="39" width="2.5714285714285716" height="2.5714285714285716" rx="0" fill="#103943" />
  <rect x="272.71428571428567" y="39" width="2.5714285714285716" height="2.5714285714285716" rx="0" fill="#103943" />
  <rect x="275.2857142857142" y="39" width="2.5714285714285716" height="2.5714285714285716" rx="0" fill="#103943" />
  <rect x="277.8571428571428" y="39" width="2.5714285714285716" height="2.5714285714285716" rx="0" fill="#103943" />
  <rect x="267.5714285714285" y="41.57142857142857" width="2.5714285714285716" height="2.5714285714285716" rx="0" fill="#103943" />
  <rect x="267.5714285714285" y="44.142857142857146" width="2.5714285714285716" height="2.5714285714285716" rx="0" fill="#103943" />
  <rect x="270.14285714285705" y="46.714285714285715" width="2.5714285714285716" height="2.5714285714285716" rx="0" fill="#103943" />
  <rect x="272.71428571428567" y="46.714285714285715" width="2.5714285714285716" height="2.5714285714285716" rx="0" fill="#103943" />
  <rect x="275.2857142857142" y="46.714285714285715" width="2.5714285714285716" height="2.5714285714285716" rx="0" fill="#103943" />
  <rect x="277.8571428571428" y="49.285714285714285" width="2.5714285714285716" height="2.5714285714285716" rx="0" fill="#103943" />
  <rect x="277.8571428571428" y="51.85714285714286" width="2.5714285714285716" height="2.5714285714285716" rx="0" fill="#103943" />
  <rect x="267.5714285714285" y="54.42857142857143" width="2.5714285714285716" height="2.5714285714285716" rx="0" fill="#103943" />
  <rect x="270.14285714285705" y="54.42857142857143" width="2.5714285714285716" height="2.5714285714285716" rx="0" fill="#103943" />
  <rect x="272.71428571428567" y="54.42857142857143" width="2.5714285714285716" height="2.5714285714285716" rx="0" fill="#103943" />
  <rect x="275.2857142857142" y="54.42857142857143" width="2.5714285714285716" height="2.5714285714285716" rx="0" fill="#103943" />
  <rect x="282.99999999999994" y="39" width="2.5714285714285716" height="2.5714285714285716" rx="0" fill="#103943" />
  <rect x="285.5714285714285" y="39" width="2.5714285714285716" height="2.5714285714285716" rx="0" fill="#103943" />
  <rect x="288.1428571428571" y="39" width="2.5714285714285716" height="2.5714285714285716" rx="0" fill="#103943" />
  <rect x="290.71428571428567" y="39" width="2.5714285714285716" height="2.5714285714285716" rx="0" fill="#103943" />
  <rect x="293.2857142857142" y="39" width="2.5714285714285716" height="2.5714285714285716" rx="0" fill="#103943" />
  <rect x="288.1428571428571" y="41.57142857142857" width="2.5714285714285716" height="2.5714285714285716" rx="0" fill="#103943" />
  <rect x="288.1428571428571" y="44.142857142857146" width="2.5714285714285716" height="2.5714285714285716" rx="0" fill="#103943" />
  <rect x="288.1428571428571" y="46.714285714285715" width="2.5714285714285716" height="2.5714285714285716" rx="0" fill="#103943" />
  <rect x="288.1428571428571" y="49.285714285714285" width="2.5714285714285716" height="2.5714285714285716" rx="0" fill="#103943" />
  <rect x="288.1428571428571" y="51.85714285714286" width="2.5714285714285716" height="2.5714285714285716" rx="0" fill="#103943" />
  <rect x="288.1428571428571" y="54.42857142857143" width="2.5714285714285716" height="2.5714285714285716" rx="0" fill="#103943" />
  <rect x="298.4285714285714" y="39" width="2.5714285714285716" height="2.5714285714285716" rx="0" fill="#103943" />
  <rect x="300.99999999999994" y="39" width="2.5714285714285716" height="2.5714285714285716" rx="0" fill="#103943" />
  <rect x="303.57142857142856" y="39" width="2.5714285714285716" height="2.5714285714285716" rx="0" fill="#103943" />
  <rect x="306.1428571428571" y="39" width="2.5714285714285716" height="2.5714285714285716" rx="0" fill="#103943" />
  <rect x="308.71428571428567" y="39" width="2.5714285714285716" height="2.5714285714285716" rx="0" fill="#103943" />
  <rect x="298.4285714285714" y="41.57142857142857" width="2.5714285714285716" height="2.5714285714285716" rx="0" fill="#103943" />
  <rect x="298.4285714285714" y="44.142857142857146" width="2.5714285714285716" height="2.5714285714285716" rx="0" fill="#103943" />
  <rect x="298.4285714285714" y="46.714285714285715" width="2.5714285714285716" height="2.5714285714285716" rx="0" fill="#103943" />
  <rect x="300.99999999999994" y="46.714285714285715" width="2.5714285714285716" height="2.5714285714285716" rx="0" fill="#103943" />
  <rect x="303.57142857142856" y="46.714285714285715" width="2.5714285714285716" height="2.5714285714285716" rx="0" fill="#103943" />
  <rect x="306.1428571428571" y="46.714285714285715" width="2.5714285714285716" height="2.5714285714285716" rx="0" fill="#103943" />
  <rect x="298.4285714285714" y="49.285714285714285" width="2.5714285714285716" height="2.5714285714285716" rx="0" fill="#103943" />
  <rect x="298.4285714285714" y="51.85714285714286" width="2.5714285714285716" height="2.5714285714285716" rx="0" fill="#103943" />
  <rect x="298.4285714285714" y="54.42857142857143" width="2.5714285714285716" height="2.5714285714285716" rx="0" fill="#103943" />
  <rect x="300.99999999999994" y="54.42857142857143" width="2.5714285714285716" height="2.5714285714285716" rx="0" fill="#103943" />
  <rect x="303.57142857142856" y="54.42857142857143" width="2.5714285714285716" height="2.5714285714285716" rx="0" fill="#103943" />
  <rect x="306.1428571428571" y="54.42857142857143" width="2.5714285714285716" height="2.5714285714285716" rx="0" fill="#103943" />
  <rect x="308.71428571428567" y="54.42857142857143" width="2.5714285714285716" height="2.5714285714285716" rx="0" fill="#103943" />
  <rect x="313.85714285714283" y="39" width="2.5714285714285716" height="2.5714285714285716" rx="0" fill="#103943" />
  <rect x="316.4285714285714" y="39" width="2.5714285714285716" height="2.5714285714285716" rx="0" fill="#103943" />
  <rect x="319" y="39" width="2.5714285714285716" height="2.5714285714285716" rx="0" fill="#103943" />
  <rect x="321.57142857142856" y="39" width="2.5714285714285716" height="2.5714285714285716" rx="0" fill="#103943" />
  <rect x="313.85714285714283" y="41.57142857142857" width="2.5714285714285716" height="2.5714285714285716" rx="0" fill="#103943" />
  <rect x="324.1428571428571" y="41.57142857142857" width="2.5714285714285716" height="2.5714285714285716" rx="0" fill="#103943" />
  <rect x="313.85714285714283" y="44.142857142857146" width="2.5714285714285716" height="2.5714285714285716" rx="0" fill="#103943" />
  <rect x="324.1428571428571" y="44.142857142857146" width="2.5714285714285716" height="2.5714285714285716" rx="0" fill="#103943" />
  <rect x="313.85714285714283" y="46.714285714285715" width="2.5714285714285716" height="2.5714285714285716" rx="0" fill="#103943" />
  <rect x="316.4285714285714" y="46.714285714285715" width="2.5714285714285716" height="2.5714285714285716" rx="0" fill="#103943" />
  <rect x="319" y="46.714285714285715" width="2.5714285714285716" height="2.5714285714285716" rx="0" fill="#103943" />
  <rect x="321.57142857142856" y="46.714285714285715" width="2.5714285714285716" height="2.5714285714285716" rx="0" fill="#103943" />
  <rect x="313.85714285714283" y="49.285714285714285" width="2.5714285714285716" height="2.5714285714285716" rx="0" fill="#103943" />
  <rect x="313.85714285714283" y="51.85714285714286" width="2.5714285714285716" height="2.5714285714285716" rx="0" fill="#103943" />
  <rect x="313.85714285714283" y="54.42857142857143" width="2.5714285714285716" height="2.5714285714285716" rx="0" fill="#103943" />
  <rect x="331.85714285714283" y="39" width="2.5714285714285716" height="2.5714285714285716" rx="0" fill="#103943" />
  <rect x="334.42857142857144" y="39" width="2.5714285714285716" height="2.5714285714285716" rx="0" fill="#103943" />
  <rect x="337" y="39" width="2.5714285714285716" height="2.5714285714285716" rx="0" fill="#103943" />
  <rect x="339.57142857142856" y="39" width="2.5714285714285716" height="2.5714285714285716" rx="0" fill="#103943" />
  <rect x="329.2857142857143" y="41.57142857142857" width="2.5714285714285716" height="2.5714285714285716" rx="0" fill="#103943" />
  <rect x="329.2857142857143" y="44.142857142857146" width="2.5714285714285716" height="2.5714285714285716" rx="0" fill="#103943" />
  <rect x="331.85714285714283" y="46.714285714285715" width="2.5714285714285716" height="2.5714285714285716" rx="0" fill="#103943" />
  <rect x="334.42857142857144" y="46.714285714285715" width="2.5714285714285716" height="2.5714285714285716" rx="0" fill="#103943" />
  <rect x="337" y="46.714285714285715" width="2.5714285714285716" height="2.5714285714285716" rx="0" fill="#103943" />
  <rect x="339.57142857142856" y="49.285714285714285" width="2.5714285714285716" height="2.5714285714285716" rx="0" fill="#103943" />
  <rect x="339.57142857142856" y="51.85714285714286" width="2.5714285714285716" height="2.5714285714285716" rx="0" fill="#103943" />
  <rect x="329.2857142857143" y="54.42857142857143" width="2.5714285714285716" height="2.5714285714285716" rx="0" fill="#103943" />
  <rect x="331.85714285714283" y="54.42857142857143" width="2.5714285714285716" height="2.5714285714285716" rx="0" fill="#103943" />
  <rect x="334.42857142857144" y="54.42857142857143" width="2.5714285714285716" height="2.5714285714285716" rx="0" fill="#103943" />
  <rect x="337" y="54.42857142857143" width="2.5714285714285716" height="2.5714285714285716" rx="0" fill="#103943" />
  <rect x="35" y="90" width="70" height="132" rx="7" fill="#fff3c4" opacity="0.88" />
  <rect x="68.71428571428571" y="105" width="2.5714285714285716" height="2.5714285714285716" rx="0" fill="#df4540" />
  <rect x="66.14285714285714" y="107.57142857142857" width="2.5714285714285716" height="2.5714285714285716" rx="0" fill="#df4540" />
  <rect x="68.71428571428571" y="107.57142857142857" width="2.5714285714285716" height="2.5714285714285716" rx="0" fill="#df4540" />
  <rect x="68.71428571428571" y="110.14285714285714" width="2.5714285714285716" height="2.5714285714285716" rx="0" fill="#df4540" />
  <rect x="68.71428571428571" y="112.71428571428572" width="2.5714285714285716" height="2.5714285714285716" rx="0" fill="#df4540" />
  <rect x="68.71428571428571" y="115.28571428571429" width="2.5714285714285716" height="2.5714285714285716" rx="0" fill="#df4540" />
  <rect x="68.71428571428571" y="117.85714285714286" width="2.5714285714285716" height="2.5714285714285716" rx="0" fill="#df4540" />
  <rect x="66.14285714285714" y="120.42857142857143" width="2.5714285714285716" height="2.5714285714285716" rx="0" fill="#df4540" />
  <rect x="68.71428571428571" y="120.42857142857143" width="2.5714285714285716" height="2.5714285714285716" rx="0" fill="#df4540" />
  <rect x="71.28571428571428" y="120.42857142857143" width="2.5714285714285716" height="2.5714285714285716" rx="0" fill="#df4540" />
  <circle cx="70" cy="138" r="5.8500000000000005" fill="#103943" />
  <line x1="70" y1="145.15" x2="70" y2="169.2" stroke="#103943" stroke-width="10.4" stroke-linecap="round" opacity="1" />
  <line x1="67.4" y1="152.95" x2="54.4" y2="165.3" stroke="#103943" stroke-width="5.2" stroke-linecap="round" opacity="1" />
  <line x1="72.6" y1="152.95" x2="85.6" y2="165.3" stroke="#103943" stroke-width="5.2" stroke-linecap="round" opacity="1" />
  <line x1="67.4" y1="170.5" x2="59.6" y2="188.7" stroke="#103943" stroke-width="5.8500000000000005" stroke-linecap="round" opacity="1" />
  <line x1="72.6" y1="170.5" x2="80.4" y2="188.7" stroke="#103943" stroke-width="5.8500000000000005" stroke-linecap="round" opacity="1" />
  <rect x="129" y="90" width="70" height="132" rx="7" fill="#fff3c4" opacity="0.88" />
  <rect x="160.14285714285717" y="105" width="2.5714285714285716" height="2.5714285714285716" rx="0" fill="#df4540" />
  <rect x="162.71428571428572" y="105" width="2.5714285714285716" height="2.5714285714285716" rx="0" fill="#df4540" />
  <rect x="165.2857142857143" y="105" width="2.5714285714285716" height="2.5714285714285716" rx="0" fill="#df4540" />
  <rect x="157.57142857142858" y="107.57142857142857" width="2.5714285714285716" height="2.5714285714285716" rx="0" fill="#df4540" />
  <rect x="167.85714285714286" y="107.57142857142857" width="2.5714285714285716" height="2.5714285714285716" rx="0" fill="#df4540" />
  <rect x="167.85714285714286" y="110.14285714285714" width="2.5714285714285716" height="2.5714285714285716" rx="0" fill="#df4540" />
  <rect x="165.2857142857143" y="112.71428571428572" width="2.5714285714285716" height="2.5714285714285716" rx="0" fill="#df4540" />
  <rect x="162.71428571428572" y="115.28571428571429" width="2.5714285714285716" height="2.5714285714285716" rx="0" fill="#df4540" />
  <rect x="160.14285714285717" y="117.85714285714286" width="2.5714285714285716" height="2.5714285714285716" rx="0" fill="#df4540" />
  <rect x="157.57142857142858" y="120.42857142857143" width="2.5714285714285716" height="2.5714285714285716" rx="0" fill="#df4540" />
  <rect x="160.14285714285717" y="120.42857142857143" width="2.5714285714285716" height="2.5714285714285716" rx="0" fill="#df4540" />
  <rect x="162.71428571428572" y="120.42857142857143" width="2.5714285714285716" height="2.5714285714285716" rx="0" fill="#df4540" />
  <rect x="165.2857142857143" y="120.42857142857143" width="2.5714285714285716" height="2.5714285714285716" rx="0" fill="#df4540" />
  <rect x="167.85714285714286" y="120.42857142857143" width="2.5714285714285716" height="2.5714285714285716" rx="0" fill="#df4540" />
  <circle cx="164" cy="138" r="5.8500000000000005" fill="#2f6471" />
  <line x1="164" y1="145.15" x2="164" y2="169.2" stroke="#2f6471" stroke-width="10.4" stroke-linecap="round" opacity="1" />
  <line x1="161.4" y1="152.95" x2="148.4" y2="165.3" stroke="#2f6471" stroke-width="5.2" stroke-linecap="round" opacity="1" />
  <line x1="166.6" y1="152.95" x2="179.6" y2="165.3" stroke="#2f6471" stroke-width="5.2" stroke-linecap="round" opacity="1" />
  <line x1="161.4" y1="170.5" x2="153.6" y2="188.7" stroke="#2f6471" stroke-width="5.8500000000000005" stroke-linecap="round" opacity="1" />
  <line x1="166.6" y1="170.5" x2="174.4" y2="188.7" stroke="#2f6471" stroke-width="5.8500000000000005" stroke-linecap="round" opacity="1" />
  <rect x="223" y="90" width="70" height="132" rx="7" fill="#fff3c4" opacity="0.88" />
  <rect x="251.57142857142858" y="105" width="2.5714285714285716" height="2.5714285714285716" rx="0" fill="#df4540" />
  <rect x="254.14285714285717" y="105" width="2.5714285714285716" height="2.5714285714285716" rx="0" fill="#df4540" />
  <rect x="256.7142857142857" y="105" width="2.5714285714285716" height="2.5714285714285716" rx="0" fill="#df4540" />
  <rect x="259.2857142857143" y="105" width="2.5714285714285716" height="2.5714285714285716" rx="0" fill="#df4540" />
  <rect x="261.8571428571429" y="107.57142857142857" width="2.5714285714285716" height="2.5714285714285716" rx="0" fill="#df4540" />
  <rect x="261.8571428571429" y="110.14285714285714" width="2.5714285714285716" height="2.5714285714285716" rx="0" fill="#df4540" />
  <rect x="254.14285714285717" y="112.71428571428572" width="2.5714285714285716" height="2.5714285714285716" rx="0" fill="#df4540" />
  <rect x="256.7142857142857" y="112.71428571428572" width="2.5714285714285716" height="2.5714285714285716" rx="0" fill="#df4540" />
  <rect x="259.2857142857143" y="112.71428571428572" width="2.5714285714285716" height="2.5714285714285716" rx="0" fill="#df4540" />
  <rect x="261.8571428571429" y="115.28571428571429" width="2.5714285714285716" height="2.5714285714285716" rx="0" fill="#df4540" />
  <rect x="261.8571428571429" y="117.85714285714286" width="2.5714285714285716" height="2.5714285714285716" rx="0" fill="#df4540" />
  <rect x="251.57142857142858" y="120.42857142857143" width="2.5714285714285716" height="2.5714285714285716" rx="0" fill="#df4540" />
  <rect x="254.14285714285717" y="120.42857142857143" width="2.5714285714285716" height="2.5714285714285716" rx="0" fill="#df4540" />
  <rect x="256.7142857142857" y="120.42857142857143" width="2.5714285714285716" height="2.5714285714285716" rx="0" fill="#df4540" />
  <rect x="259.2857142857143" y="120.42857142857143" width="2.5714285714285716" height="2.5714285714285716" rx="0" fill="#df4540" />
  <circle cx="258" cy="138" r="5.8500000000000005" fill="#103943" />
  <line x1="258" y1="145.15" x2="258" y2="169.2" stroke="#103943" stroke-width="10.4" stroke-linecap="round" opacity="1" />
  <line x1="255.4" y1="152.95" x2="242.4" y2="165.3" stroke="#103943" stroke-width="5.2" stroke-linecap="round" opacity="1" />
  <line x1="260.6" y1="152.95" x2="273.6" y2="165.3" stroke="#103943" stroke-width="5.2" stroke-linecap="round" opacity="1" />
  <line x1="255.4" y1="170.5" x2="247.6" y2="188.7" stroke="#103943" stroke-width="5.8500000000000005" stroke-linecap="round" opacity="1" />
  <line x1="260.6" y1="170.5" x2="268.4" y2="188.7" stroke="#103943" stroke-width="5.8500000000000005" stroke-linecap="round" opacity="1" />
  <rect x="317" y="90" width="70" height="132" rx="7" fill="#fff3c4" opacity="0.88" />
  <rect x="353.2857142857143" y="105" width="2.5714285714285716" height="2.5714285714285716" rx="0" fill="#df4540" />
  <rect x="350.7142857142857" y="107.57142857142857" width="2.5714285714285716" height="2.5714285714285716" rx="0" fill="#df4540" />
  <rect x="353.2857142857143" y="107.57142857142857" width="2.5714285714285716" height="2.5714285714285716" rx="0" fill="#df4540" />
  <rect x="348.1428571428571" y="110.14285714285714" width="2.5714285714285716" height="2.5714285714285716" rx="0" fill="#df4540" />
  <rect x="353.2857142857143" y="110.14285714285714" width="2.5714285714285716" height="2.5714285714285716" rx="0" fill="#df4540" />
  <rect x="345.57142857142856" y="112.71428571428572" width="2.5714285714285716" height="2.5714285714285716" rx="0" fill="#df4540" />
  <rect x="353.2857142857143" y="112.71428571428572" width="2.5714285714285716" height="2.5714285714285716" rx="0" fill="#df4540" />
  <rect x="345.57142857142856" y="115.28571428571429" width="2.5714285714285716" height="2.5714285714285716" rx="0" fill="#df4540" />
  <rect x="348.1428571428571" y="115.28571428571429" width="2.5714285714285716" height="2.5714285714285716" rx="0" fill="#df4540" />
  <rect x="350.7142857142857" y="115.28571428571429" width="2.5714285714285716" height="2.5714285714285716" rx="0" fill="#df4540" />
  <rect x="353.2857142857143" y="115.28571428571429" width="2.5714285714285716" height="2.5714285714285716" rx="0" fill="#df4540" />
  <rect x="355.85714285714283" y="115.28571428571429" width="2.5714285714285716" height="2.5714285714285716" rx="0" fill="#df4540" />
  <rect x="353.2857142857143" y="117.85714285714286" width="2.5714285714285716" height="2.5714285714285716" rx="0" fill="#df4540" />
  <rect x="353.2857142857143" y="120.42857142857143" width="2.5714285714285716" height="2.5714285714285716" rx="0" fill="#df4540" />
  <circle cx="352" cy="138" r="5.8500000000000005" fill="#2f6471" />
  <line x1="352" y1="145.15" x2="352" y2="169.2" stroke="#2f6471" stroke-width="10.4" stroke-linecap="round" opacity="1" />
  <line x1="349.4" y1="152.95" x2="336.4" y2="165.3" stroke="#2f6471" stroke-width="5.2" stroke-linecap="round" opacity="1" />
  <line x1="354.6" y1="152.95" x2="367.6" y2="165.3" stroke="#2f6471" stroke-width="5.2" stroke-linecap="round" opacity="1" />
  <line x1="349.4" y1="170.5" x2="341.6" y2="188.7" stroke="#2f6471" stroke-width="5.8500000000000005" stroke-linecap="round" opacity="1" />
  <line x1="354.6" y1="170.5" x2="362.4" y2="188.7" stroke="#2f6471" stroke-width="5.8500000000000005" stroke-linecap="round" opacity="1" />
  <rect x="159" y="252" width="2" height="2" rx="0" fill="#fff9df" />
  <rect x="161" y="252" width="2" height="2" rx="0" fill="#fff9df" />
  <rect x="163" y="252" width="2" height="2" rx="0" fill="#fff9df" />
  <rect x="165" y="252" width="2" height="2" rx="0" fill="#fff9df" />
  <rect x="157" y="254" width="2" height="2" rx="0" fill="#fff9df" />
  <rect x="157" y="256" width="2" height="2" rx="0" fill="#fff9df" />
  <rect x="159" y="258" width="2" height="2" rx="0" fill="#fff9df" />
  <rect x="161" y="258" width="2" height="2" rx="0" fill="#fff9df" />
  <rect x="163" y="258" width="2" height="2" rx="0" fill="#fff9df" />
  <rect x="165" y="260" width="2" height="2" rx="0" fill="#fff9df" />
  <rect x="165" y="262" width="2" height="2" rx="0" fill="#fff9df" />
  <rect x="157" y="264" width="2" height="2" rx="0" fill="#fff9df" />
  <rect x="159" y="264" width="2" height="2" rx="0" fill="#fff9df" />
  <rect x="161" y="264" width="2" height="2" rx="0" fill="#fff9df" />
  <rect x="163" y="264" width="2" height="2" rx="0" fill="#fff9df" />
  <rect x="169" y="252" width="2" height="2" rx="0" fill="#fff9df" />
  <rect x="177" y="252" width="2" height="2" rx="0" fill="#fff9df" />
  <rect x="169" y="254" width="2" height="2" rx="0" fill="#fff9df" />
  <rect x="177" y="254" width="2" height="2" rx="0" fill="#fff9df" />
  <rect x="169" y="256" width="2" height="2" rx="0" fill="#fff9df" />
  <rect x="177" y="256" width="2" height="2" rx="0" fill="#fff9df" />
  <rect x="169" y="258" width="2" height="2" rx="0" fill="#fff9df" />
  <rect x="173" y="258" width="2" height="2" rx="0" fill="#fff9df" />
  <rect x="177" y="258" width="2" height="2" rx="0" fill="#fff9df" />
  <rect x="169" y="260" width="2" height="2" rx="0" fill="#fff9df" />
  <rect x="173" y="260" width="2" height="2" rx="0" fill="#fff9df" />
  <rect x="177" y="260" width="2" height="2" rx="0" fill="#fff9df" />
  <rect x="169" y="262" width="2" height="2" rx="0" fill="#fff9df" />
  <rect x="173" y="262" width="2" height="2" rx="0" fill="#fff9df" />
  <rect x="177" y="262" width="2" height="2" rx="0" fill="#fff9df" />
  <rect x="171" y="264" width="2" height="2" rx="0" fill="#fff9df" />
  <rect x="175" y="264" width="2" height="2" rx="0" fill="#fff9df" />
  <rect x="181" y="252" width="2" height="2" rx="0" fill="#fff9df" />
  <rect x="183" y="252" width="2" height="2" rx="0" fill="#fff9df" />
  <rect x="185" y="252" width="2" height="2" rx="0" fill="#fff9df" />
  <rect x="187" y="252" width="2" height="2" rx="0" fill="#fff9df" />
  <rect x="189" y="252" width="2" height="2" rx="0" fill="#fff9df" />
  <rect x="185" y="254" width="2" height="2" rx="0" fill="#fff9df" />
  <rect x="185" y="256" width="2" height="2" rx="0" fill="#fff9df" />
  <rect x="185" y="258" width="2" height="2" rx="0" fill="#fff9df" />
  <rect x="185" y="260" width="2" height="2" rx="0" fill="#fff9df" />
  <rect x="185" y="262" width="2" height="2" rx="0" fill="#fff9df" />
  <rect x="181" y="264" width="2" height="2" rx="0" fill="#fff9df" />
  <rect x="183" y="264" width="2" height="2" rx="0" fill="#fff9df" />
  <rect x="185" y="264" width="2" height="2" rx="0" fill="#fff9df" />
  <rect x="187" y="264" width="2" height="2" rx="0" fill="#fff9df" />
  <rect x="189" y="264" width="2" height="2" rx="0" fill="#fff9df" />
  <rect x="193" y="252" width="2" height="2" rx="0" fill="#fff9df" />
  <rect x="201" y="252" width="2" height="2" rx="0" fill="#fff9df" />
  <rect x="193" y="254" width="2" height="2" rx="0" fill="#fff9df" />
  <rect x="195" y="254" width="2" height="2" rx="0" fill="#fff9df" />
  <rect x="199" y="254" width="2" height="2" rx="0" fill="#fff9df" />
  <rect x="201" y="254" width="2" height="2" rx="0" fill="#fff9df" />
  <rect x="193" y="256" width="2" height="2" rx="0" fill="#fff9df" />
  <rect x="197" y="256" width="2" height="2" rx="0" fill="#fff9df" />
  <rect x="201" y="256" width="2" height="2" rx="0" fill="#fff9df" />
  <rect x="193" y="258" width="2" height="2" rx="0" fill="#fff9df" />
  <rect x="197" y="258" width="2" height="2" rx="0" fill="#fff9df" />
  <rect x="201" y="258" width="2" height="2" rx="0" fill="#fff9df" />
  <rect x="193" y="260" width="2" height="2" rx="0" fill="#fff9df" />
  <rect x="201" y="260" width="2" height="2" rx="0" fill="#fff9df" />
  <rect x="193" y="262" width="2" height="2" rx="0" fill="#fff9df" />
  <rect x="201" y="262" width="2" height="2" rx="0" fill="#fff9df" />
  <rect x="193" y="264" width="2" height="2" rx="0" fill="#fff9df" />
  <rect x="201" y="264" width="2" height="2" rx="0" fill="#fff9df" />
  <rect x="215" y="252" width="2" height="2" rx="0" fill="#fff9df" />
  <rect x="217" y="252" width="2" height="2" rx="0" fill="#fff9df" />
  <rect x="219" y="252" width="2" height="2" rx="0" fill="#fff9df" />
  <rect x="221" y="252" width="2" height="2" rx="0" fill="#fff9df" />
  <rect x="213" y="254" width="2" height="2" rx="0" fill="#fff9df" />
  <rect x="213" y="256" width="2" height="2" rx="0" fill="#fff9df" />
  <rect x="215" y="258" width="2" height="2" rx="0" fill="#fff9df" />
  <rect x="217" y="258" width="2" height="2" rx="0" fill="#fff9df" />
  <rect x="219" y="258" width="2" height="2" rx="0" fill="#fff9df" />
  <rect x="221" y="260" width="2" height="2" rx="0" fill="#fff9df" />
  <rect x="221" y="262" width="2" height="2" rx="0" fill="#fff9df" />
  <rect x="213" y="264" width="2" height="2" rx="0" fill="#fff9df" />
  <rect x="215" y="264" width="2" height="2" rx="0" fill="#fff9df" />
  <rect x="217" y="264" width="2" height="2" rx="0" fill="#fff9df" />
  <rect x="219" y="264" width="2" height="2" rx="0" fill="#fff9df" />
  <rect x="227" y="252" width="2" height="2" rx="0" fill="#fff9df" />
  <rect x="229" y="252" width="2" height="2" rx="0" fill="#fff9df" />
  <rect x="231" y="252" width="2" height="2" rx="0" fill="#fff9df" />
  <rect x="233" y="252" width="2" height="2" rx="0" fill="#fff9df" />
  <rect x="225" y="254" width="2" height="2" rx="0" fill="#fff9df" />
  <rect x="225" y="256" width="2" height="2" rx="0" fill="#fff9df" />
  <rect x="225" y="258" width="2" height="2" rx="0" fill="#fff9df" />
  <rect x="225" y="260" width="2" height="2" rx="0" fill="#fff9df" />
  <rect x="225" y="262" width="2" height="2" rx="0" fill="#fff9df" />
  <rect x="227" y="264" width="2" height="2" rx="0" fill="#fff9df" />
  <rect x="229" y="264" width="2" height="2" rx="0" fill="#fff9df" />
  <rect x="231" y="264" width="2" height="2" rx="0" fill="#fff9df" />
  <rect x="233" y="264" width="2" height="2" rx="0" fill="#fff9df" />
  <rect x="237" y="252" width="2" height="2" rx="0" fill="#fff9df" />
  <rect x="245" y="252" width="2" height="2" rx="0" fill="#fff9df" />
  <rect x="237" y="254" width="2" height="2" rx="0" fill="#fff9df" />
  <rect x="245" y="254" width="2" height="2" rx="0" fill="#fff9df" />
  <rect x="237" y="256" width="2" height="2" rx="0" fill="#fff9df" />
  <rect x="245" y="256" width="2" height="2" rx="0" fill="#fff9df" />
  <rect x="237" y="258" width="2" height="2" rx="0" fill="#fff9df" />
  <rect x="239" y="258" width="2" height="2" rx="0" fill="#fff9df" />
  <rect x="241" y="258" width="2" height="2" rx="0" fill="#fff9df" />
  <rect x="243" y="258" width="2" height="2" rx="0" fill="#fff9df" />
  <rect x="245" y="258" width="2" height="2" rx="0" fill="#fff9df" />
  <rect x="237" y="260" width="2" height="2" rx="0" fill="#fff9df" />
  <rect x="245" y="260" width="2" height="2" rx="0" fill="#fff9df" />
  <rect x="237" y="262" width="2" height="2" rx="0" fill="#fff9df" />
  <rect x="245" y="262" width="2" height="2" rx="0" fill="#fff9df" />
  <rect x="237" y="264" width="2" height="2" rx="0" fill="#fff9df" />
  <rect x="245" y="264" width="2" height="2" rx="0" fill="#fff9df" />
  <rect x="251" y="252" width="2" height="2" rx="0" fill="#fff9df" />
  <rect x="253" y="252" width="2" height="2" rx="0" fill="#fff9df" />
  <rect x="255" y="252" width="2" height="2" rx="0" fill="#fff9df" />
  <rect x="249" y="254" width="2" height="2" rx="0" fill="#fff9df" />
  <rect x="257" y="254" width="2" height="2" rx="0" fill="#fff9df" />
  <rect x="249" y="256" width="2" height="2" rx="0" fill="#fff9df" />
  <rect x="257" y="256" width="2" height="2" rx="0" fill="#fff9df" />
  <rect x="249" y="258" width="2" height="2" rx="0" fill="#fff9df" />
  <rect x="257" y="258" width="2" height="2" rx="0" fill="#fff9df" />
  <rect x="249" y="260" width="2" height="2" rx="0" fill="#fff9df" />
  <rect x="257" y="260" width="2" height="2" rx="0" fill="#fff9df" />
  <rect x="249" y="262" width="2" height="2" rx="0" fill="#fff9df" />
  <rect x="257" y="262" width="2" height="2" rx="0" fill="#fff9df" />
  <rect x="251" y="264" width="2" height="2" rx="0" fill="#fff9df" />
  <rect x="253" y="264" width="2" height="2" rx="0" fill="#fff9df" />
  <rect x="255" y="264" width="2" height="2" rx="0" fill="#fff9df" />
  <rect x="263" y="252" width="2" height="2" rx="0" fill="#fff9df" />
  <rect x="265" y="252" width="2" height="2" rx="0" fill="#fff9df" />
  <rect x="267" y="252" width="2" height="2" rx="0" fill="#fff9df" />
  <rect x="261" y="254" width="2" height="2" rx="0" fill="#fff9df" />
  <rect x="269" y="254" width="2" height="2" rx="0" fill="#fff9df" />
  <rect x="261" y="256" width="2" height="2" rx="0" fill="#fff9df" />
  <rect x="269" y="256" width="2" height="2" rx="0" fill="#fff9df" />
  <rect x="261" y="258" width="2" height="2" rx="0" fill="#fff9df" />
  <rect x="269" y="258" width="2" height="2" rx="0" fill="#fff9df" />
  <rect x="261" y="260" width="2" height="2" rx="0" fill="#fff9df" />
  <rect x="269" y="260" width="2" height="2" rx="0" fill="#fff9df" />
  <rect x="261" y="262" width="2" height="2" rx="0" fill="#fff9df" />
  <rect x="269" y="262" width="2" height="2" rx="0" fill="#fff9df" />
  <rect x="263" y="264" width="2" height="2" rx="0" fill="#fff9df" />
  <rect x="265" y="264" width="2" height="2" rx="0" fill="#fff9df" />
  <rect x="267" y="264" width="2" height="2" rx="0" fill="#fff9df" />
  <rect x="273" y="252" width="2" height="2" rx="0" fill="#fff9df" />
  <rect x="273" y="254" width="2" height="2" rx="0" fill="#fff9df" />
  <rect x="273" y="256" width="2" height="2" rx="0" fill="#fff9df" />
  <rect x="273" y="258" width="2" height="2" rx="0" fill="#fff9df" />
  <rect x="273" y="260" width="2" height="2" rx="0" fill="#fff9df" />
  <rect x="273" y="262" width="2" height="2" rx="0" fill="#fff9df" />
  <rect x="273" y="264" width="2" height="2" rx="0" fill="#fff9df" />
  <rect x="275" y="264" width="2" height="2" rx="0" fill="#fff9df" />
  <rect x="277" y="264" width="2" height="2" rx="0" fill="#fff9df" />
  <rect x="279" y="264" width="2" height="2" rx="0" fill="#fff9df" />
  <rect x="281" y="264" width="2" height="2" rx="0" fill="#fff9df" />
</svg>
