<svg xmlns="http://www.w3.org/2000/svg" width="256" height="256" viewBox="0 0 256 256" role="img">
  <title>No-running sign decoy</title>
  <desc>Authored vector source for Cameleon sign-lane sprite. Text and colors are generated from script parameters.</desc>
  <metadata>{&quot;kind&quot;:&quot;decoy&quot;,&quot;palette&quot;:&quot;poster&quot;}</metadata>
  <rect x="20" y="20" width="216" height="216" rx="18" fill="#fff3c4" />
  <circle cx="128" cy="128" r="92" fill="#df4540" />
  <circle cx="128" cy="128" r="72" fill="#fff3c4" />
  <circle cx="110" cy="82" r="9.2" fill="#103943" />
  <line x1="110" y1="93.5" x2="123.8" y2="128" stroke="#103943" stroke-width="16.099999999999998" stroke-linecap="round" opacity="1" />
  <line x1="115.75" y1="108.45" x2="89.3" y2="118.8" stroke="#103943" stroke-width="8.049999999999999" stroke-linecap="round" opacity="1" />
  <line x1="121.5" y1="110.75" x2="144.5" y2="95.8" stroke="#103943" stroke-width="8.049999999999999" stroke-linecap="round" opacity="1" />
  <line x1="123.8" y1="130.3" x2="99.65" y2="160.2" stroke="#103943" stroke-width="9.2" stroke-linecap="round" opacity="1" />
  <line x1="124.95" y1="131.45" x2="150.25" y2="155.6" stroke="#103943" stroke-width="9.2" stroke-linecap="round" opacity="1" />
  <line x1="68" y1="188" x2="190" y2="66" stroke="#df4540" stroke-width="17" stroke-linecap="round" opacity="1" />
  <rect x="75.07142857142858" y="224" width="1.8571428571428572" height="1.8571428571428572" rx="0" fill="#103943" />
  <rect x="82.50000000000001" y="224" width="1.8571428571428572" height="1.8571428571428572" rx="0" fill="#103943" />
  <rect x="75.07142857142858" y="225.85714285714286" width="1.8571428571428572" height="1.8571428571428572" rx="0" fill="#103943" />
  <rect x="76.92857142857144" y="225.85714285714286" width="1.8571428571428572" height="1.8571428571428572" rx="0" fill="#103943" />
  <rect x="82.50000000000001" y="225.85714285714286" width="1.8571428571428572" height="1.8571428571428572" rx="0" fill="#103943" />
  <rect x="75.07142857142858" y="227.71428571428572" width="1.8571428571428572" height="1.8571428571428572" rx="0" fill="#103943" />
  <rect x="78.78571428571429" y="227.71428571428572" width="1.8571428571428572" height="1.8571428571428572" rx="0" fill="#103943" />
  <rect x="82.50000000000001" y="227.71428571428572" width="1.8571428571428572" height="1.8571428571428572" rx="0" fill="#103943" />
  <rect x="75.07142857142858" y="229.57142857142858" width="1.8571428571428572" height="1.8571428571428572" rx="0" fill="#103943" />
  <rect x="80.64285714285715" y="229.57142857142858" width="1.8571428571428572" height="1.8571428571428572" rx="0" fill="#103943" />
  <rect x="82.50000000000001" y="229.57142857142858" width="1.8571428571428572" height="1.8571428571428572" rx="0" fill="#103943" />
  <rect x="75.07142857142858" y="231.42857142857142" width="1.8571428571428572" height="1.8571428571428572" rx="0" fill="#103943" />
  <rect x="82.50000000000001" y="231.42857142857142" width="1.8571428571428572" height="1.8571428571428572" rx="0" fill="#103943" />
  <rect x="75.07142857142858" y="233.28571428571428" width="1.8571428571428572" height="1.8571428571428572" rx="0" fill="#103943" />
  <rect x="82.50000000000001" y="233.28571428571428" width="1.8571428571428572" height="1.8571428571428572" rx="0" fill="#103943" />
  <rect x="75.07142857142858" y="235.14285714285714" width="1.8571428571428572" height="1.8571428571428572" rx="0" fill="#103943" />
  <rect x="82.50000000000001" y="235.14285714285714" width="1.8571428571428572" height="1.8571428571428572" rx="0" fill="#103943" />
  <rect x="88.07142857142858" y="224" width="1.8571428571428572" height="1.8571428571428572" rx="0" fill="#103943" />
  <rect x="89.92857142857143" y="224" width="1.8571428571428572" height="1.8571428571428572" rx="0" fill="#103943" />
  <rect x="91.78571428571429" y="224" width="1.8571428571428572" height="1.8571428571428572" rx="0" fill="#103943" />
  <rect x="86.21428571428572" y="225.85714285714286" width="1.8571428571428572" height="1.8571428571428572" rx="0" fill="#103943" />
  <rect x="93.64285714285715" y="225.85714285714286" width="1.8571428571428572" height="1.8571428571428572" rx="0" fill="#103943" />
  <rect x="86.21428571428572" y="227.71428571428572" width="1.8571428571428572" height="1.8571428571428572" rx="0" fill="#103943" />
  <rect x="93.64285714285715" y="227.71428571428572" width="1.8571428571428572" height="1.8571428571428572" rx="0" fill="#103943" />
  <rect x="86.21428571428572" y="229.57142857142858" width="1.8571428571428572" height="1.8571428571428572" rx="0" fill="#103943" />
  <rect x="93.64285714285715" y="229.57142857142858" width="1.8571428571428572" height="1.8571428571428572" rx="0" fill="#103943" />
  <rect x="86.21428571428572" y="231.42857142857142" width="1.8571428571428572" height="1.8571428571428572" rx="0" fill="#103943" />
  <rect x="93.64285714285715" y="231.42857142857142" width="1.8571428571428572" height="1.8571428571428572" rx="0" fill="#103943" />
  <rect x="86.21428571428572" y="233.28571428571428" width="1.8571428571428572" height="1.8571428571428572" rx="0" fill="#103943" />
  <rect x="93.64285714285715" y="233.28571428571428" width="1.8571428571428572" height="1.8571428571428572" rx="0" fill="#103943" />
  <rect x="88.07142857142858" y="235.14285714285714" width="1.8571428571428572" height="1.8571428571428572" rx="0" fill="#103943" />
  <rect x="89.92857142857143" y="235.14285714285714" width="1.8571428571428572" height="1.8571428571428572" rx="0" fill="#103943" />
  <rect x="91.78571428571429" y="235.14285714285714" width="1.8571428571428572" height="1.8571428571428572" rx="0" fill="#103943" />
  <rect x="104.78571428571429" y="224" width="1.8571428571428572" height="1.8571428571428572" rx="0" fill="#103943" />
  <rect x="106.64285714285715" y="224" width="1.8571428571428572" height="1.8571428571428572" rx="0" fill="#103943" />
  <rect x="108.5" y="224" width="1.8571428571428572" height="1.8571428571428572" rx="0" fill="#103943" />
  <rect x="110.35714285714286" y="224" width="1.8571428571428572" height="1.8571428571428572" rx="0" fill="#103943" />
  <rect x="104.78571428571429" y="225.85714285714286" width="1.8571428571428572" height="1.8571428571428572" rx="0" fill="#103943" />
  <rect x="112.21428571428572" y="225.85714285714286" width="1.8571428571428572" height="1.8571428571428572" rx="0" fill="#103943" />
  <rect x="104.78571428571429" y="227.71428571428572" width="1.8571428571428572" height="1.8571428571428572" rx="0" fill="#103943" />
  <rect x="112.21428571428572" y="227.71428571428572" width="1.8571428571428572" height="1.8571428571428572" rx="0" fill="#103943" />
  <rect x="104.78571428571429" y="229.57142857142858" width="1.8571428571428572" height="1.8571428571428572" rx="0" fill="#103943" />
  <rect x="106.64285714285715" y="229.57142857142858" width="1.8571428571428572" height="1.8571428571428572" rx="0" fill="#103943" />
  <rect x="108.5" y="229.57142857142858" width="1.8571428571428572" height="1.8571428571428572" rx="0" fill="#103943" />
  <rect x="110.35714285714286" y="229.57142857142858" width="1.8571428571428572" height="1.8571428571428572" rx="0" fill="#103943" />
  <rect x="104.78571428571429" y="231.42857142857142" width="1.8571428571428572" height="1.8571428571428572" rx="0" fill="#103943" />
  <rect x="108.5" y="231.42857142857142" width="1.8571428571428572" height="1.8571428571428572" rx="0" fill="#103943" />
  <rect x="104.78571428571429" y="233.28571428571428" width="1.8571428571428572" height="1.8571428571428572" rx="0" fill="#103943" />
  <rect x="110.35714285714286" y="233.28571428571428" width="1.8571428571428572" height="1.8571428571428572" rx="0" fill="#103943" />
  <rect x="104.78571428571429" y="235.14285714285714" width="1.8571428571428572" height="1.8571428571428572" rx="0" fill="#103943" />
  <rect x="112.21428571428572" y="235.14285714285714" width="1.8571428571428572" height="1.8571428571428572" rx="0" fill="#103943" />
  <rect x="115.92857142857143" y="224" width="1.8571428571428572" height="1.8571428571428572" rx="0" fill="#103943" />
  <rect x="123.35714285714286" y="224" width="1.8571428571428572" height="1.8571428571428572" rx="0" fill="#103943" />
  <rect x="115.92857142857143" y="225.85714285714286" width="1.8571428571428572" height="1.8571428571428572" rx="0" fill="#103943" />
  <rect x="123.35714285714286" y="225.85714285714286" width="1.8571428571428572" height="1.8571428571428572" rx="0" fill="#103943" />
  <rect x="115.92857142857143" y="227.71428571428572" width="1.8571428571428572" height="1.8571428571428572" rx="0" fill="#103943" />
  <rect x="123.35714285714286" y="227.71428571428572" width="1.8571428571428572" height="1.8571428571428572" rx="0" fill="#103943" />
  <rect x="115.92857142857143" y="229.57142857142858" width="1.8571428571428572" height="1.8571428571428572" rx="0" fill="#103943" />
  <rect x="123.35714285714286" y="229.57142857142858" width="1.8571428571428572" height="1.8571428571428572" rx="0" fill="#103943" />
  <rect x="115.92857142857143" y="231.42857142857142" width="1.8571428571428572" height="1.8571428571428572" rx="0" fill="#103943" />
  <rect x="123.35714285714286" y="231.42857142857142" width="1.8571428571428572" height="1.8571428571428572" rx="0" fill="#103943" />
  <rect x="115.92857142857143" y="233.28571428571428" width="1.8571428571428572" height="1.8571428571428572" rx="0" fill="#103943" />
  <rect x="123.35714285714286" y="233.28571428571428" width="1.8571428571428572" height="1.8571428571428572" rx="0" fill="#103943" />
  <rect x="117.78571428571429" y="235.14285714285714" width="1.8571428571428572" height="1.8571428571428572" rx="0" fill="#103943" />
  <rect x="119.64285714285714" y="235.14285714285714" width="1.8571428571428572" height="1.8571428571428572" rx="0" fill="#103943" />
  <rect x="121.5" y="235.14285714285714" width="1.8571428571428572" height="1.8571428571428572" rx="0" fill="#103943" />
  <rect x="127.07142857142857" y="224" width="1.8571428571428572" height="1.8571428571428572" rx="0" fill="#103943" />
  <rect x="134.5" y="224" width="1.8571428571428572" height="1.8571428571428572" rx="0" fill="#103943" />
  <rect x="127.07142857142857" y="225.85714285714286" width="1.8571428571428572" height="1.8571428571428572" rx="0" fill="#103943" />
  <rect x="128.92857142857142" y="225.85714285714286" width="1.8571428571428572" height="1.8571428571428572" rx="0" fill="#103943" />
  <rect x="134.5" y="225.85714285714286" width="1.8571428571428572" height="1.8571428571428572" rx="0" fill="#103943" />
  <rect x="127.07142857142857" y="227.71428571428572" width="1.8571428571428572" height="1.8571428571428572" rx="0" fill="#103943" />
  <rect x="130.78571428571428" y="227.71428571428572" width="1.8571428571428572" height="1.8571428571428572" rx="0" fill="#103943" />
  <rect x="134.5" y="227.71428571428572" width="1.8571428571428572" height="1.8571428571428572" rx="0" fill="#103943" />
  <rect x="127.07142857142857" y="229.57142857142858" width="1.8571428571428572" height="1.8571428571428572" rx="0" fill="#103943" />
  <rect x="132.64285714285714" y="229.57142857142858" width="1.8571428571428572" height="1.8571428571428572" rx="0" fill="#103943" />
  <rect x="134.5" y="229.57142857142858" width="1.8571428571428572" height="1.8571428571428572" rx="0" fill="#103943" />
  <rect x="127.07142857142857" y="231.42857142857142" width="1.8571428571428572" height="1.8571428571428572" rx="0" fill="#103943" />
  <rect x="134.5" y="231.42857142857142" width="1.8571428571428572" height="1.8571428571428572" rx="0" fill="#103943" />
  <rect x="127.07142857142857" y="233.28571428571428" width="1.8571428571428572" height="1.8571428571428572" rx="0" fill="#103943" />
  <rect x="134.5" y="233.28571428571428" width="1.8571428571428572" height="1.8571428571428572" rx="0" fill="#103943" />
  <rect x="127.07142857142857" y="235.14285714285714" width="1.8571428571428572" height="1.8571428571428572" rx="0" fill="#103943" />
  <rect x="134.5" y="235.14285714285714" width="1.8571428571428572" height="1.8571428571428572" rx="0" fill="#103943" />
  <rect x="138.21428571428572" y="224" width="1.8571428571428572" height="1.8571428571428572" rx="0" fill="#103943" />
  <rect x="145.64285714285714" y="224" width="1.8571428571428572" height="1.8571428571428572" rx="0" fill="#103943" />
  <rect x="138.21428571428572" y="225.85714285714286" width="1.8571428571428572" height="1.8571428571428572" rx="0" fill="#103943" />
  <rect x="140.07142857142858" y="225.85714285714286" width="1.8571428571428572" height="1.8571428571428572" rx="0" fill="#103943" />
  <rect x="145.64285714285714" y="225.85714285714286" width="1.8571428571428572" height="1.8571428571428572" rx="0" fill="#103943" />
  <rect x="138.21428571428572" y="227.71428571428572" width="1.8571428571428572" height="1.8571428571428572" rx="0" fill="#103943" />
  <rect x="141.92857142857144" y="227.71428571428572" width="1.8571428571428572" height="1.8571428571428572" rx="0" fill="#103943" />
  <rect x="145.64285714285714" y="227.71428571428572" width="1.8571428571428572" height="1.8571428571428572" rx="0" fill="#103943" />
  <rect x="138.21428571428572" y="229.57142857142858" width="1.8571428571428572" height="1.8571428571428572" rx="0" fill="#103943" />
  <rect x="143.7857142857143" y="229.57142857142858" width="1.8571428571428572" height="1.8571428571428572" rx="0" fill="#103943" />
  <rect x="145.64285714285714" y="229.57142857142858" width="1.8571428571428572" height="1.8571428571428572" rx="0" fill="#103943" />
  <rect x="138.21428571428572" y="231.42857142857142" width="1.8571428571428572" height="1.8571428571428572" rx="0" fill="#103943" />
  <rect x="145.64285714285714" y="231.42857142857142" width="1.8571428571428572" height="1.8571428571428572" rx="0" fill="#103943" />
  <rect x="138.21428571428572" y="233.28571428571428" width="1.8571428571428572" height="1.8571428571428572" rx="0" fill="#103943" />
  <rect x="145.64285714285714" y="233.28571428571428" width="1.8571428571428572" height="1.8571428571428572" rx="0" fill="#103943" />
  <rect x="138.21428571428572" y="235.14285714285714" width="1.8571428571428572" height="1.8571428571428572" rx="0" fill="#103943" />
  <rect x="145.64285714285714" y="235.14285714285714" width="1.8571428571428572" height="1.8571428571428572" rx="0" fill="#103943" />
  <rect x="149.35714285714286" y="224" width="1.8571428571428572" height="1.8571428571428572" rx="0" fill="#103943" />
  <rect x="151.21428571428572" y="224" width="1.8571428571428572" height="1.8571428571428572" rx="0" fill="#103943" />
  <rect x="153.07142857142858" y="224" width="1.8571428571428572" height="1.8571428571428572" rx="0" fill="#103943" />
  <rect x="154.92857142857144" y="224" width="1.8571428571428572" height="1.8571428571428572" rx="0" fill="#103943" />
  <rect x="156.78571428571428" y="224" width="1.8571428571428572" height="1.8571428571428572" rx="0" fill="#103943" />
  <rect x="153.07142857142858" y="225.85714285714286" width="1.8571428571428572" height="1.8571428571428572" rx="0" fill="#103943" />
  <rect x="153.07142857142858" y="227.71428571428572" width="1.8571428571428572" height="1.8571428571428572" rx="0" fill="#103943" />
  <rect x="153.07142857142858" y="229.57142857142858" width="1.8571428571428572" height="1.8571428571428572" rx="0" fill="#103943" />
  <rect x="153.07142857142858" y="231.42857142857142" width="1.8571428571428572" height="1.8571428571428572" rx="0" fill="#103943" />
  <rect x="153.07142857142858" y="233.28571428571428" width="1.8571428571428572" height="1.8571428571428572" rx="0" fill="#103943" />
  <rect x="149.35714285714286" y="235.14285714285714" width="1.8571428571428572" height="1.8571428571428572" rx="0" fill="#103943" />
  <rect x="151.21428571428572" y="235.14285714285714" width="1.8571428571428572" height="1.8571428571428572" rx="0" fill="#103943" />
  <rect x="153.07142857142858" y="235.14285714285714" width="1.8571428571428572" height="1.8571428571428572" rx="0" fill="#103943" />
  <rect x="154.92857142857144" y="235.14285714285714" width="1.8571428571428572" height="1.8571428571428572" rx="0" fill="#103943" />
  <rect x="156.78571428571428" y="235.14285714285714" width="1.8571428571428572" height="1.8571428571428572" rx="0" fill="#103943" />
  <rect x="160.5" y="224" width="1.8571428571428572" height="1.8571428571428572" rx="0" fill="#103943" />
  <rect x="167.92857142857142" y="224" width="1.8571428571428572" height="1.8571428571428572" rx="0" fill="#103943" />
  <rect x="160.5" y="225.85714285714286" width="1.8571428571428572" height="1.8571428571428572" rx="0" fill="#103943" />
  <rect x="162.35714285714286" y="225.85714285714286" width="1.8571428571428572" height="1.8571428571428572" rx="0" fill="#103943" />
  <rect x="167.92857142857142" y="225.85714285714286" width="1.8571428571428572" height="1.8571428571428572" rx="0" fill="#103943" />
  <rect x="160.5" y="227.71428571428572" width="1.8571428571428572" height="1.8571428571428572" rx="0" fill="#103943" />
  <rect x="164.21428571428572" y="227.71428571428572" width="1.8571428571428572" height="1.8571428571428572" rx="0" fill="#103943" />
  <rect x="167.92857142857142" y="227.71428571428572" width="1.8571428571428572" height="1.8571428571428572" rx="0" fill="#103943" />
  <rect x="160.5" y="229.57142857142858" width="1.8571428571428572" height="1.8571428571428572" rx="0" fill="#103943" />
  <rect x="166.07142857142858" y="229.57142857142858" width="1.8571428571428572" height="1.8571428571428572" rx="0" fill="#103943" />
  <rect x="167.92857142857142" y="229.57142857142858" width="1.8571428571428572" height="1.8571428571428572" rx="0" fill="#103943" />
  <rect x="160.5" y="231.42857142857142" width="1.8571428571428572" height="1.8571428571428572" rx="0" fill="#103943" />
  <rect x="167.92857142857142" y="231.42857142857142" width="1.8571428571428572" height="1.8571428571428572" rx="0" fill="#103943" />
  <rect x="160.5" y="233.28571428571428" width="1.8571428571428572" height="1.8571428571428572" rx="0" fill="#103943" />
  <rect x="167.92857142857142" y="233.28571428571428" width="1.8571428571428572" height="1.8571428571428572" rx="0" fill="#103943" />
  <rect x="160.5" y="235.14285714285714" width="1.8571428571428572" height="1.8571428571428572" rx="0" fill="#103943" />
  <rect x="167.92857142857142" y="235.14285714285714" width="1.8571428571428572" height="1.8571428571428572" rx="0" fill="#103943" />
  <rect x="173.5" y="224" width="1.8571428571428572" height="1.8571428571428572" rx="0" fill="#103943" />
  <rect x="175.35714285714286" y="224" width="1.8571428571428572" height="1.8571428571428572" rx="0" fill="#103943" />
  <rect x="177.21428571428572" y="224" width="1.8571428571428572" height="1.8571428571428572" rx="0" fill="#103943" />
  <rect x="179.07142857142856" y="224" width="1.8571428571428572" height="1.8571428571428572" rx="0" fill="#103943" />
  <rect x="171.64285714285714" y="225.85714285714286" width="1.8571428571428572" height="1.8571428571428572" rx="0" fill="#103943" />
  <rect x="171.64285714285714" y="227.71428571428572" width="1.8571428571428572" height="1.8571428571428572" rx="0" fill="#103943" />
  <rect x="171.64285714285714" y="229.57142857142858" width="1.8571428571428572" height="1.8571428571428572" rx="0" fill="#103943" />
  <rect x="175.35714285714286" y="229.57142857142858" width="1.8571428571428572" height="1.8571428571428572" rx="0" fill="#103943" />
  <rect x="177.21428571428572" y="229.57142857142858" width="1.8571428571428572" height="1.8571428571428572" rx="0" fill="#103943" />
  <rect x="179.07142857142856" y="229.57142857142858" width="1.8571428571428572" height="1.8571428571428572" rx="0" fill="#103943" />
  <rect x="171.64285714285714" y="231.42857142857142" width="1.8571428571428572" height="1.8571428571428572" rx="0" fill="#103943" />
  <rect x="179.07142857142856" y="231.42857142857142" width="1.8571428571428572" height="1.8571428571428572" rx="0" fill="#103943" />
  <rect x="171.64285714285714" y="233.28571428571428" width="1.8571428571428572" height="1.8571428571428572" rx="0" fill="#103943" />
  <rect x="179.07142857142856" y="233.28571428571428" width="1.8571428571428572" height="1.8571428571428572" rx="0" fill="#103943" />
  <rect x="173.5" y="235.14285714285714" width="1.8571428571428572" height="1.8571428571428572" rx="0" fill="#103943" />
  <rect x="175.35714285714286" y="235.14285714285714" width="1.8571428571428572" height="1.8571428571428572" rx="0" fill="#103943" />
  <rect x="177.21428571428572" y="235.14285714285714" width="1.8571428571428572" height="1.8571428571428572" rx="0" fill="#103943" />
  <rect x="179.07142857142856" y="235.14285714285714" width="1.8571428571428572" height="1.8571428571428572" rx="0" fill="#103943" />
</svg>
