<svg xmlns="http://www.w3.org/2000/svg" width="240" height="300" viewBox="0 0 240 300" role="img">
  <title>Wet-floor A-frame decoy</title>
  <desc>Authored vector source for Cameleon sign-lane sprite. Text and colors are generated from script parameters.</desc>
  <metadata>{&quot;kind&quot;:&quot;decoy&quot;,&quot;palette&quot;:&quot;riso&quot;}</metadata>
  <polygon points="46,268 120,28 194,268" fill="#d49a2d" />
  <polygon points="62,252 120,62 178,252" fill="#f7c84f" />
  <rect x="52" y="252" width="136" height="16" rx="6" fill="#d49a2d" />
  <ellipse cx="100.6" cy="173.88" rx="45.919999999999995" ry="7.38" fill="#476269" opacity="0.38" />
  <circle cx="84.2" cy="111.56" r="6.56" fill="#166a73" />
  <line x1="82.56" y1="120.58" x2="111.25999999999999" y2="142.72" stroke="#166a73" stroke-width="11.479999999999999" stroke-linecap="round" opacity="1" />
  <line x1="92.4" y1="125.5" x2="64.52" y2="119.76" stroke="#166a73" stroke-width="5.739999999999999" stroke-linecap="round" opacity="1" />
  <line x1="100.6" y1="133.7" x2="84.2" y2="154.2" stroke="#166a73" stroke-width="5.739999999999999" stroke-linecap="round" opacity="1" />
  <line x1="110.44" y1="145.18" x2="139.95999999999998" y2="136.16" stroke="#166a73" stroke-width="6.56" stroke-linecap="round" opacity="1" />
  <line x1="109.62" y1="146.82" x2="126.84" y2="168.95999999999998" stroke="#166a73" stroke-width="6.56" stroke-linecap="round" opacity="1" />
  <rect x="98.14285714285714" y="207" width="2.5714285714285716" height="2.5714285714285716" rx="0" fill="#166a73" />
  <rect x="108.42857142857143" y="207" width="2.5714285714285716" height="2.5714285714285716" rx="0" fill="#166a73" />
  <rect x="98.14285714285714" y="209.57142857142858" width="2.5714285714285716" height="2.5714285714285716" rx="0" fill="#166a73" />
  <rect x="108.42857142857143" y="209.57142857142858" width="2.5714285714285716" height="2.5714285714285716" rx="0" fill="#166a73" />
  <rect x="98.14285714285714" y="212.14285714285714" width="2.5714285714285716" height="2.5714285714285716" rx="0" fill="#166a73" />
  <rect x="108.42857142857143" y="212.14285714285714" width="2.5714285714285716" height="2.5714285714285716" rx="0" fill="#166a73" />
  <rect x="98.14285714285714" y="214.71428571428572" width="2.5714285714285716" height="2.5714285714285716" rx="0" fill="#166a73" />
  <rect x="103.28571428571428" y="214.71428571428572" width="2.5714285714285716" height="2.5714285714285716" rx="0" fill="#166a73" />
  <rect x="108.42857142857143" y="214.71428571428572" width="2.5714285714285716" height="2.5714285714285716" rx="0" fill="#166a73" />
  <rect x="98.14285714285714" y="217.28571428571428" width="2.5714285714285716" height="2.5714285714285716" rx="0" fill="#166a73" />
  <rect x="103.28571428571428" y="217.28571428571428" width="2.5714285714285716" height="2.5714285714285716" rx="0" fill="#166a73" />
  <rect x="108.42857142857143" y="217.28571428571428" width="2.5714285714285716" height="2.5714285714285716" rx="0" fill="#166a73" />
  <rect x="98.14285714285714" y="219.85714285714286" width="2.5714285714285716" height="2.5714285714285716" rx="0" fill="#166a73" />
  <rect x="103.28571428571428" y="219.85714285714286" width="2.5714285714285716" height="2.5714285714285716" rx="0" fill="#166a73" />
  <rect x="108.42857142857143" y="219.85714285714286" width="2.5714285714285716" height="2.5714285714285716" rx="0" fill="#166a73" />
  <rect x="100.71428571428571" y="222.42857142857144" width="2.5714285714285716" height="2.5714285714285716" rx="0" fill="#166a73" />
  <rect x="105.85714285714286" y="222.42857142857144" width="2.5714285714285716" height="2.5714285714285716" rx="0" fill="#166a73" />
  <rect x="113.57142857142857" y="207" width="2.5714285714285716" height="2.5714285714285716" rx="0" fill="#166a73" />
  <rect x="116.14285714285714" y="207" width="2.5714285714285716" height="2.5714285714285716" rx="0" fill="#166a73" />
  <rect x="118.71428571428571" y="207" width="2.5714285714285716" height="2.5714285714285716" rx="0" fill="#166a73" />
  <rect x="121.28571428571428" y="207" width="2.5714285714285716" height="2.5714285714285716" rx="0" fill="#166a73" />
  <rect x="123.85714285714286" y="207" width="2.5714285714285716" height="2.5714285714285716" rx="0" fill="#166a73" />
  <rect x="113.57142857142857" y="209.57142857142858" width="2.5714285714285716" height="2.5714285714285716" rx="0" fill="#166a73" />
  <rect x="113.57142857142857" y="212.14285714285714" width="2.5714285714285716" height="2.5714285714285716" rx="0" fill="#166a73" />
  <rect x="113.57142857142857" y="214.71428571428572" width="2.5714285714285716" height="2.5714285714285716" rx="0" fill="#166a73" />
  <rect x="116.14285714285714" y="214.71428571428572" width="2.5714285714285716" height="2.5714285714285716" rx="0" fill="#166a73" />
  <rect x="118.71428571428571" y="214.71428571428572" width="2.5714285714285716" height="2.5714285714285716" rx="0" fill="#166a73" />
  <rect x="121.28571428571428" y="214.71428571428572" width="2.5714285714285716" height="2.5714285714285716" rx="0" fill="#166a73" />
  <rect x="113.57142857142857" y="217.28571428571428" width="2.5714285714285716" height="2.5714285714285716" rx="0" fill="#166a73" />
  <rect x="113.57142857142857" y="219.85714285714286" width="2.5714285714285716" height="2.5714285714285716" rx="0" fill="#166a73" />
  <rect x="113.57142857142857" y="222.42857142857144" width="2.5714285714285716" height="2.5714285714285716" rx="0" fill="#166a73" />
  <rect x="116.14285714285714" y="222.42857142857144" width="2.5714285714285716" height="2.5714285714285716" rx="0" fill="#166a73" />
  <rect x="118.71428571428571" y="222.42857142857144" width="2.5714285714285716" height="2.5714285714285716" rx="0" fill="#166a73" />
  <rect x="121.28571428571428" y="222.42857142857144" width="2.5714285714285716" height="2.5714285714285716" rx="0" fill="#166a73" />
  <rect x="123.85714285714286" y="222.42857142857144" width="2.5714285714285716" height="2.5714285714285716" rx="0" fill="#166a73" />
  <rect x="129" y="207" width="2.5714285714285716" height="2.5714285714285716" rx="0" fill="#166a73" />
  <rect x="131.57142857142858" y="207" width="2.5714285714285716" height="2.5714285714285716" rx="0" fill="#166a73" />
  <rect x="134.14285714285714" y="207" width="2.5714285714285716" height="2.5714285714285716" rx="0" fill="#166a73" />
  <rect x="136.71428571428572" y="207" width="2.5714285714285716" height="2.5714285714285716" rx="0" fill="#166a73" />
  <rect x="139.28571428571428" y="207" width="2.5714285714285716" height="2.5714285714285716" rx="0" fill="#166a73" />
  <rect x="134.14285714285714" y="209.57142857142858" width="2.5714285714285716" height="2.5714285714285716" rx="0" fill="#166a73" />
  <rect x="134.14285714285714" y="212.14285714285714" width="2.5714285714285716" height="2.5714285714285716" rx="0" fill="#166a73" />
  <rect x="134.14285714285714" y="214.71428571428572" width="2.5714285714285716" height="2.5714285714285716" rx="0" fill="#166a73" />
  <rect x="134.14285714285714" y="217.28571428571428" width="2.5714285714285716" height="2.5714285714285716" rx="0" fill="#166a73" />
  <rect x="134.14285714285714" y="219.85714285714286" width="2.5714285714285716" height="2.5714285714285716" rx="0" fill="#166a73" />
  <rect x="134.14285714285714" y="222.42857142857144" width="2.5714285714285716" height="2.5714285714285716" rx="0" fill="#166a73" />
  <rect x="82.71428571428572" y="230" width="2.5714285714285716" height="2.5714285714285716" rx="0" fill="#166a73" />
  <rect x="85.28571428571429" y="230" width="2.5714285714285716" height="2.5714285714285716" rx="0" fill="#166a73" />
  <rect x="87.85714285714286" y="230" width="2.5714285714285716" height="2.5714285714285716" rx="0" fill="#166a73" />
  <rect x="90.42857142857144" y="230" width="2.5714285714285716" height="2.5714285714285716" rx="0" fill="#166a73" />
  <rect x="93.00000000000001" y="230" width="2.5714285714285716" height="2.5714285714285716" rx="0" fill="#166a73" />
  <rect x="82.71428571428572" y="232.57142857142858" width="2.5714285714285716" height="2.5714285714285716" rx="0" fill="#166a73" />
  <rect x="82.71428571428572" y="235.14285714285714" width="2.5714285714285716" height="2.5714285714285716" rx="0" fill="#166a73" />
  <rect x="82.71428571428572" y="237.71428571428572" width="2.5714285714285716" height="2.5714285714285716" rx="0" fill="#166a73" />
  <rect x="85.28571428571429" y="237.71428571428572" width="2.5714285714285716" height="2.5714285714285716" rx="0" fill="#166a73" />
  <rect x="87.85714285714286" y="237.71428571428572" width="2.5714285714285716" height="2.5714285714285716" rx="0" fill="#166a73" />
  <rect x="90.42857142857144" y="237.71428571428572" width="2.5714285714285716" height="2.5714285714285716" rx="0" fill="#166a73" />
  <rect x="82.71428571428572" y="240.28571428571428" width="2.5714285714285716" height="2.5714285714285716" rx="0" fill="#166a73" />
  <rect x="82.71428571428572" y="242.85714285714286" width="2.5714285714285716" height="2.5714285714285716" rx="0" fill="#166a73" />
  <rect x="82.71428571428572" y="245.42857142857144" width="2.5714285714285716" height="2.5714285714285716" rx="0" fill="#166a73" />
  <rect x="98.14285714285715" y="230" width="2.5714285714285716" height="2.5714285714285716" rx="0" fill="#166a73" />
  <rect x="98.14285714285715" y="232.57142857142858" width="2.5714285714285716" height="2.5714285714285716" rx="0" fill="#166a73" />
  <rect x="98.14285714285715" y="235.14285714285714" width="2.5714285714285716" height="2.5714285714285716" rx="0" fill="#166a73" />
  <rect x="98.14285714285715" y="237.71428571428572" width="2.5714285714285716" height="2.5714285714285716" rx="0" fill="#166a73" />
  <rect x="98.14285714285715" y="240.28571428571428" width="2.5714285714285716" height="2.5714285714285716" rx="0" fill="#166a73" />
  <rect x="98.14285714285715" y="242.85714285714286" width="2.5714285714285716" height="2.5714285714285716" rx="0" fill="#166a73" />
  <rect x="98.14285714285715" y="245.42857142857144" width="2.5714285714285716" height="2.5714285714285716" rx="0" fill="#166a73" />
  <rect x="100.71428571428572" y="245.42857142857144" width="2.5714285714285716" height="2.5714285714285716" rx="0" fill="#166a73" />
  <rect x="103.28571428571429" y="245.42857142857144" width="2.5714285714285716" height="2.5714285714285716" rx="0" fill="#166a73" />
  <rect x="105.85714285714286" y="245.42857142857144" width="2.5714285714285716" height="2.5714285714285716" rx="0" fill="#166a73" />
  <rect x="108.42857142857144" y="245.42857142857144" width="2.5714285714285716" height="2.5714285714285716" rx="0" fill="#166a73" />
  <rect x="116.14285714285715" y="230" width="2.5714285714285716" height="2.5714285714285716" rx="0" fill="#166a73" />
  <rect x="118.71428571428572" y="230" width="2.5714285714285716" height="2.5714285714285716" rx="0" fill="#166a73" />
  <rect x="121.2857142857143" y="230" width="2.5714285714285716" height="2.5714285714285716" rx="0" fill="#166a73" />
  <rect x="113.57142857142858" y="232.57142857142858" width="2.5714285714285716" height="2.5714285714285716" rx="0" fill="#166a73" />
  <rect x="123.85714285714288" y="232.57142857142858" width="2.5714285714285716" height="2.5714285714285716" rx="0" fill="#166a73" />
  <rect x="113.57142857142858" y="235.14285714285714" width="2.5714285714285716" height="2.5714285714285716" rx="0" fill="#166a73" />
  <rect x="123.85714285714288" y="235.14285714285714" width="2.5714285714285716" height="2.5714285714285716" rx="0" fill="#166a73" />
  <rect x="113.57142857142858" y="237.71428571428572" width="2.5714285714285716" height="2.5714285714285716" rx="0" fill="#166a73" />
  <rect x="123.85714285714288" y="237.71428571428572" width="2.5714285714285716" height="2.5714285714285716" rx="0" fill="#166a73" />
  <rect x="113.57142857142858" y="240.28571428571428" width="2.5714285714285716" height="2.5714285714285716" rx="0" fill="#166a73" />
  <rect x="123.85714285714288" y="240.28571428571428" width="2.5714285714285716" height="2.5714285714285716" rx="0" fill="#166a73" />
  <rect x="113.57142857142858" y="242.85714285714286" width="2.5714285714285716" height="2.5714285714285716" rx="0" fill="#166a73" />
  <rect x="123.85714285714288" y="242.85714285714286" width="2.5714285714285716" height="2.5714285714285716" rx="0" fill="#166a73" />
  <rect x="116.14285714285715" y="245.42857142857144" width="2.5714285714285716" height="2.5714285714285716" rx="0" fill="#166a73" />
  <rect x="118.71428571428572" y="245.42857142857144" width="2.5714285714285716" height="2.5714285714285716" rx="0" fill="#166a73" />
  <rect x="121.2857142857143" y="245.42857142857144" width="2.5714285714285716" height="2.5714285714285716" rx="0" fill="#166a73" />
  <rect x="131.57142857142858" y="230" width="2.5714285714285716" height="2.5714285714285716" rx="0" fill="#166a73" />
  <rect x="134.14285714285714" y="230" width="2.5714285714285716" height="2.5714285714285716" rx="0" fill="#166a73" />
  <rect x="136.71428571428572" y="230" width="2.5714285714285716" height="2.5714285714285716" rx="0" fill="#166a73" />
  <rect x="129" y="232.57142857142858" width="2.5714285714285716" height="2.5714285714285716" rx="0" fill="#166a73" />
  <rect x="139.28571428571428" y="232.57142857142858" width="2.5714285714285716" height="2.5714285714285716" rx="0" fill="#166a73" />
  <rect x="129" y="235.14285714285714" width="2.5714285714285716" height="2.5714285714285716" rx="0" fill="#166a73" />
  <rect x="139.28571428571428" y="235.14285714285714" width="2.5714285714285716" height="2.5714285714285716" rx="0" fill="#166a73" />
  <rect x="129" y="237.71428571428572" width="2.5714285714285716" height="2.5714285714285716" rx="0" fill="#166a73" />
  <rect x="139.28571428571428" y="237.71428571428572" width="2.5714285714285716" height="2.5714285714285716" rx="0" fill="#166a73" />
  <rect x="129" y="240.28571428571428" width="2.5714285714285716" height="2.5714285714285716" rx="0" fill="#166a73" />
  <rect x="139.28571428571428" y="240.28571428571428" width="2.5714285714285716" height="2.5714285714285716" rx="0" fill="#166a73" />
  <rect x="129" y="242.85714285714286" width="2.5714285714285716" height="2.5714285714285716" rx="0" fill="#166a73" />
  <rect x="139.28571428571428" y="242.85714285714286" width="2.5714285714285716" height="2.5714285714285716" rx="0" fill="#166a73" />
  <rect x="131.57142857142858" y="245.42857142857144" width="2.5714285714285716" height="2.5714285714285716" rx="0" fill="#166a73" />
  <rect x="134.14285714285714" y="245.42857142857144" width="2.5714285714285716" height="2.5714285714285716" rx="0" fill="#166a73" />
  <rect x="136.71428571428572" y="245.42857142857144" width="2.5714285714285716" height="2.5714285714285716" rx="0" fill="#166a73" />
  <rect x="144.42857142857142" y="230" width="2.5714285714285716" height="2.5714285714285716" rx="0" fill="#166a73" />
  <rect x="147" y="230" width="2.5714285714285716" height="2.5714285714285716" rx="0" fill="#166a73" />
  <rect x="149.57142857142856" y="230" width="2.5714285714285716" height="2.5714285714285716" rx="0" fill="#166a73" />
  <rect x="152.14285714285714" y="230" width="2.5714285714285716" height="2.5714285714285716" rx="0" fill="#166a73" />
  <rect x="144.42857142857142" y="232.57142857142858" width="2.5714285714285716" height="2.5714285714285716" rx="0" fill="#166a73" />
  <rect x="154.7142857142857" y="232.57142857142858" width="2.5714285714285716" height="2.5714285714285716" rx="0" fill="#166a73" />
  <rect x="144.42857142857142" y="235.14285714285714" width="2.5714285714285716" height="2.5714285714285716" rx="0" fill="#166a73" />
  <rect x="154.7142857142857" y="235.14285714285714" width="2.5714285714285716" height="2.5714285714285716" rx="0" fill="#166a73" />
  <rect x="144.42857142857142" y="237.71428571428572" width="2.5714285714285716" height="2.5714285714285716" rx="0" fill="#166a73" />
  <rect x="147" y="237.71428571428572" width="2.5714285714285716" height="2.5714285714285716" rx="0" fill="#166a73" />
  <rect x="149.57142857142856" y="237.71428571428572" width="2.5714285714285716" height="2.5714285714285716" rx="0" fill="#166a73" />
  <rect x="152.14285714285714" y="237.71428571428572" width="2.5714285714285716" height="2.5714285714285716" rx="0" fill="#166a73" />
  <rect x="144.42857142857142" y="240.28571428571428" width="2.5714285714285716" height="2.5714285714285716" rx="0" fill="#166a73" />
  <rect x="149.57142857142856" y="240.28571428571428" width="2.5714285714285716" height="2.5714285714285716" rx="0" fill="#166a73" />
  <rect x="144.42857142857142" y="242.85714285714286" width="2.5714285714285716" height="2.5714285714285716" rx="0" fill="#166a73" />
  <rect x="152.14285714285714" y="242.85714285714286" width="2.5714285714285716" height="2.5714285714285716" rx="0" fill="#166a73" />
  <rect x="144.42857142857142" y="245.42857142857144" width="2.5714285714285716" height="2.5714285714285716" rx="0" fill="#166a73" />
  <rect x="154.7142857142857" y="245.42857142857144" width="2.5714285714285716" height="2.5714285714285716" rx="0" fill="#166a73" />
</svg>
