<svg xmlns="http://www.w3.org/2000/svg" viewBox="0 0 256 256" role="img" aria-label="Home">
  <defs>
    <radialGradient id="buttonGlow" cx="34%" cy="22%" r="78%">
      <stop offset="0" stop-color="#b8fff2"/>
      <stop offset=".34" stop-color="#44dfc6"/>
      <stop offset=".72" stop-color="#0fa58f"/>
      <stop offset="1" stop-color="#04766e"/>
    </radialGradient>
    <linearGradient id="buttonRim" x1="52" y1="18" x2="205" y2="238" gradientUnits="userSpaceOnUse">
      <stop offset="0" stop-color="#f6fffb"/>
      <stop offset=".18" stop-color="#7ef7df"/>
      <stop offset=".7" stop-color="#0b8f80"/>
      <stop offset="1" stop-color="#045b58"/>
    </linearGradient>
    <linearGradient id="houseFill" x1="94" y1="76" x2="162" y2="190" gradientUnits="userSpaceOnUse">
      <stop offset="0" stop-color="#ffffff"/>
      <stop offset=".66" stop-color="#fff9e5"/>
      <stop offset="1" stop-color="#f3dfba"/>
    </linearGradient>
    <filter id="buttonShadow" x="-18%" y="-18%" width="136%" height="148%">
      <feDropShadow dx="0" dy="7" stdDeviation="5" flood-color="#04403e" flood-opacity=".34"/>
    </filter>
    <filter id="symbolShadow" x="-20%" y="-20%" width="140%" height="145%">
      <feDropShadow dx="0" dy="5" stdDeviation="2.5" flood-color="#02534b" flood-opacity=".36"/>
    </filter>
  </defs>

  <g filter="url(#buttonShadow)">
    <circle cx="128" cy="128" r="113" fill="url(#buttonRim)"/>
    <circle cx="128" cy="128" r="101" fill="#08786f"/>
    <circle cx="128" cy="128" r="94" fill="url(#buttonGlow)"/>
    <path d="M48 94c20-37 51-56 93-57 28 0 51 8 68 24-22-8-47-10-75-6-38 5-66 18-86 39z" fill="#fff" opacity=".46"/>
    <path d="M42 169c25 31 56 46 93 44 35-2 62-15 81-39-17 39-48 61-88 63-39 1-68-21-86-68z" fill="#045b58" opacity=".2"/>
    <path d="M46 78c20-34 48-51 84-52" fill="none" stroke="#fff" stroke-width="6" stroke-linecap="round" opacity=".65"/>
    <path d="M205 57l9 15 15 5-15 6-9 15-9-15-15-6 15-5z" fill="#fff7cc" opacity=".9"/>
  </g>

  <g filter="url(#symbolShadow)" stroke-linejoin="round" stroke-linecap="round">
    <path
      d="M63 129 128 76l65 53c6 5 7 14 2 20s-14 6-20 1l-7-6v42c0 16-12 28-28 28h-24c-16 0-28-12-28-28v-42l-7 6c-6 5-15 5-20-1s-4-15 2-20z"
      fill="#087469"
      opacity=".55"
    />
    <path
      d="M70 124 128 76l58 48c5 4 6 11 2 16-5 5-12 5-17 1l-43-36-43 36c-5 4-12 4-17-1-4-5-3-12 2-16z"
      fill="url(#houseFill)"
      stroke="#ffffff"
      stroke-width="7"
    />
    <path
      d="M93 132h70v54c0 10-8 18-18 18h-34c-10 0-18-8-18-18z"
      fill="url(#houseFill)"
      stroke="#ffffff"
      stroke-width="7"
    />
    <path d="M116 160c0-8 6-14 14-14s14 6 14 14v44h-28z" fill="#12a98f"/>
    <circle cx="137" cy="176" r="4" fill="#fff4bf"/>
    <path d="M101 135h54" fill="none" stroke="#ffffff" stroke-width="5" opacity=".58"/>
    <path d="M89 121 128 89l39 32" fill="none" stroke="#fff7d4" stroke-width="6" opacity=".5"/>
  </g>
</svg>
